<svg width="67" height="67" viewBox="0 0 67 67" fill="none" xmlns="http://www.w3.org/2000/svg">
<g clip-path="url(#clip0_53_902)">
<path d="M37.8001 51.4466C39.0178 51.3357 40.2765 51.2197 41.5079 50.9741C45.9262 50.0923 48.9166 47.7505 50.3957 44.0118C51.4955 41.2299 51.8081 38.2042 51.3248 35.0181C50.92 32.3539 49.9926 29.7153 48.3172 26.4593C45.2686 20.5391 41.0912 14.7178 35.544 8.66289C34.9718 8.03863 34.246 7.6958 33.4962 7.6958C33.4894 7.6958 33.4826 7.6958 33.4757 7.6958C32.7243 7.70262 32.0001 8.05398 31.4399 8.68847L31.1052 9.06712C29.7372 10.6124 28.3231 12.2089 27.008 13.8531C22.7451 19.1899 19.7769 23.8702 17.6693 28.5828C15.6643 33.0651 15.0477 36.9693 15.7326 40.8717C16.3765 44.5422 17.9443 47.1859 20.5266 48.9512C22.3045 50.1673 24.4018 50.9195 26.938 51.247C27.9815 51.3817 29.0489 51.4773 30.0822 51.5676C30.3247 51.5898 30.5689 51.6103 30.8149 51.6325C30.8149 52.1203 30.8132 52.6064 30.8132 53.0942C30.8114 54.2472 30.808 55.4394 30.82 56.6129C30.8354 58.0285 31.8942 59.1849 33.2845 59.3009C33.3579 59.3077 33.4313 59.3094 33.5048 59.3094C34.7379 59.3094 35.8377 58.4345 36.1161 57.1962C36.1878 56.8772 36.1878 56.5702 36.1861 56.2973V56.2052C36.1896 54.8765 36.1896 53.5462 36.1878 52.2056V51.6001C36.7207 51.5455 37.2689 51.496 37.8001 51.4466ZM36.2032 42.2925C36.2442 42.2465 36.3023 42.1885 36.3381 42.1527L36.3569 42.1339C38.444 40.0377 40.5856 37.8971 42.9049 35.5877C43.7179 34.7793 44.0116 33.8787 43.7794 32.9133C43.5471 31.948 42.8588 31.2128 41.94 30.9468C40.9921 30.6722 39.981 30.9416 39.233 31.6665C38.3637 32.5091 37.4978 33.379 36.6592 34.2215C36.5089 34.3733 36.3569 34.5251 36.2066 34.6769C36.2186 33.7525 36.222 32.8639 36.1639 31.9616C36.1059 31.0644 36.3262 30.5169 36.9496 30.0087C37.5781 29.497 38.1314 28.9103 38.666 28.3457C38.8265 28.1768 38.9871 28.0063 39.1476 27.8391C40.2714 26.6793 40.3141 25.0539 39.2467 23.9725C38.1587 22.8707 36.5055 22.9133 35.3185 24.0765C34.8472 24.5371 34.3809 25.0027 33.9147 25.4683C33.7695 25.6133 33.6243 25.7583 33.4792 25.9032C33.4057 25.8265 33.3323 25.7514 33.2588 25.6747C32.7157 25.1118 32.1555 24.5302 31.568 23.9725C30.8302 23.2715 29.8328 23.0139 28.902 23.2834C27.9917 23.5478 27.3035 24.2727 27.0644 25.2244C26.897 25.8913 26.9004 26.8925 27.8739 27.863L28.5229 28.5094C29.2436 29.2258 29.9883 29.9677 30.7073 30.7046C30.7534 30.7506 30.7841 30.7967 30.8012 30.824C30.8166 32.0998 30.8166 33.3687 30.8166 34.694C30.5706 34.4484 30.3247 34.2045 30.0805 33.9589C29.3546 33.2357 28.6305 32.5108 27.9029 31.7893C26.675 30.5732 25.0405 30.5067 23.927 31.6273C22.8186 32.7428 22.8954 34.375 24.1132 35.5946C24.7792 36.2632 25.4487 36.9284 26.1165 37.5952C27.5921 39.0672 29.1189 40.5903 30.6031 42.1015C30.7004 42.2004 30.7927 42.4221 30.7978 42.5671C30.8302 43.6246 30.8251 44.6753 30.82 45.789C30.82 45.9357 30.8183 46.0841 30.8183 46.2325C30.3384 46.2171 29.8841 46.2018 29.4469 46.1421C28.3316 45.9903 27.0678 45.818 25.8808 45.5332C23.2011 44.8885 21.6316 43.1675 21.0834 40.2697C20.5164 37.2729 20.9621 34.2812 22.4873 30.8581C24.646 26.009 27.6946 21.7859 30.1095 18.6493C30.9771 17.5219 31.896 16.3979 32.7858 15.3097C33.0214 15.0197 33.2588 14.7298 33.4945 14.4398C38.0716 19.8193 41.3371 24.5558 43.7452 29.3042C44.7443 31.2759 45.8049 33.6502 46.0867 36.3177C46.2916 38.2587 46.0867 40.1127 45.4787 41.8286C44.9322 43.3705 43.9331 44.4365 42.4267 45.0863C40.4592 45.9374 38.3073 46.1216 36.1913 46.2291C36.1913 46.1131 36.1913 45.9988 36.1913 45.8828C36.1861 44.648 36.1844 43.4762 36.2032 42.2925Z" fill="#171717"/>
<path d="M55.2092 8.13589C44.5486 -0.607096 32.5952 -2.31271 19.6802 3.06339C18.7802 3.43862 17.9228 3.90085 17.0928 4.34942C17.0706 4.36136 17.0467 4.37501 17.0228 4.38695C17.0211 3.83092 17.0177 3.26124 17.0006 2.69668C16.9562 1.2128 15.7829 0.0597994 14.3226 0.0597994C14.3124 0.0597994 14.3038 0.0597994 14.2936 0.0597994C12.8231 0.0751499 11.66 1.22815 11.6447 2.68645C11.6208 4.94809 11.6208 7.25238 11.6464 9.53449C11.6618 10.8683 12.666 11.9565 14.034 12.1236C15.0878 12.2515 15.8221 11.6955 16.4114 11.2469L16.4814 11.1941C22.3633 6.73728 29.0821 4.85258 36.455 5.58599C42.1542 6.15396 47.1446 8.24505 51.2845 11.8013C59.7351 19.0587 63.0091 28.2536 61.0143 39.1303C60.3004 43.0243 58.6472 46.6947 55.9624 50.3533C55.4859 51.0031 55.286 51.757 55.3988 52.4768C55.5064 53.1607 55.8906 53.7713 56.4799 54.1978C56.9683 54.5508 57.5165 54.7214 58.0579 54.7214C58.8897 54.7214 59.7043 54.3188 60.2594 53.5547C65.9056 45.7874 68.0217 37.2235 66.5478 28.1018C65.2259 19.9405 61.4122 13.222 55.2092 8.13589Z" fill="#171717"/>
<path d="M55.2821 56.9437C55.0857 56.0841 54.4657 55.3882 53.6254 55.0863C52.6963 54.752 51.6477 54.955 50.7477 55.6441C41.0281 63.084 28.5675 63.6383 18.228 57.0904C8.2574 50.778 3.30455 38.3781 6.18233 26.9351C7.1097 23.2476 8.74585 19.792 11.0464 16.6656C11.5211 16.0209 11.7193 15.2687 11.6031 14.549C11.4921 13.8599 11.101 13.2459 10.5033 12.8212C9.27017 11.9445 7.64939 12.231 6.73226 13.4864C1.2978 20.9484 -0.864372 29.1883 0.310647 37.9773C1.43614 46.3996 5.24983 53.3995 11.6475 58.7807C18.1562 64.254 25.3054 67.0018 33.0028 67.0018C36.6133 67.0018 40.3433 66.398 44.1843 65.187C45.8273 64.6685 47.4088 63.9265 48.9373 63.2068C49.284 63.043 49.6375 62.8776 49.9945 62.7138C49.9945 63.159 49.9945 63.6195 49.9962 64.08C50.0047 65.7618 51.0927 66.9523 52.6417 66.9745C53.3573 66.9915 54.0302 66.7255 54.5221 66.2445C55.0652 65.7106 55.3658 64.938 55.3675 64.0698C55.3709 62.1885 55.3709 60.1418 55.3658 57.8102C55.364 57.5697 55.3538 57.2576 55.2821 56.9437Z" fill="#171717"/>
</g>
<defs>
<clipPath id="clip0_53_902">
<rect width="67" height="67" fill="white"/>
</clipPath>
</defs>
</svg>
