<svg width="69" height="69" viewBox="0 0 69 69" fill="none" xmlns="http://www.w3.org/2000/svg">
<g clip-path="url(#clip0_53_893)">
<path d="M12.1507 60.6734C18.7476 66.2127 26.0666 68.9995 33.9887 68.9995C36.4386 68.9995 38.948 68.7324 41.5081 68.1981C52.2934 65.951 60.3382 59.7114 65.4204 49.6544C68.8524 42.8644 69.8219 35.5491 68.3018 27.9107C67.6862 24.8189 66.6246 21.8191 65.1478 18.9962C65.137 18.9764 65.1297 18.9583 65.1225 18.9439C65.1333 18.933 65.146 18.9204 65.1604 18.9078C65.6641 18.4403 66.1498 17.9494 66.6192 17.4729C66.9153 17.1732 67.2113 16.8736 67.5128 16.5794C68.6557 15.4604 68.6051 14.3125 68.3596 13.5472C68.1249 12.8144 67.5165 11.883 65.953 11.6177C65.1911 11.4878 64.4274 11.3596 63.6656 11.2297C63.1041 11.134 62.5408 11.0402 61.9793 10.9445C63.9923 8.94104 66.0685 6.8708 68.0978 4.81862C69.2478 3.65445 69.293 1.99032 68.2025 0.860446C67.6807 0.318972 66.9983 0.0121371 66.2798 -0.000497247C65.5269 -0.0149365 64.7759 0.297313 64.1783 0.874885C63.3677 1.66002 62.5607 2.47223 61.7808 3.25737C61.4738 3.56601 61.1687 3.87465 60.8618 4.18148C60.0042 5.03882 59.1485 5.89796 58.2675 6.78236L58.0346 7.0152L58.0201 6.92676C57.8125 5.72107 57.5977 4.47388 57.4045 3.24834C57.3232 2.73394 57.0795 1.16909 55.4547 0.633027C54.6711 0.374924 53.4886 0.327997 52.3115 1.56617C51.9125 1.98671 51.4883 2.40545 51.0784 2.80975C50.8907 2.99566 50.7029 3.18156 50.5151 3.36747C50.34 3.54255 50.1468 3.73567 50.0367 3.82411C49.9121 3.77899 49.6919 3.67069 49.477 3.56601L49.4536 3.55518C42.557 0.205263 35.3517 -0.782024 28.0363 0.624002C20.1197 2.14554 13.4867 6.01888 8.31608 12.1357C1.12884 20.6369 -1.41675 30.5097 0.747908 41.4746C2.25902 49.1292 6.09546 55.5872 12.1507 60.6734ZM45.7309 16.056C47.9443 13.8179 50.1396 11.6231 52.4632 9.30202L52.7322 9.03309C52.8983 9.98789 53.0553 10.9048 53.2052 11.8199C50.9394 14.0995 48.6935 16.343 46.3176 18.7164L46.2039 18.8302C46.1985 18.8049 46.1949 18.7778 46.1894 18.7525C46.1425 18.489 46.0956 18.2273 46.0486 17.9638C45.9385 17.3591 45.8248 16.7346 45.7345 16.1228C45.7327 16.1029 45.7309 16.0777 45.7309 16.056ZM50.3129 28.4738C52.3151 34.0474 51.6688 39.3123 48.3884 44.1224C45.8464 47.8477 42.2718 50.1923 37.7619 51.0912C33.3495 51.9701 28.8487 51.0677 25.0881 48.5498C21.3149 46.0248 18.7548 42.1947 17.881 37.7637C17.009 33.3398 17.9153 28.8294 20.4356 25.0643C22.9559 21.2993 26.7797 18.7453 31.1993 17.8754C32.3223 17.6533 33.4362 17.5432 34.5393 17.5432C36.5631 17.5432 38.5454 17.9151 40.4628 18.6587C40.4808 18.6767 40.5043 18.7056 40.5169 18.7273C40.6686 19.5232 40.8058 20.3391 40.9376 21.1296C41.0748 21.9436 41.2156 22.7847 41.3745 23.6132C41.3781 23.6348 41.3799 23.6493 41.3817 23.6601C41.3709 23.6745 41.351 23.6944 41.3185 23.7269L41.221 23.8189C40.7444 24.2738 40.2497 24.7448 39.793 25.2556C35.6514 23.0338 31.6687 23.3099 27.9551 26.0751C24.5465 28.611 23.0823 33.0312 24.2233 37.3359C25.2921 41.3735 28.8036 44.4653 32.9578 45.0303C36.3952 45.4977 39.728 44.3859 42.1021 41.98C44.4653 39.583 45.5269 36.2494 45.0141 32.8345C44.8841 31.9699 44.5628 31.1703 44.2505 30.396C44.1295 30.0964 44.0176 29.8148 43.9147 29.5297C43.8659 29.3925 43.8045 29.268 43.7395 29.1506C43.772 29.12 43.8045 29.0875 43.8352 29.0568C44.3425 28.5568 44.8246 28.0857 45.3211 27.6237C47.186 27.9179 48.8199 28.1976 50.3111 28.4738C50.3093 28.472 50.3111 28.4738 50.3129 28.4738ZM37.9569 38.2095C35.8933 40.0288 33.1094 40.027 31.0296 38.2095C29.2495 36.6537 28.8993 33.7171 30.2497 31.6613C31.1921 30.2246 32.8386 29.4142 34.5086 29.4142C34.8516 29.4142 35.1965 29.4485 35.5359 29.5188L35.3427 29.712C34.4508 30.6018 33.5752 31.4754 32.6942 32.3435C31.8782 33.1503 31.5676 34.0564 31.7716 35.0347C31.9829 36.0454 32.6816 36.8287 33.6438 37.1302C34.6278 37.4388 35.6803 37.1807 36.4602 36.4443C37.2654 35.6826 38.0544 34.8848 38.8162 34.1141C39.0401 33.8867 39.2658 33.6611 39.4897 33.4337C39.8273 34.9173 39.3597 36.9749 37.9569 38.2095ZM58.5329 17.666C56.7455 19.4528 54.895 21.2993 53.0878 23.1276C52.947 23.2702 52.9235 23.2775 52.7322 23.2377C51.936 23.0753 51.129 22.9417 50.3472 22.8136C50.2804 22.8028 50.2136 22.7919 50.1469 22.7811C50.6325 22.2956 51.1163 21.8119 51.602 21.3263C53.3803 19.5485 55.22 17.7111 57.0218 15.8936C57.1572 15.7582 57.159 15.7582 57.3124 15.7889C58.179 15.964 59.042 16.1083 59.9429 16.2582C59.4735 16.7274 59.0023 17.1967 58.5329 17.666ZM41.008 12.8866C40.9863 12.91 40.9683 12.9263 40.9556 12.9371C40.9448 12.9353 40.9304 12.9317 40.9141 12.9263C36.7292 11.6683 32.4559 11.6556 28.2132 12.8902C23.7467 14.1879 19.9716 16.7022 16.991 20.3643C14.7469 23.1204 13.2358 26.2772 12.501 29.7463C11.4809 34.5509 11.9648 39.2148 13.9362 43.6062C16.2778 48.8224 20.1089 52.6614 25.321 55.0168C29.5745 56.9391 33.9507 57.4823 38.327 56.6304C47.1391 54.9158 53.0752 49.7122 55.9692 41.1696C57.372 37.0291 57.4207 32.6847 56.1118 28.2572C56.0414 28.0208 56.0414 28.0208 56.1913 27.8764C57.5616 26.5425 58.9319 25.1636 60.257 23.8298C60.4773 23.6078 60.6993 23.3857 60.9196 23.1637C65.1297 31.6739 64.5863 44.8335 55.3445 54.4916C44.7867 65.5268 27.482 66.4744 15.9474 56.6503C4.15828 46.6096 2.15791 29.2481 11.3925 17.1263C17.5416 9.05475 26.2779 5.67054 34.4183 5.67054C38.5075 5.67054 42.4451 6.52426 45.832 8.06746C43.958 9.91208 42.4216 11.4481 41.008 12.8866Z" fill="#171717"/>
</g>
<defs>
<clipPath id="clip0_53_893">
<rect width="69" height="69" fill="white"/>
</clipPath>
</defs>
</svg>
