<svg width="67" height="67" viewBox="0 0 67 67" fill="none" xmlns="http://www.w3.org/2000/svg">
<g clip-path="url(#clip0_53_895)">
<path d="M48.0461 31.69C46.6601 30.3042 45.3099 30.3055 43.9198 31.6968C42.359 33.2576 40.7982 34.8197 39.2387 36.3818L38.6166 37.0044C36.932 38.6905 35.2487 40.3752 33.564 42.06C33.0355 42.5875 32.5111 43.1193 31.9853 43.6496L31.9523 43.6841C30.6723 44.9789 29.3496 46.3165 28.0104 47.5824C25.7545 49.7121 22.1718 49.7424 19.854 47.6513C18.563 46.4873 17.8267 44.9321 17.7812 43.2722C17.7344 41.5792 18.4102 39.9413 19.682 38.6616C23.2261 35.0938 26.8267 31.4957 30.3075 28.0147C31.9509 26.3727 33.5943 24.7293 35.2349 23.0859C36.6925 21.6258 36.6883 20.3199 35.2225 18.8514L34.4545 18.0828C31.8986 15.5233 29.3427 12.9639 26.784 10.4072C25.4214 9.04622 24.1056 9.03933 22.7595 10.3852C17.495 15.6514 12.3322 20.8158 7.04698 26.1124C3.97907 29.187 1.88975 32.7961 0.835453 36.8405C0.583578 37.8089 0.412909 38.7925 0.247745 39.7457C0.174798 40.1645 0.100475 40.5956 0.0192691 41.0213L0 41.1191V44.8935L0.0192691 44.9927C0.0344091 45.0671 0.0495491 45.1415 0.0660654 45.2159L0.0701945 45.2351C0.0990982 45.3646 0.126625 45.4859 0.13626 45.585C0.422544 48.3869 1.20294 51.0993 2.45543 53.6477C3.6804 56.141 5.45453 55.5363 5.96929 55.2924C6.57626 55.0045 7.00294 54.55 7.20251 53.9783C7.45301 53.2606 7.33877 52.4327 6.85567 51.4464C3.30052 44.2075 4.59155 35.7977 10.1452 30.0218C12.2083 27.8756 14.3582 25.7404 16.4379 23.6755C17.1867 22.9317 17.9368 22.1878 18.6828 21.4412L24.3713 26.9885C23.5854 27.775 22.794 28.5575 22.0039 29.3399L21.9599 29.3826C19.9683 31.3552 17.9079 33.394 15.9383 35.4644C12.9612 38.5955 12.0969 42.4305 13.4388 46.5562C14.6087 50.1515 17.5005 52.8584 21.1712 53.7937C24.8351 54.729 28.6573 53.7414 31.3976 51.153C33.4401 49.2231 35.4414 47.1954 37.3779 45.2338C38.1638 44.4376 38.9731 43.6179 39.7865 42.8038L45.4227 48.4241C44.7704 49.0771 44.1152 49.7341 43.4545 50.3967C41.4354 52.4217 39.3489 54.5169 37.2637 56.5625C33.7705 59.9912 29.5491 61.8453 24.7167 62.0712C21.452 62.2255 18.2657 61.523 15.2377 59.9857C14.5 59.611 13.7554 59.5325 13.0851 59.7598C12.4767 59.9664 11.9991 60.3989 11.7032 61.0133C11.4059 61.6318 11.3646 62.3054 11.5904 62.9088C11.8326 63.559 12.3419 64.0686 13.0658 64.3827L13.3094 64.4888C14.6335 65.0646 16.0044 65.6611 17.4358 66.0743C18.5011 66.3829 19.5912 66.5661 20.6441 66.7438L20.6661 66.7479C21.1038 66.8223 21.5552 66.8981 21.9915 66.9821L22.0879 67H25.7421L25.8646 66.9697C25.9279 66.9546 25.9899 66.9353 26.0546 66.9174C26.1027 66.9036 26.1757 66.8829 26.1977 66.8788C31.8793 66.3195 36.8466 63.9502 40.962 59.8383C45.4159 55.3889 49.9372 50.8596 54.3168 46.4722L56.5217 44.2626C57.8954 42.8878 57.8981 41.553 56.5314 40.1838C53.7071 37.3516 50.8773 34.5208 48.0461 31.69ZM51.3934 42.1426L48.971 44.5836L43.5729 39.1699L46.0049 36.7482L51.3934 42.1426ZM27.7902 23.3959L22.4058 17.9877L24.7594 15.6308L30.1658 21.0403L27.7902 23.3959Z" fill="#171717"/>
<path d="M35.9259 1.51528C35.63 1.11442 35.2419 0.838912 34.9308 0.617131C34.8207 0.538612 34.7161 0.464225 34.6294 0.393972L34.1394 0L33.5641 0.256219C33.443 0.309943 33.3287 0.352646 33.2062 0.396727C32.9076 0.505551 32.5704 0.629528 32.2799 0.909166C31.0192 2.12139 29.9718 3.15177 28.9602 4.23451C28.1041 5.15194 28.1742 6.6438 29.1171 7.55985C29.5781 8.00755 30.2071 8.26514 30.843 8.26514C31.4211 8.26514 31.962 8.05714 32.3653 7.67832C33.4595 6.65482 34.5647 5.55004 35.7442 4.30338C36.4847 3.51957 36.5604 2.37347 35.9259 1.51528Z" fill="#171717"/>
<path d="M66.2969 31.9821C66.0381 31.6391 65.745 31.2492 65.2977 30.9654C64.4017 30.3965 63.284 30.5563 62.4513 31.3732C61.5058 32.3003 60.435 33.3513 59.4013 34.4327C58.4516 35.4245 58.4489 36.9026 59.3972 37.8682C59.8693 38.349 60.4873 38.6135 61.1397 38.6135C61.7645 38.6135 62.3688 38.3669 62.8395 37.9192C63.8428 36.9659 64.8614 35.9438 65.9528 34.7963C66.2336 34.5015 66.374 34.1696 66.5116 33.8472C66.5694 33.7108 66.6245 33.5814 66.6947 33.4409L67.0002 32.8251L66.5515 32.3044C66.4703 32.2121 66.3864 32.1005 66.2969 31.9821Z" fill="#171717"/>
<path d="M36.9042 14.3539C37.4795 14.3539 38.0287 14.1363 38.4498 13.7395C39.5592 12.6967 40.7346 11.5617 41.8151 10.315C42.3725 9.6717 42.3904 8.50907 42.0876 7.79965C41.8453 7.23211 41.3457 6.90839 40.9796 6.67283C40.8709 6.60258 40.769 6.53646 40.7002 6.48136L40.224 6.10254L39.6638 6.33672C39.5399 6.38769 39.4243 6.42626 39.3018 6.46758C38.9963 6.5709 38.6494 6.68661 38.3494 6.97313C37.3488 7.93327 36.172 9.07799 35.0406 10.2833C34.1749 11.2049 34.2203 12.6568 35.1424 13.5908C35.6283 14.0839 36.2545 14.3539 36.9042 14.3539Z" fill="#171717"/>
<path d="M60.3841 27.8893L60.3951 27.8645C60.4089 27.8355 60.4199 27.808 60.4309 27.7873L60.5685 27.5421L60.563 27.2611C60.5396 26.0613 60.0551 25.2389 59.1233 24.8146C58.1558 24.3752 57.1648 24.5501 56.4009 25.2968C55.2874 26.3864 54.3088 27.363 53.4101 28.2846C52.3585 29.3646 52.3379 30.822 53.3619 31.8303C53.8271 32.2891 54.4258 32.5412 55.0479 32.5412C55.7127 32.5412 56.3706 32.256 56.9005 31.7394C57.7786 30.884 58.8082 29.8701 59.7923 28.8301C60.1019 28.505 60.2795 28.1193 60.3841 27.8893Z" fill="#171717"/>
<path d="M8.69731 60.7006H8.74686C9.38136 60.7006 10.009 60.4416 10.4673 59.9898C10.9394 59.5255 11.2092 58.8836 11.205 58.2307C11.1995 56.9082 10.1191 55.8104 8.79778 55.7842C8.78126 55.7842 8.76475 55.7842 8.74961 55.7842C7.45032 55.7842 6.35474 56.827 6.29555 58.1315C6.26527 58.7941 6.50201 59.4291 6.95896 59.9181C7.41729 60.4099 8.03528 60.6868 8.69731 60.7006Z" fill="#171717"/>
</g>
<defs>
<clipPath id="clip0_53_895">
<rect width="67" height="67" fill="white"/>
</clipPath>
</defs>
</svg>
