<svg width="363" height="577" viewBox="0 0 363 577" fill="none" xmlns="http://www.w3.org/2000/svg">
<g clip-path="url(#clip0_53_502)" filter="url(#filter0_d_53_502)">
<path d="M199.359 432.812C138.678 512.143 25.1008 527.245 -54.2664 466.536C-133.634 405.826 -148.788 292.256 -88.1066 212.926C-27.4254 133.595 86.1517 118.493 165.519 179.202C244.886 239.911 260.04 353.481 199.359 432.812Z" fill="url(#paint0_radial_53_502)"/>
<path d="M203.309 323.361C175.998 359.065 112.046 355.979 60.4742 316.531C8.8459 277.04 -10.8153 216.169 16.4956 180.465C43.8065 144.76 107.802 147.789 159.373 187.237C210.902 226.742 230.62 287.656 203.309 323.361Z" fill="url(#paint1_linear_53_502)"/>
<path d="M201.832 199.339C177.032 231.762 130.582 237.938 98.1443 213.126C65.7067 188.314 59.5091 141.867 84.3097 109.445C109.153 76.9655 155.56 70.8459 187.997 95.6578C220.478 120.413 226.676 166.86 201.832 199.339Z" fill="url(#paint2_radial_53_502)"/>
<path d="M203.43 154.55C192.263 169.149 166.121 167.897 145.005 151.746C123.89 135.594 115.839 110.691 127.006 96.0925C138.173 81.4938 164.315 82.7449 185.431 98.8964C206.546 115.048 214.596 139.951 203.43 154.55Z" fill="url(#paint3_linear_53_502)"/>
<path d="M259.592 317.303C244.01 337.674 214.842 341.552 194.462 325.963C174.083 310.375 170.191 281.208 185.772 260.838C201.41 240.511 230.579 236.632 250.959 252.221C271.338 267.81 275.173 296.933 259.592 317.303Z" fill="url(#paint4_radial_53_502)"/>
<path d="M260.622 289.21C253.61 298.377 237.184 297.562 223.937 287.43C210.691 277.297 205.605 261.657 212.616 252.49C219.628 243.324 236.054 244.139 249.301 254.271C262.604 264.447 267.633 280.044 260.622 289.21Z" fill="url(#paint5_linear_53_502)"/>
</g>
<defs>
<filter id="filter0_d_53_502" x="-202" y="0" width="568.229" height="584.479" filterUnits="userSpaceOnUse" color-interpolation-filters="sRGB">
<feFlood flood-opacity="0" result="BackgroundImageFix"/>
<feColorMatrix in="SourceAlpha" type="matrix" values="0 0 0 0 0 0 0 0 0 0 0 0 0 0 0 0 0 0 127 0" result="hardAlpha"/>
<feOffset dy="4"/>
<feGaussianBlur stdDeviation="2"/>
<feComposite in2="hardAlpha" operator="out"/>
<feColorMatrix type="matrix" values="0 0 0 0 0 0 0 0 0 0 0 0 0 0 0 0 0 0 0.25 0"/>
<feBlend mode="normal" in2="BackgroundImageFix" result="effect1_dropShadow_53_502"/>
<feBlend mode="normal" in="SourceGraphic" in2="effect1_dropShadow_53_502" result="shape"/>
</filter>
<radialGradient id="paint0_radial_53_502" cx="0" cy="0" r="1" gradientUnits="userSpaceOnUse" gradientTransform="translate(36.1837 346.405) rotate(37.4129) scale(217.144 217.044)">
<stop offset="0.2796"/>
<stop offset="0.6828" stop-color="#323232"/>
<stop offset="1" stop-color="#9E9E9E"/>
</radialGradient>
<linearGradient id="paint1_linear_53_502" x1="-127.144" y1="331.618" x2="310.843" y2="184.132" gradientUnits="userSpaceOnUse">
<stop offset="0.0753"/>
<stop offset="0.2128" stop-color="#040404"/>
<stop offset="0.361" stop-color="#111111"/>
<stop offset="0.5142" stop-color="#272727"/>
<stop offset="0.671" stop-color="#454545"/>
<stop offset="0.8303" stop-color="#6C6C6C"/>
<stop offset="0.9899" stop-color="#9B9B9B"/>
<stop offset="1" stop-color="#9E9E9E"/>
</linearGradient>
<radialGradient id="paint2_radial_53_502" cx="0" cy="0" r="1" gradientUnits="userSpaceOnUse" gradientTransform="translate(135.084 163.983) rotate(37.4129) scale(88.8124 88.7716)">
<stop offset="0.2796"/>
<stop offset="0.6828" stop-color="#323232"/>
<stop offset="1" stop-color="#9E9E9E"/>
</radialGradient>
<linearGradient id="paint3_linear_53_502" x1="68.2836" y1="157.935" x2="247.416" y2="97.6146" gradientUnits="userSpaceOnUse">
<stop offset="0.0753"/>
<stop offset="0.2128" stop-color="#040404"/>
<stop offset="0.361" stop-color="#111111"/>
<stop offset="0.5142" stop-color="#272727"/>
<stop offset="0.671" stop-color="#454545"/>
<stop offset="0.8303" stop-color="#6C6C6C"/>
<stop offset="0.9899" stop-color="#9B9B9B"/>
<stop offset="1" stop-color="#9E9E9E"/>
</linearGradient>
<radialGradient id="paint4_radial_53_502" cx="0" cy="0" r="1" gradientUnits="userSpaceOnUse" gradientTransform="translate(217.747 295.123) rotate(37.4129) scale(55.7292 55.7036)">
<stop offset="0.2796"/>
<stop offset="0.6828" stop-color="#323232"/>
<stop offset="1" stop-color="#9E9E9E"/>
</radialGradient>
<linearGradient id="paint5_linear_53_502" x1="175.83" y1="291.329" x2="288.235" y2="253.478" gradientUnits="userSpaceOnUse">
<stop offset="0.0753"/>
<stop offset="0.2128" stop-color="#040404"/>
<stop offset="0.361" stop-color="#111111"/>
<stop offset="0.5142" stop-color="#272727"/>
<stop offset="0.671" stop-color="#454545"/>
<stop offset="0.8303" stop-color="#6C6C6C"/>
<stop offset="0.9899" stop-color="#9B9B9B"/>
<stop offset="1" stop-color="#9E9E9E"/>
</linearGradient>
<clipPath id="clip0_53_502">
<rect width="361.921" height="448.952" fill="white" transform="translate(74.7627) rotate(37.4129)"/>
</clipPath>
</defs>
</svg>
