<svg width="67" height="67" viewBox="0 0 67 67" fill="none" xmlns="http://www.w3.org/2000/svg">
<g clip-path="url(#clip0_53_914)">
<path d="M0.23407 20.9913C0.858665 18.1148 2.55309 15.6659 5.00343 14.0963C7.42014 12.5475 10.2981 12.0349 13.1056 12.6532C15.8922 13.2666 18.2721 14.8731 19.8064 17.1778C21.2814 19.3913 21.8547 22.0709 21.4367 24.7568C23.4851 25.6697 25.5943 26.6275 27.8637 27.6766C28.3297 27.2522 28.8518 26.7973 29.4524 26.4449C31.7586 25.09 34.2121 24.9266 36.7538 25.9516C37.7403 24.9186 38.7252 23.8839 39.7118 22.8509C43.2496 19.1414 46.9075 15.3055 50.5269 11.5512C50.788 11.2806 50.8312 11.1909 50.836 11.1765C50.836 11.1749 50.8424 11.0852 50.7319 10.8273C49.2056 7.25403 50.5397 3.11218 53.8341 1.19661C57.4311 -0.898336 61.5999 -0.193613 64.2072 2.94881C66.4653 5.6668 66.6207 9.62607 64.5771 12.3633C62.2693 15.4545 58.5057 16.558 55.1713 15.1389C50.4404 20.0864 45.6342 25.0932 40.8809 30.0214C41.986 32.3166 42.0196 34.5909 40.9802 36.798C42.4504 38.2603 43.9158 39.7258 45.3828 41.1913C46.0298 41.8383 46.6768 42.4854 47.3239 43.1309C49.9648 41.5196 52.8876 40.9254 56.0282 41.3627C61.949 42.1875 66.6575 47.3288 66.981 53.3221C67.2116 57.6017 65.4339 61.5674 62.106 64.2021C59.7805 66.0424 56.9971 66.9986 54.1255 66.9986C52.8796 66.9986 51.616 66.8176 50.3684 66.4524C47.8828 65.7237 45.6006 64.146 43.943 62.0111C42.2886 59.8809 41.3245 57.2846 41.2268 54.6996C41.1275 52.0921 41.7794 49.6191 43.1615 47.3448C40.977 45.1874 38.8213 43.0236 36.797 40.9847C35.0721 41.8031 33.2288 41.9473 31.3118 41.4107C30.1186 42.6296 28.8934 43.8484 27.7067 45.0288L27.0933 45.6406C26.7522 45.9802 26.4047 46.3181 26.0667 46.6465C26.0892 46.6897 26.1116 46.7314 26.1324 46.7746C26.906 48.2962 27.2791 49.9106 27.2407 51.5731C27.1782 54.4097 26.0075 57.0027 23.9463 58.8766C21.8723 60.7618 19.1609 61.6843 16.307 61.4745C11.6322 61.1318 7.76606 57.4816 7.11745 52.7936C6.47043 48.1312 9.17541 43.5761 13.5476 41.9649C16.3375 40.9366 19.1337 41.1032 21.8643 42.4598C23.2929 41.0599 24.7295 39.6201 26.1228 38.225L26.4735 37.8743C25.6135 36.4873 25.2211 34.892 25.3044 33.1142C23.7798 32.4303 22.2391 31.7288 20.7481 31.0513C20.1283 30.7694 19.5085 30.4875 18.8887 30.2056C16.1533 33.2455 12.6011 34.4452 8.59886 33.6748C5.80099 33.1366 3.38108 31.5061 1.78275 29.0845C0.200439 26.6868 -0.363304 23.7382 0.23407 20.9913ZM5.87946 23.2913L5.88267 23.3442C5.93712 24.6543 6.51527 25.8587 7.51302 26.7364C8.51238 27.6157 9.82883 28.0546 11.1245 27.9409C13.8967 27.699 15.8362 25.3975 15.6344 22.5882C15.5447 21.3261 14.9553 20.1713 13.9768 19.3384C13.0896 18.5825 11.9941 18.1773 10.8538 18.1773C10.7129 18.1773 10.5703 18.1837 10.4294 18.1965C9.10654 18.3134 7.9006 18.9172 7.03417 19.899C6.18215 20.8648 5.77216 22.0692 5.87946 23.2913ZM47.034 54.1438C47.0436 56.0081 47.7947 57.7747 49.1512 59.1153C50.4917 60.4414 52.2389 61.1702 54.0759 61.1702C54.0903 61.1702 54.1031 61.1702 54.1175 61.1702C58.0109 61.1462 61.1723 57.9781 61.1659 54.1053C61.1579 50.2181 57.9964 47.0469 54.1159 47.0373C54.1111 47.0373 54.1063 47.0373 54.0999 47.0373C52.287 47.0373 50.4789 47.8077 49.1384 49.1515C47.7931 50.5016 47.026 52.3211 47.034 54.1438ZM31.2125 33.5242C31.2221 34.8039 32.2599 35.8001 33.5779 35.8001C33.5827 35.8001 33.5875 35.8001 33.5923 35.8001C34.8127 35.7937 35.8008 34.7607 35.796 33.5002C35.7928 32.8932 35.5494 32.3198 35.109 31.8841C34.6734 31.4533 34.1048 31.2162 33.5059 31.2162C33.501 31.2162 33.4962 31.2162 33.4914 31.2162C32.8861 31.2194 32.3127 31.4645 31.8771 31.9065C31.4447 32.347 31.2077 32.9204 31.2125 33.5242ZM60.1793 7.87868C60.1857 7.34373 59.9727 6.83601 59.5836 6.44681C59.1912 6.056 58.6803 5.8526 58.1374 5.85099C57.0051 5.86701 56.1227 6.75592 56.1307 7.87707C56.1387 8.98381 57.0772 9.88233 58.2239 9.88233C58.2255 9.88233 58.2287 9.88233 58.2303 9.88233C59.3289 9.87913 60.1665 9.01745 60.1793 7.87868ZM17.2103 55.5773C17.2215 55.5773 17.2327 55.5773 17.2439 55.5773C18.3506 55.5773 19.406 55.1352 20.218 54.3328C21.0411 53.5191 21.496 52.4508 21.4992 51.3249C21.5024 50.2085 21.0492 49.1386 20.2244 48.3138C19.4044 47.4938 18.3426 47.0421 17.2327 47.0421C17.2295 47.0421 17.2263 47.0421 17.2215 47.0421C14.9041 47.0485 12.9951 48.9544 12.9678 51.2912C12.955 52.4124 13.3858 53.4759 14.1802 54.2879C14.9874 55.1096 16.0636 55.5676 17.2103 55.5773Z" fill="black"/>
</g>
<defs>
<clipPath id="clip0_53_914">
<rect width="67" height="67" fill="white" transform="matrix(-1 0 0 1 67 0)"/>
</clipPath>
</defs>
</svg>
