<svg width="58" height="58" viewBox="0 0 58 58" fill="none" xmlns="http://www.w3.org/2000/svg">
<g clip-path="url(#clip0_53_906)">
<path d="M9.05287 53.0868C8.74798 53.3917 8.529 53.6814 8.38076 53.9711C7.94111 54.8351 7.96975 55.8272 8.45825 56.6255C8.98212 57.4811 9.94227 57.9932 11.0254 57.9948C15.368 57.9999 19.7106 57.9982 24.0532 57.9982H28.987H32.7552C37.465 57.9982 42.1765 57.9982 46.8863 57.9982C48.6803 57.9982 49.4298 57.0146 49.7415 56.1893C49.8695 55.8507 49.9335 55.5173 49.9335 55.1888C49.9335 54.4393 49.5966 53.7252 48.9245 53.0548C45.3332 49.4707 41.7453 45.8832 38.1573 42.2956C35.8176 39.9562 33.4795 37.6184 31.1381 35.2789C29.7972 33.9382 28.202 33.9315 26.873 35.2587C20.5595 41.5731 14.7296 47.4041 9.05287 53.0868ZM29.0898 41.2329L40.2646 52.4081H17.9166L29.0898 41.2329Z" fill="#171717"/>
<path d="M29.0003 0.00162729H24.5246C20.0489 0.00162729 15.575 0.00162729 11.0993 0.00331157C9.71298 0.00331157 8.70903 0.628181 8.27612 1.76339C7.9746 2.54995 7.86342 3.73568 9.04256 4.913C12.457 8.32199 15.8698 11.7343 19.2808 15.145C21.8261 17.69 24.3713 20.2332 26.9166 22.7765C28.2018 24.0599 29.8004 24.0583 31.089 22.7715C37.9331 15.9333 43.6114 10.2539 48.958 4.89784C49.31 4.54583 49.5543 4.2056 49.7042 3.85864C49.8609 3.49652 49.9384 3.12261 49.9384 2.75375C49.9384 2.24678 49.7918 1.7516 49.5038 1.312C48.9681 0.495122 48.018 0.00668014 46.9619 0.00499585C42.5957 -0.00174128 38.2278 -5.6998e-05 33.86 -5.6998e-05L29.0003 0.00162729ZM17.7227 5.57661H40.1768L28.9481 16.799L17.7227 5.57661Z" fill="#171717"/>
<path d="M9.58132 28.9999C9.58132 28.9881 9.58132 28.978 9.58132 28.9662C9.56448 27.4689 8.34997 26.2663 6.81709 26.2276C6.34543 26.2158 5.8721 26.2192 5.41392 26.2209C5.20336 26.2225 4.9928 26.2242 4.78224 26.2225C4.58347 26.2225 4.3847 26.2209 4.18425 26.2209C3.73618 26.2192 3.27294 26.2158 2.81477 26.2242C1.21451 26.2579 0.00505344 27.4453 0 28.9915C0 28.9949 0 28.9982 0 29.0016C0 30.5377 1.22967 31.752 2.80466 31.7723C4.17751 31.7891 5.52004 31.7891 6.79351 31.7723C8.36344 31.7504 9.58132 30.536 9.58132 28.9999Z" fill="#171717"/>
<path d="M12.1045 28.9865C12.1045 28.9915 12.1045 28.9966 12.1045 29.0017C12.1045 30.5495 13.3038 31.7403 14.899 31.7723C15.3572 31.7807 15.8171 31.779 16.2635 31.7774C16.4656 31.7757 16.6661 31.7757 16.8682 31.7757C17.0754 31.7757 17.2826 31.7774 17.4881 31.7774C17.9496 31.779 18.4263 31.7824 18.8997 31.7723C20.4679 31.7403 21.6858 30.5242 21.6858 29.0017C21.6858 28.9932 21.6858 28.9831 21.6858 28.973C21.6707 27.4588 20.4545 26.2546 18.9182 26.2327C17.5369 26.2125 16.1725 26.2125 14.862 26.2327C13.3224 26.2563 12.1112 27.4656 12.1045 28.9865Z" fill="#171717"/>
<path d="M28.3932 26.2243C27.9452 26.2226 27.4819 26.2192 27.0237 26.2276C25.4235 26.258 24.214 27.4454 24.209 28.9916C24.209 28.9949 24.209 28.9966 24.209 29C24.209 30.536 25.4387 31.7521 27.0136 31.7706C28.3899 31.7875 29.7307 31.7875 31.0025 31.7706C32.5724 31.7504 33.792 30.536 33.792 29.0017C33.792 28.9899 33.792 28.9781 33.792 28.968C33.7751 27.4706 32.5606 26.2681 31.0278 26.231C30.5561 26.2192 30.0828 26.2226 29.6246 26.2243C29.414 26.226 29.2035 26.2276 28.9929 26.226C28.7925 26.226 28.592 26.2243 28.3932 26.2243Z" fill="#171717"/>
<path d="M36.3136 29.0153C36.322 30.5362 37.5314 31.7455 39.0694 31.7691C40.3647 31.7893 41.7292 31.7893 43.1239 31.7691C44.6618 31.7472 45.8797 30.5429 45.8949 29.0287C45.8949 29.0186 45.8949 29.0102 45.8949 29.0001C45.8949 27.4792 44.677 26.2631 43.1104 26.2278C42.6304 26.2177 42.1469 26.2193 41.6786 26.2227C41.4782 26.2244 41.276 26.2244 41.0756 26.2244C40.8667 26.2244 40.6578 26.2227 40.449 26.221C39.9891 26.2177 39.5124 26.2143 39.0374 26.2278C37.5028 26.2783 36.3018 27.4994 36.3136 29.0153Z" fill="#171717"/>
<path d="M53.1978 26.2261C52.999 26.2261 52.7986 26.2244 52.5998 26.2244C52.1518 26.2227 51.6902 26.2193 51.2303 26.2278C49.6301 26.2581 48.4223 27.4489 48.4189 28.995C48.4189 28.9967 48.4189 28.9984 48.4189 29.0001C48.4189 30.5362 49.6503 31.7522 51.227 31.7707C52.6049 31.7876 53.9474 31.7859 55.2158 31.7707C56.7521 31.7505 57.9767 30.5547 58.0019 29.0489C58.0019 29.0321 58.0019 29.0169 58.0019 29.0001C58.0019 27.4809 56.7959 26.2682 55.2343 26.2295C54.761 26.2177 54.2843 26.221 53.8244 26.2227C53.6139 26.2244 53.4067 26.2261 53.1978 26.2261Z" fill="#171717"/>
</g>
<defs>
<clipPath id="clip0_53_906">
<rect width="58" height="58" fill="white"/>
</clipPath>
</defs>
</svg>
