<svg width="68" height="66" viewBox="0 0 68 66" fill="none" xmlns="http://www.w3.org/2000/svg">
<g clip-path="url(#clip0_53_1751)">
<path d="M40.0222 56.8127C40.0107 56.392 39.909 56.0028 39.835 55.7201C39.2169 53.3399 38.5222 50.662 37.8186 48.0112C40.2172 47.2129 42.4586 46.1903 44.4919 44.9671C46.761 46.2856 49.0707 47.6117 51.3056 48.8959L53.0849 49.9188C53.2559 50.0179 53.4503 50.1305 53.6753 50.2273C54.5682 50.6136 55.5881 50.5392 56.4053 50.0301C57.2237 49.5207 57.7309 48.6402 57.7633 47.6746C57.7892 46.8978 57.5375 45.8077 56.185 45.0329C54.0786 43.8275 51.9749 42.6175 49.8715 41.4087L49.5612 41.2296C52.0984 38.8235 53.6775 36.4534 54.4955 33.8141C55.4167 34.431 56.2957 35.0237 57.1681 35.6324C57.1882 35.6481 57.2194 35.691 57.2311 35.7154C57.4877 36.6564 57.7385 37.6159 57.9823 38.5485C58.2968 39.7516 58.6215 40.9938 58.9636 42.2158C59.1338 42.8212 59.53 43.4407 60.0241 43.8698C60.9356 44.6632 62.2864 44.7193 63.3865 44.0094C64.4422 43.3281 64.9183 42.0897 64.6008 40.8547C64.3141 39.7424 64.0233 38.6299 63.7328 37.5186C63.3799 36.1739 63.0162 34.7824 62.6679 33.4142C62.6656 33.4057 62.6637 33.3983 62.6615 33.3898C62.4349 32.5232 61.9574 31.857 61.2016 31.3538C59.6917 30.3481 58.161 29.3139 56.6813 28.3121L55.6028 27.582C55.8393 27.1122 56.0771 26.6421 56.3152 26.1733C57.0911 24.6407 57.8932 23.0555 58.6516 21.4766C58.9933 20.7675 59.1048 19.9617 58.9499 19.3236C58.409 17.0761 57.7842 14.6807 56.9272 11.5548C56.7811 11.0216 56.4129 10.4785 55.9195 10.0623C54.9863 9.27719 53.5852 9.22764 52.5113 9.94114C51.4841 10.6241 51.0184 11.8416 51.326 13.0438C51.4278 13.4435 51.5299 13.8443 51.6305 14.2443C52.0253 15.8055 52.4342 17.4207 52.8978 19.0006C53.0659 19.5724 53.0274 19.9395 52.7563 20.4144C52.3315 21.1569 51.9447 21.9275 51.5727 22.6837C49.1545 20.4079 46.2562 19.2945 43.6576 18.6349C44.9291 16.5086 46.1975 14.3805 47.4658 12.2524L47.4992 12.1967C47.6167 11.9999 47.7501 11.7767 47.8575 11.5107C48.2235 10.5991 48.1024 9.58607 47.5323 8.80022C46.9616 8.01192 46.0266 7.57121 45.0332 7.62035C43.981 7.67313 43.1437 8.21233 42.5429 9.2232C41.8914 10.3205 41.2381 11.4157 40.5851 12.5121C39.5414 14.2624 38.4625 16.0716 37.4081 17.8574C35.0388 17.7851 32.5836 17.9902 30.0984 18.4672C29.5438 16.3097 28.9715 14.1306 28.4177 12.0173L28.1007 10.8096C28.0304 10.5404 27.9569 10.2745 27.845 9.99913C27.5593 9.29322 27.0073 8.74454 26.2897 8.45356C25.5722 8.16258 24.7832 8.16876 24.0689 8.47054C22.6231 9.0799 21.9873 10.466 22.4087 12.0883C23.0592 14.5974 23.7564 17.2746 24.4641 19.9413C22.088 20.7337 19.8487 21.7545 17.7986 22.9794C15.4484 21.6155 13.0572 20.2427 10.7431 18.9151L9.19434 18.0255C9.00457 17.9156 8.78819 17.7904 8.53264 17.6886C7.64121 17.3332 6.62735 17.4361 5.82123 17.9672C5.02162 18.4926 4.5372 19.3684 4.52523 20.3103C4.51558 21.083 4.78374 22.1648 6.11956 22.927C8.07915 24.0439 10.0673 25.1887 11.9897 26.2957L12.7259 26.7191C10.7138 28.614 9.3323 30.4723 8.40753 32.5249C7.21981 35.1601 6.93635 37.6754 7.55444 40.0399C7.89068 41.3262 8.49369 42.5689 9.36311 43.7616C10.9657 45.9617 13.2837 47.5589 16.4495 48.6469C17.1777 48.8971 17.9203 49.1057 18.6457 49.3044L17.1532 51.8075C16.3805 53.1026 15.609 54.3973 14.8362 55.6924L14.7936 55.7637C14.6914 55.9329 14.5757 56.1266 14.477 56.3499C14.0733 57.2647 14.1696 58.2947 14.7333 59.1071C15.2982 59.9191 16.2377 60.377 17.247 60.3328C18.3046 60.2852 19.1465 59.7487 19.7474 58.7378C20.356 57.7158 20.9645 56.6937 21.5747 55.6726C22.6628 53.8479 23.788 51.9612 24.8875 50.0983C27.2549 50.1685 29.7072 49.9628 32.1865 49.4887C32.8311 51.9953 33.4823 54.4715 34.1995 57.1946C34.2753 57.4846 34.3891 57.8641 34.5831 58.2344C35.1842 59.3783 36.606 59.9703 37.8912 59.6121C39.161 59.2514 40.0581 58.0755 40.0222 56.8127ZM36.8705 29.4766L13.3926 35.6137C13.4664 35.3918 13.5563 35.1656 13.6596 34.9346C14.4079 33.2707 15.6399 31.7366 17.4228 30.2429C20.0478 28.0452 23.166 26.375 26.9556 25.1399C29.6413 24.2639 32.39 23.7612 35.3352 23.6084L36.8693 29.4769L36.8705 29.4766ZM24.6907 44.3457C21.0798 44.2278 18.3091 43.506 15.9716 42.0734C15.5468 41.8131 15.1633 41.5119 14.8432 41.2138L38.3173 35.0777L39.8584 40.9731C39.823 40.9902 39.7859 41.0064 39.7505 41.0235C39.0603 41.3465 38.3453 41.6811 37.6396 41.9702C33.4429 43.6896 29.0854 44.4887 24.6907 44.3457ZM45.049 37.557L41.518 24.049C43.5944 24.4776 45.2356 25.1352 46.6085 26.0799C49.3402 27.9612 49.9606 30.7266 48.3097 33.6672C47.5307 35.0555 46.4772 36.3154 45.049 37.557Z" fill="#9FF772"/>
</g>
<defs>
<clipPath id="clip0_53_1751">
<rect width="53" height="55" fill="white" transform="translate(54.0879 0.590332) rotate(75.3506)"/>
</clipPath>
</defs>
</svg>
