<svg width="303" height="256" viewBox="0 0 303 256" fill="none" xmlns="http://www.w3.org/2000/svg">
<g clip-path="url(#clip0_53_875)">
<path d="M50.5089 207.339C41.8685 207.152 34.0193 205.364 26.8723 201.316C9.49376 191.477 0.266685 176.443 0.177792 156.489C-0.0444397 105.559 -0.0711076 54.6199 0.177792 3.68991C0.311132 -25.1778 22.4543 -46.9109 51.2645 -46.9465C118.13 -47.0177 184.986 -47.0088 251.851 -46.9465C281.177 -46.9198 302.929 -24.7864 302.965 5.03322C303.036 54.6377 302.991 104.233 302.973 153.838C302.973 156.275 302.858 158.722 302.68 161.15C300.831 186.21 279.363 206.876 254.18 207.072C215.93 207.374 177.67 207.223 139.419 207.125C136.29 207.116 134.015 208.05 131.721 210.034C116.201 223.449 100.556 236.722 85.026 250.129C78.1457 256.062 70.5187 257.797 62.2339 253.99C54.038 250.227 50.4911 243.279 50.5089 234.374C50.5267 225.504 50.5089 216.635 50.5089 207.339ZM70.8743 235.762C72.021 234.863 72.4565 234.534 72.8743 234.187C89.3462 220.185 105.88 206.236 122.245 192.109C125.908 188.95 129.686 187.491 134.566 187.509C173.261 187.643 211.956 187.625 250.651 187.572C270.021 187.545 282.724 174.77 282.732 155.43C282.759 105.39 282.759 55.3405 282.732 5.3001C282.724 -13.9688 270.101 -26.7079 250.962 -26.7168C184.657 -26.7435 118.352 -26.7435 52.0467 -26.7168C33.0681 -26.7168 20.392 -13.9866 20.3476 5.01543C20.312 23.4392 20.3387 41.854 20.3387 60.2778C20.3387 92.2324 20.2853 124.196 20.3654 156.151C20.4098 172.297 30.748 184.44 46.5621 186.789C50.8023 187.42 55.1847 187.073 59.5049 187.136C66.7496 187.242 70.8209 191.255 70.8565 198.532C70.9098 209.518 70.8743 220.505 70.8743 231.491C70.8743 232.666 70.8743 233.849 70.8743 235.762Z" fill="#92E767"/>
<path d="M84.9547 112.124C84.9547 105.354 85.0169 98.584 84.928 91.8141C84.8836 88.3802 85.9948 85.5691 88.4126 83.1582C109.516 62.0657 130.512 40.8485 151.731 19.8716C164.549 7.20363 183.741 7.69292 196.346 20.6456C200.293 24.7022 204.178 28.8122 208.089 32.9044C221.058 46.4709 220.925 64.3164 207.627 77.6872C189.315 96.0931 170.976 114.463 152.575 132.772C139.464 145.813 144.086 143.696 125.783 143.838C115.916 143.918 106.049 143.865 96.173 143.847C89.0527 143.829 84.9903 139.826 84.9636 132.772C84.928 125.886 84.9547 119.009 84.9547 112.124ZM142.913 57.502C130.726 69.6896 118.476 81.8861 106.333 94.1894C105.551 94.9811 105.311 96.5824 105.293 97.8101C105.196 105.016 105.24 112.231 105.258 119.436C105.258 120.709 105.391 121.981 105.471 123.493C114.707 123.493 123.552 123.546 132.406 123.413C133.428 123.395 134.601 122.497 135.419 121.705C139.633 117.613 143.74 113.405 147.909 109.268C155.767 101.457 163.634 93.6556 171.394 85.9605C161.811 76.3883 152.487 67.0742 142.913 57.502ZM157.731 42.7078C167.154 52.1643 176.505 61.5408 186.257 71.3265C188.862 68.5598 191.519 65.4106 194.506 62.6439C198.951 58.5339 199.609 52.618 195.475 48.2679C190.666 43.206 185.706 38.2776 180.621 33.4915C176.772 29.8619 171.154 29.7018 167.278 33.1357C163.829 36.2137 160.718 39.6832 157.731 42.7078Z" fill="#92E767"/>
</g>
<defs>
<clipPath id="clip0_53_875">
<rect width="303" height="256" fill="white"/>
</clipPath>
</defs>
</svg>
