<svg width="23" height="24" viewBox="0 0 23 24" fill="none" xmlns="http://www.w3.org/2000/svg">
<g clip-path="url(#clip0_53_889)">
<path d="M22.4267 7.73991C23.1937 8.86408 23.1913 10.1557 22.4201 11.2829C22.4153 11.2901 22.4117 11.2955 22.4099 11.2991C22.4111 11.3057 22.4135 11.3183 22.4201 11.3387C22.7988 12.5421 22.5533 13.5768 21.6896 14.4147C21.2443 14.8462 20.6567 15.1379 19.8921 15.3065C18.4678 15.6205 17.0742 15.4806 15.7807 15.2831C15.4638 15.2345 15.1565 15.1739 14.8312 15.1097L14.8979 15.3924C15.0425 16.0082 15.1914 16.645 15.3672 17.2584C15.6793 18.3477 15.9308 19.3392 15.8504 20.4346C15.7147 22.2784 14.4441 23.5328 12.6141 23.63C11.8897 23.669 11.2865 23.2963 11.002 22.6337C10.7883 22.1361 10.7121 21.5816 10.7607 20.8871L10.7637 20.8439C10.7703 20.7539 10.7793 20.6303 10.7607 20.581C10.1737 19.044 9.34607 17.0429 8.14389 15.1931C7.93322 14.8684 7.67514 14.5731 7.40145 14.2604C7.29821 14.1422 7.19138 14.0197 7.08815 13.8967C7.01552 13.8097 6.9363 13.7256 6.85227 13.6362C6.72263 13.4982 6.58879 13.3559 6.46935 13.1927C6.3169 12.9844 6.18606 12.7641 6.06002 12.5511C6.05942 12.5499 6.05822 12.5481 6.05762 12.5469C5.71551 12.6645 5.374 12.6819 5.0721 12.6801C4.58654 12.6771 4.09138 12.6777 3.61303 12.6783C3.23431 12.6789 2.85619 12.6789 2.47746 12.6777C0.997988 12.6729 0.0028674 11.676 0.00166701 10.1971C-0.00133395 7.45482 -0.000133566 4.99523 0.00406779 2.67728C0.00466798 2.4024 0.0322769 2.16952 0.0880948 1.96425C0.390592 0.8587 1.27288 0.193686 2.44805 0.186483C3.33214 0.181082 4.23003 0.183481 5.09851 0.185883H5.20354C5.63268 0.187082 6.04201 0.286116 6.42073 0.480577C6.48315 0.512388 6.57078 0.530394 6.6302 0.522593C9.19483 0.197887 11.5308 0.0478382 13.7713 0.0628433C13.961 0.064045 14.1536 0.0460377 14.3577 0.0268326C14.4561 0.0178299 14.5545 0.00822639 14.6536 0.00102425L16.3569 -0.000175476L16.3779 0.00222397C16.4572 0.0118275 16.5358 0.0208302 16.615 0.0298347C16.7843 0.0496407 16.9595 0.0700455 17.133 0.0928535C17.9991 0.20809 19.1178 0.431362 20.0907 1.14859C21.0486 1.85442 21.5078 2.79852 21.4562 3.9545C21.4502 4.08954 21.473 4.13635 21.5492 4.21618C22.4423 5.15188 22.7274 6.25864 22.3967 7.50464C22.3637 7.62528 22.3727 7.66129 22.4267 7.73991ZM20.3806 7.19314C20.6747 6.55753 20.5133 5.92613 19.9371 5.46098C19.4659 5.08046 19.3063 4.65132 19.4197 4.06853C19.5458 3.42032 19.2919 2.95097 18.6209 2.59146C17.9925 2.25535 17.3346 2.08189 16.6654 2.07709C14.6722 2.06149 12.8644 2.0843 11.1377 2.14552C10.2584 2.17673 9.36108 2.25715 8.4938 2.33518C8.21171 2.36038 7.92302 2.38619 7.63432 2.4108V5.15908C7.63492 6.7712 7.63492 8.43794 7.63132 10.0771C7.63132 10.2055 7.61332 10.3285 7.59771 10.4378C7.58031 10.5584 7.5641 10.6725 7.5755 10.7613C7.60671 11.0014 7.68114 11.2576 7.79157 11.5025C7.96023 11.8782 8.21411 12.2174 8.56762 12.5397C9.33227 13.2371 9.88265 14.111 10.364 14.9512C11.2379 16.4781 12.0103 18.1611 12.7252 20.0955C12.7984 20.2942 12.7936 20.4946 12.7894 20.6711C12.7882 20.7263 12.787 20.7785 12.7882 20.8259C12.7912 20.9454 12.7912 21.0642 12.7912 21.1794C12.7912 21.3229 12.7912 21.4603 12.7966 21.5954C13.4388 21.4519 13.7791 21.0336 13.8361 20.3194C13.8913 19.6249 13.7449 18.9659 13.5948 18.4131C13.5288 18.1713 13.461 17.93 13.3926 17.6887C13.2131 17.0549 13.0277 16.3989 12.8902 15.7387C12.8008 15.3102 12.79 14.8096 12.8572 14.2082C12.9022 13.8019 13.0979 13.4556 13.407 13.2341C13.7383 12.9964 14.1674 12.919 14.6146 13.0162C15.9734 13.3121 17.202 13.5504 18.4744 13.461C19.023 13.4225 19.4809 13.3403 19.8729 13.2107C20.203 13.1014 20.4298 12.913 20.5295 12.6657C20.6321 12.4106 20.5979 12.1063 20.4292 11.7846C20.155 11.2618 20.2132 10.7925 20.6069 10.349C21.1165 9.77517 21.1153 9.238 20.6027 8.65941C20.1994 8.20326 20.1285 7.73751 20.3806 7.19314ZM2.01652 7.42961C2.01652 8.35211 2.01652 9.27461 2.01652 10.1977C2.01652 10.571 2.11435 10.6683 2.49247 10.6689C2.95762 10.6701 3.40596 10.6701 3.8429 10.6701C4.28885 10.6701 4.72279 10.6695 5.15192 10.6689C5.52104 10.6683 5.62188 10.565 5.62248 10.1893C5.62368 7.6925 5.62368 5.1957 5.62248 2.69889C5.62248 2.30037 5.52404 2.20313 5.12011 2.20313C4.22583 2.20253 3.33154 2.20253 2.43725 2.20313C2.13956 2.20313 2.01832 2.32377 2.01772 2.61847C2.01592 3.52836 2.01652 4.43885 2.01652 5.34875V6.4417V7.42961Z" fill="#D9D9D9"/>
</g>
<defs>
<clipPath id="clip0_53_889">
<rect width="23" height="23.632" fill="white" transform="matrix(1 0 0 -1 0 23.6318)"/>
</clipPath>
</defs>
</svg>
