<svg width="21" height="21" viewBox="0 0 21 21" fill="none" xmlns="http://www.w3.org/2000/svg">
<path d="M9.61813 1.64943C9.99489 0.944752 11.0051 0.944753 11.3819 1.64943L13.5054 5.62117C13.6497 5.89121 13.9099 6.08022 14.2113 6.13408L18.6449 6.92632C19.4315 7.06687 19.7437 8.02766 19.1899 8.60373L16.0688 11.8506C15.8565 12.0714 15.7572 12.3772 15.7991 12.6805L16.4157 17.1419C16.5251 17.9335 15.7078 18.5273 14.9888 18.1786L10.9363 16.2136C10.6608 16.08 10.3392 16.08 10.0637 16.2136L6.01121 18.1786C5.29221 18.5273 4.47492 17.9335 4.58432 17.1419L5.2009 12.6805C5.24282 12.3772 5.14346 12.0714 4.93125 11.8506L1.81009 8.60373C1.25633 8.02766 1.56851 7.06687 2.35512 6.92632L6.78867 6.13408C7.09011 6.08022 7.35025 5.89121 7.49463 5.62117L9.61813 1.64943Z" fill="#D9D9D9"/>
<mask id="mask0_123_175" style="mask-type:alpha" maskUnits="userSpaceOnUse" x="1" y="1" width="19" height="18">
<path d="M9.61813 1.64943C9.99489 0.944752 11.0051 0.944753 11.3819 1.64943L13.5054 5.62117C13.6497 5.89121 13.9099 6.08022 14.2113 6.13408L18.6449 6.92632C19.4315 7.06687 19.7437 8.02766 19.1899 8.60373L16.0688 11.8506C15.8565 12.0714 15.7572 12.3772 15.7991 12.6805L16.4157 17.1419C16.5251 17.9335 15.7078 18.5273 14.9888 18.1786L10.9363 16.2136C10.6608 16.08 10.3392 16.08 10.0637 16.2136L6.01121 18.1786C5.29221 18.5273 4.47492 17.9335 4.58432 17.1419L5.2009 12.6805C5.24282 12.3772 5.14346 12.0714 4.93125 11.8506L1.81009 8.60373C1.25633 8.02766 1.56851 7.06687 2.35512 6.92632L6.78867 6.13408C7.09011 6.08022 7.35025 5.89121 7.49463 5.62117L9.61813 1.64943Z" fill="#D9D9D9"/>
</mask>
<g mask="url(#mask0_123_175)">
<path d="M0.5 -3L10.5 -3V25H0.5V-3Z" fill="#9FF772"/>
</g>
</svg>
