<svg width="23" height="24" viewBox="0 0 23 24" fill="none" xmlns="http://www.w3.org/2000/svg">
<g clip-path="url(#clip0_53_885)">
<path d="M22.4267 15.9993C23.1937 14.8752 23.1913 13.5836 22.4201 12.4564C22.4153 12.4492 22.4117 12.4438 22.4099 12.4402C22.4111 12.4336 22.4135 12.421 22.4201 12.4006C22.7988 11.1972 22.5533 10.1625 21.6896 9.3246C21.2443 8.89306 20.6567 8.60136 19.8921 8.43271C18.4678 8.11881 17.0742 8.25865 15.7807 8.45612C15.4638 8.50473 15.1565 8.56535 14.8312 8.62957L14.8979 8.34688C15.0425 7.73108 15.1914 7.09428 15.3672 6.48088C15.6793 5.39153 15.9308 4.40001 15.8504 3.30466C15.7147 1.46087 14.4441 0.206462 12.6141 0.109231C11.8897 0.0702183 11.2865 0.442938 11.002 1.10555C10.7883 1.60311 10.7121 2.15769 10.7607 2.85211L10.7637 2.89533C10.7703 2.98536 10.7793 3.109 10.7607 3.15821C10.1737 4.69531 9.34607 6.69635 8.14389 8.54615C7.93322 8.87085 7.67514 9.16614 7.40145 9.47884C7.29821 9.59708 7.19138 9.71952 7.08815 9.84256C7.01552 9.92959 6.9363 10.0136 6.85227 10.103C6.72263 10.2411 6.58879 10.3833 6.46935 10.5466C6.3169 10.7549 6.18606 10.9751 6.06002 11.1882C6.05942 11.1894 6.05822 11.1912 6.05762 11.1924C5.71551 11.0748 5.374 11.0574 5.0721 11.0592C4.58654 11.0622 4.09138 11.0616 3.61303 11.061C3.23431 11.0604 2.85619 11.0604 2.47746 11.0616C0.997988 11.0664 0.0028674 12.0633 0.00166701 13.5422C-0.00133395 16.2844 -0.000133566 18.744 0.00406779 21.062C0.00466798 21.3369 0.0322769 21.5697 0.0880948 21.775C0.390592 22.8806 1.27288 23.5456 2.44805 23.5528C3.33214 23.5582 4.23003 23.5558 5.09851 23.5534H5.20354C5.63268 23.5522 6.04201 23.4531 6.42073 23.2587C6.48315 23.2269 6.57078 23.2089 6.6302 23.2167C9.19483 23.5414 11.5308 23.6914 13.7713 23.6764C13.961 23.6752 14.1536 23.6932 14.3577 23.7124C14.4561 23.7214 14.5545 23.731 14.6536 23.7382L16.3569 23.7394L16.3779 23.737C16.4572 23.7274 16.5358 23.7184 16.615 23.7094C16.7843 23.6896 16.9595 23.6692 17.133 23.6464C17.9991 23.5312 19.1178 23.3079 20.0907 22.5907C21.0486 21.8848 21.5078 20.9407 21.4562 19.7848C21.4502 19.6497 21.473 19.6029 21.5492 19.5231C22.4423 18.5874 22.7274 17.4806 22.3967 16.2346C22.3637 16.114 22.3727 16.078 22.4267 15.9993ZM20.3806 16.5461C20.6747 17.1817 20.5133 17.8131 19.9371 18.2783C19.4659 18.6588 19.3063 19.0879 19.4197 19.6707C19.5458 20.3189 19.2919 20.7883 18.6209 21.1478C17.9925 21.4839 17.3346 21.6574 16.6654 21.6622C14.6722 21.6778 12.8644 21.655 11.1377 21.5937C10.2584 21.5625 9.36108 21.4821 8.4938 21.4041C8.21171 21.3789 7.92302 21.3531 7.63432 21.3285V18.5802C7.63492 16.9681 7.63492 15.3013 7.63132 13.6622C7.63132 13.5337 7.61332 13.4107 7.59771 13.3015C7.58031 13.1808 7.5641 13.0668 7.5755 12.978C7.60671 12.7379 7.68114 12.4816 7.79157 12.2367C7.96023 11.861 8.21411 11.5219 8.56762 11.1996C9.33227 10.5022 9.88265 9.62829 10.364 8.78802C11.2379 7.26113 12.0103 5.57819 12.7252 3.64377C12.7984 3.4451 12.7936 3.24464 12.7894 3.06818C12.7882 3.01297 12.787 2.96075 12.7882 2.91333C12.7912 2.79389 12.7912 2.67506 12.7912 2.55982C12.7912 2.41637 12.7912 2.27893 12.7966 2.14389C13.4388 2.28733 13.7791 2.70567 13.8361 3.4199C13.8913 4.11432 13.7449 4.77333 13.5948 5.32611C13.5288 5.56799 13.461 5.80926 13.3926 6.05054C13.2131 6.68435 13.0277 7.34036 12.8902 8.00057C12.8008 8.42911 12.79 8.92967 12.8572 9.53106C12.9022 9.93739 13.0979 10.2837 13.407 10.5052C13.7383 10.7429 14.1674 10.8203 14.6146 10.723C15.9734 10.4271 17.202 10.1889 18.4744 10.2783C19.023 10.3167 19.4809 10.3989 19.8729 10.5286C20.203 10.6378 20.4298 10.8263 20.5295 11.0736C20.6321 11.3286 20.5979 11.6329 20.4292 11.9546C20.155 12.4774 20.2132 12.9468 20.6069 13.3903C21.1165 13.9641 21.1153 14.5013 20.6027 15.0798C20.1994 15.536 20.1285 16.0017 20.3806 16.5461ZM2.01652 16.3096C2.01652 15.3871 2.01652 14.4646 2.01652 13.5416C2.01652 13.1682 2.11435 13.071 2.49247 13.0704C2.95762 13.0692 3.40596 13.0692 3.8429 13.0692C4.28885 13.0692 4.72279 13.0698 5.15192 13.0704C5.52104 13.071 5.62188 13.1742 5.62248 13.55C5.62368 16.0468 5.62368 18.5436 5.62248 21.0404C5.62248 21.4389 5.52404 21.5361 5.12011 21.5361C4.22583 21.5367 3.33154 21.5367 2.43725 21.5361C2.13956 21.5361 2.01832 21.4155 2.01772 21.1208C2.01592 20.2109 2.01652 19.3004 2.01652 18.3905V17.2976V16.3096Z" fill="#9FF772"/>
</g>
<defs>
<clipPath id="clip0_53_885">
<rect width="23" height="23.632" fill="white" transform="translate(0 0.107422)"/>
</clipPath>
</defs>
</svg>
