<svg width="19" height="18" viewBox="0 0 19 18" fill="none" xmlns="http://www.w3.org/2000/svg">
<path d="M8.61813 0.649428C8.99489 -0.055248 10.0051 -0.0552471 10.3819 0.649429L12.5054 4.62117C12.6497 4.89121 12.9099 5.08022 13.2113 5.13408L17.6449 5.92632C18.4315 6.06687 18.7437 7.02766 18.1899 7.60373L15.0688 10.8506C14.8565 11.0714 14.7572 11.3772 14.7991 11.6805L15.4157 16.1419C15.5251 16.9335 14.7078 17.5273 13.9888 17.1786L9.93631 15.2136C9.66078 15.08 9.33922 15.08 9.06369 15.2136L5.01121 17.1786C4.29221 17.5273 3.47492 16.9335 3.58432 16.1419L4.2009 11.6805C4.24282 11.3772 4.14346 11.0714 3.93125 10.8506L0.810093 7.60373C0.25633 7.02766 0.568509 6.06687 1.35512 5.92632L5.78867 5.13408C6.09011 5.08022 6.35025 4.89121 6.49463 4.62117L8.61813 0.649428Z" fill="#9FF772"/>
</svg>
