<svg width="40" height="45" viewBox="0 0 40 45" fill="none" xmlns="http://www.w3.org/2000/svg">
<path d="M0.00580102 22.1472C0.00580102 19.2448 0.0198793 16.3411 0.00110828 13.4387C-0.0106236 11.6249 0.761333 10.3039 2.32754 9.40291C7.41799 6.47581 12.4991 3.52876 17.5907 0.602837C19.083 -0.254762 20.5764 -0.169119 22.0547 0.687307C26.2371 3.10876 30.4242 5.52083 34.6101 7.9376C35.5111 8.45732 36.418 8.96648 37.3096 9.50028C38.7174 10.3415 39.4612 11.5839 39.4636 13.2334C39.4694 19.1709 39.4694 25.1084 39.4636 31.047C39.4624 32.6965 38.7327 33.9589 37.3155 34.7813C32.1851 37.7576 27.0489 40.7235 21.9057 43.6775C20.4521 44.5129 18.9739 44.4882 17.518 43.6482C12.431 40.7141 7.34525 37.7764 2.25832 34.8423C0.75664 33.9741 -6.49081e-05 32.6836 0.00345465 30.9438C0.00932058 28.0108 0.00580102 25.079 0.00580102 22.1472ZM33.1202 11.9839C33.0216 11.9147 32.977 11.8772 32.9278 11.849C28.6315 9.36537 24.333 6.88525 20.0403 4.39575C19.7986 4.25497 19.6273 4.29133 19.4021 4.42156C15.1598 6.87821 10.9106 9.32782 6.66363 11.7786C6.5686 11.8337 6.48179 11.9041 6.37972 11.9757C6.44073 12.0191 6.47475 12.0473 6.51229 12.0696C10.8226 14.5591 15.134 17.045 19.4396 19.5416C19.6801 19.6812 19.8479 19.653 20.0732 19.5228C22.2107 18.2781 24.3565 17.045 26.4987 15.8085C28.6914 14.5426 30.8841 13.2756 33.1202 11.9839ZM4.25743 15.6736C4.24687 15.8284 4.23279 15.9411 4.23279 16.0537C4.23162 20.9482 4.23514 25.8428 4.22341 30.7385C4.22223 31.04 4.34424 31.1749 4.58123 31.3122C8.80704 33.743 13.0282 36.1809 17.2505 38.6164C17.3572 38.6786 17.471 38.7267 17.6118 38.7971C17.6188 38.6563 17.6259 38.5695 17.6259 38.4838C17.6259 33.56 17.6224 28.6361 17.6353 23.7123C17.6364 23.4014 17.4874 23.2817 17.2598 23.1515C13.0493 20.7242 8.84107 18.2921 4.63285 15.8625C4.52374 15.7968 4.40642 15.7463 4.25743 15.6736ZM35.219 15.6724C35.0324 15.7698 34.8905 15.8367 34.7544 15.9153C30.5814 18.3238 26.4119 20.7371 22.233 23.1351C21.9362 23.3052 21.8423 23.487 21.8423 23.8225C21.854 28.6455 21.8505 33.4685 21.8505 38.2926C21.8505 38.4463 21.8505 38.6 21.8505 38.8147C22.0547 38.7056 22.1954 38.6364 22.3304 38.5578C26.5034 36.1492 30.6729 33.736 34.8518 31.338C35.1474 31.169 35.2483 30.9919 35.2483 30.654C35.2366 25.8158 35.2401 20.9787 35.2401 16.1405C35.2389 16.0021 35.2284 15.8625 35.219 15.6724Z" fill="white"/>
</svg>
