<svg width="1418" height="167" viewBox="0 0 1418 167" fill="none" xmlns="http://www.w3.org/2000/svg">
<path d="M57.1364 180.778L64.3384 162.929L0.773061 4.17248H34.278L80.6212 122.536L128.53 4.17248H162.035L85.3181 191.737C78.8468 207.603 70.3923 219.188 59.9546 226.495C49.5169 233.801 36.1567 237.454 19.874 237.454H12.9851L12.9851 206.141H19.874C29.4766 206.141 37.2005 204.158 43.0456 200.192C48.8907 196.225 53.5876 189.754 57.1364 180.778ZM217.792 35.4855L217.792 167H185.226L185.226 4.17248L333.963 4.17248L333.963 167H301.397L301.397 35.4855L217.792 35.4855ZM445.941 0.101789C467.025 0.101789 485.082 7.30378 500.112 21.7078V4.17248H532.678V167L500.112 167V149.465C485.082 163.869 467.025 171.071 445.941 171.071C423.187 171.071 404.086 162.929 388.638 146.647C373.399 130.573 365.78 110.219 365.78 85.5862C365.78 60.9534 373.399 40.5999 388.638 24.5259C404.086 8.24317 423.187 0.101789 445.941 0.101789ZM449.385 32.6673C435.399 32.6673 423.604 37.7818 414.002 48.0107C404.399 57.8221 399.598 70.3473 399.598 85.5862C399.598 100.616 404.399 113.246 414.002 123.475C423.813 133.495 435.608 138.505 449.385 138.505C463.581 138.505 475.48 133.495 485.082 123.475C494.685 113.246 499.486 100.616 499.486 85.5862C499.486 70.3473 494.685 57.8221 485.082 48.0107C475.48 37.7818 463.581 32.6673 449.385 32.6673ZM715.167 167H675.086L604.319 82.7681L668.51 4.17248H708.278L644.399 82.7681L715.167 167ZM604.005 4.17248V167H571.44V4.17248H604.005ZM808.428 171.071C784.004 171.071 763.65 162.929 747.368 146.647C731.085 130.364 722.943 110.01 722.943 85.5862C722.943 61.1621 731.085 40.8087 747.368 24.5259C763.65 8.24317 784.004 0.101789 808.428 0.101789C832.852 0.101789 853.205 8.24317 869.488 24.5259C885.98 40.8087 894.225 61.1621 894.225 85.5862C894.225 110.01 885.98 130.364 869.488 146.647C853.205 162.929 832.852 171.071 808.428 171.071ZM808.428 138.505C823.458 138.505 835.775 133.495 845.377 123.475C855.397 113.246 860.407 100.616 860.407 85.5862C860.407 70.556 855.397 58.0308 845.377 48.0107C835.775 37.7818 823.458 32.6673 808.428 32.6673C793.815 32.6673 781.499 37.7818 771.479 48.0107C761.667 58.2396 756.761 70.7648 756.761 85.5862C756.761 100.408 761.667 113.037 771.479 123.475C781.499 133.495 793.815 138.505 808.428 138.505ZM925.851 4.17248L1011.65 4.17248C1024.38 4.17248 1035.86 7.82566 1046.09 15.132C1056.11 22.4384 1061.65 32.2498 1062.69 44.5662C1062.69 60.014 1057.57 71.9129 1047.35 80.263C1062.79 89.4482 1070.52 102.078 1070.52 118.152C1070.52 132.347 1065.51 144.037 1055.49 153.222C1045.68 162.407 1033.26 167 1018.22 167H925.851V4.17248ZM958.417 96.2327V135.687H1018.22C1023.44 135.687 1027.72 133.808 1031.06 130.051C1034.61 126.293 1036.39 121.596 1036.39 115.96C1036.39 110.323 1034.61 105.627 1031.06 101.869C1027.72 98.1114 1023.44 96.2327 1018.22 96.2327L958.417 96.2327ZM1011.65 35.4855L958.417 35.4855V68.9904L1011.65 68.9904C1016.66 68.9904 1020.73 67.4247 1023.86 64.2934C1027.2 60.9534 1028.87 56.8827 1028.87 52.0814C1028.87 47.28 1027.2 43.3137 1023.86 40.1824C1020.73 37.0511 1016.66 35.4855 1011.65 35.4855ZM1242.96 167L1202.88 167L1132.11 82.7681L1196.31 4.17248H1236.07L1172.19 82.7681L1242.96 167ZM1131.8 4.17248V167H1099.23V4.17248H1131.8ZM1330.9 0.101789C1351.98 0.101789 1370.04 7.30378 1385.07 21.7078V4.17248H1417.64V167H1385.07V149.465C1370.04 163.869 1351.98 171.071 1330.9 171.071C1308.15 171.071 1289.04 162.929 1273.6 146.647C1258.36 130.573 1250.74 110.219 1250.74 85.5862C1250.74 60.9534 1258.36 40.5999 1273.6 24.5259C1289.04 8.24317 1308.15 0.101789 1330.9 0.101789ZM1334.34 32.6673C1320.36 32.6673 1308.56 37.7818 1298.96 48.0107C1289.36 57.8221 1284.56 70.3473 1284.56 85.5862C1284.56 100.616 1289.36 113.246 1298.96 123.475C1308.77 133.495 1320.57 138.505 1334.34 138.505C1348.54 138.505 1360.44 133.495 1370.04 123.475C1379.64 113.246 1384.44 100.616 1384.44 85.5862C1384.44 70.3473 1379.64 57.8221 1370.04 48.0107C1360.44 37.7818 1348.54 32.6673 1334.34 32.6673Z" fill="black"/>
</svg>
