<svg width="682" height="526" viewBox="0 0 682 526" fill="none" xmlns="http://www.w3.org/2000/svg">
<path d="M33.48 199.317V206.341H32.136V198.021H39.64V206.341H38.296V199.317H33.48ZM42.7329 205.285C41.9115 204.443 41.5009 203.408 41.5009 202.181C41.5009 200.944 41.9115 199.915 42.7329 199.093C43.5649 198.261 44.5995 197.845 45.8369 197.845C47.0742 197.845 48.1089 198.261 48.9409 199.093C49.7729 199.915 50.1889 200.944 50.1889 202.181C50.1889 203.419 49.7729 204.453 48.9409 205.285C48.0982 206.107 47.0635 206.517 45.8369 206.517C44.6102 206.517 43.5755 206.107 42.7329 205.285ZM45.8369 205.173C46.6795 205.173 47.3835 204.891 47.9489 204.325C48.5142 203.739 48.7969 203.024 48.7969 202.181C48.7969 201.328 48.5142 200.619 47.9489 200.053C47.3835 199.477 46.6795 199.189 45.8369 199.189C44.9942 199.189 44.2955 199.477 43.7409 200.053C43.1755 200.619 42.8929 201.328 42.8929 202.181C42.8929 203.024 43.1755 203.739 43.7409 204.325C44.3062 204.891 45.0049 205.173 45.8369 205.173ZM62.1773 198.117C62.1773 197.595 61.9479 197.168 61.4893 196.837C61.0199 196.485 60.4439 196.309 59.7613 196.309C59.1959 196.309 58.6999 196.427 58.2733 196.661C57.8573 196.885 57.5533 197.195 57.3613 197.589L56.0973 196.981C56.4066 196.363 56.8866 195.872 57.5373 195.509C58.1986 195.147 58.9399 194.965 59.7613 194.965C60.8493 194.965 61.7666 195.264 62.5133 195.861C63.2493 196.448 63.6173 197.184 63.6173 198.069C63.6173 198.592 63.4733 199.072 63.1853 199.509C62.8973 199.947 62.5026 200.293 62.0013 200.549C62.5879 200.816 63.0466 201.189 63.3773 201.669C63.7186 202.149 63.8893 202.683 63.8893 203.269C63.8893 204.197 63.4999 204.971 62.7213 205.589C61.9426 206.208 60.9773 206.517 59.8253 206.517C58.9079 206.517 58.1026 206.32 57.4093 205.925C56.7159 205.52 56.2253 204.976 55.9373 204.293L57.2973 203.797C57.4679 204.213 57.7773 204.549 58.2253 204.805C58.6839 205.051 59.2173 205.173 59.8253 205.173C60.5719 205.173 61.1959 204.987 61.6973 204.613C62.1986 204.24 62.4493 203.771 62.4493 203.205C62.4493 202.651 62.2039 202.192 61.7133 201.829C61.2119 201.456 60.6039 201.269 59.8893 201.269H59.0413V199.973H59.6493C60.3639 199.973 60.9613 199.797 61.4413 199.445C61.9319 199.093 62.1773 198.651 62.1773 198.117ZM65.6471 202.565V198.917C65.6471 197.787 66.0471 196.848 66.8471 196.101C67.6685 195.344 68.6765 194.965 69.8711 194.965C71.0658 194.965 72.0685 195.344 72.8791 196.101C73.6898 196.848 74.0951 197.787 74.0951 198.917V202.565C74.0951 203.696 73.6898 204.635 72.8791 205.381C72.0685 206.139 71.0658 206.517 69.8711 206.517C68.6871 206.517 67.6845 206.139 66.8631 205.381C66.0525 204.635 65.6471 203.696 65.6471 202.565ZM67.0391 198.901V202.581C67.0391 203.317 67.3111 203.936 67.8551 204.437C68.3885 204.928 69.0605 205.173 69.8711 205.173C70.6818 205.173 71.3538 204.928 71.8871 204.437C72.4311 203.936 72.7031 203.317 72.7031 202.581V198.901C72.7031 198.165 72.4311 197.552 71.8871 197.061C71.3325 196.56 70.6605 196.309 69.8711 196.309C69.0818 196.309 68.4098 196.56 67.8551 197.061C67.3111 197.552 67.0391 198.165 67.0391 198.901ZM81.9331 199.317V206.341H80.5891V198.021H85.9491V199.317H81.9331ZM87.8286 205.557C87.8286 205.835 87.738 206.064 87.5566 206.245C87.3753 206.427 87.146 206.517 86.8686 206.517C86.5913 206.517 86.362 206.427 86.1806 206.245C85.9993 206.064 85.9086 205.835 85.9086 205.557C85.9086 205.28 85.9993 205.051 86.1806 204.869C86.362 204.688 86.5913 204.597 86.8686 204.597C87.146 204.597 87.3753 204.693 87.5566 204.885C87.738 205.067 87.8286 205.291 87.8286 205.557ZM94.1048 198.021H98.3928C99.0008 198.021 99.5288 198.181 99.9768 198.501C100.435 198.811 100.723 199.221 100.841 199.733C100.883 199.936 100.905 200.048 100.905 200.069C100.905 200.859 100.617 201.477 100.041 201.925C100.425 202.117 100.729 202.395 100.953 202.757C101.187 203.109 101.305 203.493 101.305 203.909C101.305 204.613 101.059 205.195 100.569 205.653C100.078 206.112 99.4648 206.341 98.7288 206.341H94.1048V198.021ZM95.4488 202.597V205.045H98.7288C99.0594 205.045 99.3368 204.928 99.5608 204.693C99.7848 204.459 99.8968 204.171 99.8968 203.829C99.8968 203.477 99.7848 203.184 99.5608 202.949C99.3368 202.715 99.0594 202.597 98.7288 202.597H95.4488ZM98.3928 199.317H95.4488V201.461H98.3928C98.7234 201.461 98.9901 201.36 99.1928 201.157C99.4061 200.955 99.5128 200.699 99.5128 200.389C99.5128 200.08 99.4061 199.824 99.1928 199.621C98.9901 199.419 98.7234 199.317 98.3928 199.317ZM107.417 206.341V198.021H108.761V205.045H112.585V198.021H113.929V205.045H117.737V198.021H119.081V206.341H107.417ZM122.714 199.317V206.341H121.37V198.021H128.874V206.341H127.53V199.317H122.714ZM132.511 209.941H131.167V198.021H132.511V199.205C133.29 198.299 134.298 197.845 135.535 197.845C136.709 197.845 137.685 198.261 138.463 199.093C139.253 199.915 139.647 200.944 139.647 202.181C139.647 203.408 139.253 204.443 138.463 205.285C137.674 206.107 136.698 206.517 135.535 206.517C134.298 206.517 133.29 206.064 132.511 205.157V209.941ZM135.391 199.189C134.591 199.189 133.914 199.477 133.359 200.053C132.815 200.619 132.543 201.328 132.543 202.181C132.543 203.035 132.815 203.749 133.359 204.325C133.925 204.891 134.602 205.173 135.391 205.173C136.202 205.173 136.879 204.891 137.423 204.325C137.978 203.76 138.255 203.045 138.255 202.181C138.255 201.317 137.978 200.608 137.423 200.053C136.879 199.477 136.202 199.189 135.391 199.189ZM147.8 200.277L142.616 206.341H141.48V198.021H142.824V204.117L148.008 198.021H149.144V206.341H147.8V200.277ZM151.433 206.341V198.021H152.777V205.045H157.513V198.021H158.857V205.045H160.393V208.741H159.049V206.341H151.433ZM169.779 202.645H162.627C162.723 203.392 163.054 204.016 163.619 204.517C164.174 205.008 164.857 205.253 165.667 205.253C166.723 205.253 167.545 204.853 168.131 204.053L169.443 204.469C169.059 205.109 168.531 205.611 167.859 205.973C167.198 206.336 166.467 206.517 165.667 206.517C164.409 206.517 163.353 206.107 162.499 205.285C161.657 204.453 161.235 203.419 161.235 202.181C161.235 200.944 161.646 199.915 162.467 199.093C163.289 198.261 164.307 197.845 165.523 197.845C166.75 197.845 167.769 198.261 168.579 199.093C169.401 199.915 169.811 200.944 169.811 202.181C169.811 202.213 169.801 202.368 169.779 202.645ZM162.643 201.557H168.419C168.291 200.843 167.955 200.251 167.411 199.781C166.878 199.323 166.238 199.093 165.491 199.093C164.766 199.093 164.142 199.323 163.619 199.781C163.097 200.24 162.771 200.832 162.643 201.557ZM171.463 202.805V201.557H175.719V202.805H171.463ZM32.696 230.341V232.741H31.352V229.045H32.6C33.08 228.608 33.32 227.68 33.32 226.261V222.021H39.848V229.045H41.368V232.741H40.024V230.341H32.696ZM34.088 229.045H38.504V223.317H34.664V226.293C34.664 227.435 34.472 228.352 34.088 229.045ZM43.436 229.285C42.6147 228.443 42.204 227.408 42.204 226.181C42.204 224.944 42.6147 223.915 43.436 223.093C44.268 222.261 45.3027 221.845 46.54 221.845C47.7773 221.845 48.812 222.261 49.644 223.093C50.476 223.915 50.892 224.944 50.892 226.181C50.892 227.419 50.476 228.453 49.644 229.285C48.8013 230.107 47.7667 230.517 46.54 230.517C45.3133 230.517 44.2787 230.107 43.436 229.285ZM46.54 229.173C47.3827 229.173 48.0867 228.891 48.652 228.325C49.2173 227.739 49.5 227.024 49.5 226.181C49.5 225.328 49.2173 224.619 48.652 224.053C48.0867 223.477 47.3827 223.189 46.54 223.189C45.6973 223.189 44.9987 223.477 44.444 224.053C43.8787 224.619 43.596 225.328 43.596 226.181C43.596 227.024 43.8787 227.739 44.444 228.325C45.0093 228.891 45.708 229.173 46.54 229.173ZM52.0466 228.229L53.4066 227.861C53.78 228.779 54.532 229.237 55.6626 229.237C56.3133 229.237 56.852 229.099 57.2786 228.821C57.7053 228.533 57.9186 228.181 57.9186 227.765C57.9186 227.435 57.7906 227.163 57.5346 226.949C57.2893 226.725 56.98 226.613 56.6066 226.613H54.5586V225.477H56.5106C56.8733 225.477 57.172 225.381 57.4066 225.189C57.6413 224.987 57.7586 224.741 57.7586 224.453C57.7586 224.08 57.5613 223.765 57.1666 223.509C56.772 223.253 56.2813 223.125 55.6946 223.125C54.5746 223.125 53.828 223.584 53.4546 224.501L52.0946 224.133C52.3506 223.419 52.804 222.859 53.4546 222.453C54.1053 222.048 54.8733 221.845 55.7586 221.845C56.7186 221.845 57.524 222.08 58.1746 222.549C58.8253 223.008 59.1506 223.584 59.1506 224.277C59.1506 225.003 58.804 225.584 58.1106 226.021C58.9106 226.448 59.3106 227.088 59.3106 227.941C59.3106 228.677 58.9693 229.291 58.2866 229.781C57.604 230.272 56.74 230.517 55.6946 230.517C54.7986 230.517 54.0306 230.32 53.3906 229.925C52.7506 229.52 52.3026 228.955 52.0466 228.229ZM64.8313 221.845C66.0793 221.845 67.0926 222.299 67.8713 223.205V222.021H69.2153V230.341H67.8713V229.157C67.0926 230.064 66.0793 230.517 64.8313 230.517C63.6686 230.517 62.6926 230.107 61.9033 229.285C61.1246 228.464 60.7353 227.429 60.7353 226.181C60.7353 224.933 61.1246 223.904 61.9033 223.093C62.6819 222.261 63.6579 221.845 64.8313 221.845ZM64.9753 223.189C64.1753 223.189 63.4979 223.477 62.9433 224.053C62.3993 224.619 62.1273 225.328 62.1273 226.181C62.1273 227.035 62.3993 227.749 62.9433 228.325C63.5086 228.891 64.1859 229.173 64.9753 229.173C65.7859 229.173 66.4633 228.891 67.0073 228.325C67.5619 227.76 67.8393 227.045 67.8393 226.181C67.8393 225.317 67.5619 224.608 67.0073 224.053C66.4633 223.477 65.7859 223.189 64.9753 223.189ZM73.7358 230.341V223.317H70.6158V222.021H78.1998V223.317H75.0798V230.341H73.7358ZM80.0141 229.285C79.1928 228.443 78.7821 227.408 78.7821 226.181C78.7821 224.944 79.1928 223.915 80.0141 223.093C80.8461 222.261 81.8808 221.845 83.1181 221.845C84.3555 221.845 85.3901 222.261 86.2221 223.093C87.0541 223.915 87.4701 224.944 87.4701 226.181C87.4701 227.419 87.0541 228.453 86.2221 229.285C85.3795 230.107 84.3448 230.517 83.1181 230.517C81.8915 230.517 80.8568 230.107 80.0141 229.285ZM83.1181 229.173C83.9608 229.173 84.6648 228.891 85.2301 228.325C85.7955 227.739 86.0781 227.024 86.0781 226.181C86.0781 225.328 85.7955 224.619 85.2301 224.053C84.6648 223.477 83.9608 223.189 83.1181 223.189C82.2755 223.189 81.5768 223.477 81.0221 224.053C80.4568 224.619 80.1741 225.328 80.1741 226.181C80.1741 227.024 80.4568 227.739 81.0221 228.325C81.5875 228.891 82.2861 229.173 83.1181 229.173ZM90.6519 233.941H89.3079V222.021H90.6519V223.205C91.4305 222.299 92.4385 221.845 93.6759 221.845C94.8492 221.845 95.8252 222.261 96.6039 223.093C97.3932 223.915 97.7879 224.944 97.7879 226.181C97.7879 227.408 97.3932 228.443 96.6039 229.285C95.8145 230.107 94.8385 230.517 93.6759 230.517C92.4385 230.517 91.4305 230.064 90.6519 229.157V233.941ZM93.5319 223.189C92.7319 223.189 92.0545 223.477 91.4999 224.053C90.9559 224.619 90.6839 225.328 90.6839 226.181C90.6839 227.035 90.9559 227.749 91.4999 228.325C92.0652 228.891 92.7425 229.173 93.5319 229.173C94.3425 229.173 95.0199 228.891 95.5639 228.325C96.1185 227.76 96.3959 227.045 96.3959 226.181C96.3959 225.317 96.1185 224.608 95.5639 224.053C95.0199 223.477 94.3425 223.189 93.5319 223.189ZM107.732 226.645H100.58C100.676 227.392 101.007 228.016 101.572 228.517C102.127 229.008 102.81 229.253 103.62 229.253C104.676 229.253 105.498 228.853 106.084 228.053L107.396 228.469C107.012 229.109 106.484 229.611 105.812 229.973C105.151 230.336 104.42 230.517 103.62 230.517C102.362 230.517 101.306 230.107 100.452 229.285C99.6097 228.453 99.1884 227.419 99.1884 226.181C99.1884 224.944 99.599 223.915 100.42 223.093C101.242 222.261 102.26 221.845 103.476 221.845C104.703 221.845 105.722 222.261 106.532 223.093C107.354 223.915 107.764 224.944 107.764 226.181C107.764 226.213 107.754 226.368 107.732 226.645ZM100.596 225.557H106.372C106.244 224.843 105.908 224.251 105.364 223.781C104.831 223.323 104.191 223.093 103.444 223.093C102.719 223.093 102.095 223.323 101.572 223.781C101.05 224.24 100.724 224.832 100.596 225.557Z" fill="#9FF772"/>
<path d="M53.223 333.341V331.037H47.047V329.693L53.319 322.141H54.631V329.677H56.231V331.037H54.631V333.341H53.223ZM53.223 324.285L48.743 329.677H53.223V324.285ZM62.3704 333.341V325.021H63.7144V332.045H67.5384V325.021H68.8824V332.045H72.6904V325.021H74.0344V333.341H62.3704ZM77.6675 326.317V333.341H76.3235V325.021H83.8275V333.341H82.4835V326.317H77.6675ZM87.4644 336.941H86.1204V325.021H87.4644V326.205C88.243 325.299 89.251 324.845 90.4884 324.845C91.6617 324.845 92.6377 325.261 93.4164 326.093C94.2057 326.915 94.6004 327.944 94.6004 329.181C94.6004 330.408 94.2057 331.443 93.4164 332.285C92.627 333.107 91.651 333.517 90.4884 333.517C89.251 333.517 88.243 333.064 87.4644 332.157V336.941ZM90.3444 326.189C89.5444 326.189 88.867 326.477 88.3124 327.053C87.7684 327.619 87.4964 328.328 87.4964 329.181C87.4964 330.035 87.7684 330.749 88.3124 331.325C88.8777 331.891 89.555 332.173 90.3444 332.173C91.155 332.173 91.8324 331.891 92.3764 331.325C92.931 330.76 93.2084 330.045 93.2084 329.181C93.2084 328.317 92.931 327.608 92.3764 327.053C91.8324 326.477 91.155 326.189 90.3444 326.189ZM102.753 327.277L97.5689 333.341H96.4329V325.021H97.7769V331.117L102.961 325.021H104.097V333.341H102.753V327.277ZM106.386 333.341V325.021H107.73V332.045H112.466V325.021H113.81V332.045H115.346V335.741H114.002V333.341H106.386ZM120.284 324.845C121.532 324.845 122.546 325.299 123.324 326.205V325.021H124.668V333.341H123.324V332.157C122.546 333.064 121.532 333.517 120.284 333.517C119.122 333.517 118.146 333.107 117.356 332.285C116.578 331.464 116.188 330.429 116.188 329.181C116.188 327.933 116.578 326.904 117.356 326.093C118.135 325.261 119.111 324.845 120.284 324.845ZM120.428 326.189C119.628 326.189 118.951 326.477 118.396 327.053C117.852 327.619 117.58 328.328 117.58 329.181C117.58 330.035 117.852 330.749 118.396 331.325C118.962 331.891 119.639 332.173 120.428 332.173C121.239 332.173 121.916 331.891 122.46 331.325C123.015 330.76 123.292 330.045 123.292 329.181C123.292 328.317 123.015 327.608 122.46 327.053C121.916 326.477 121.239 326.189 120.428 326.189ZM126.869 329.805V328.557H131.125V329.805H126.869ZM133.899 333.341V335.741H132.555V332.045H133.803C134.283 331.608 134.523 330.68 134.523 329.261V325.021H141.051V332.045H142.571V335.741H141.227V333.341H133.899ZM135.291 332.045H139.707V326.317H135.867V329.293C135.867 330.435 135.675 331.352 135.291 332.045ZM144.639 332.285C143.818 331.443 143.407 330.408 143.407 329.181C143.407 327.944 143.818 326.915 144.639 326.093C145.471 325.261 146.506 324.845 147.743 324.845C148.98 324.845 150.015 325.261 150.847 326.093C151.679 326.915 152.095 327.944 152.095 329.181C152.095 330.419 151.679 331.453 150.847 332.285C150.004 333.107 148.97 333.517 147.743 333.517C146.516 333.517 145.482 333.107 144.639 332.285ZM147.743 332.173C148.586 332.173 149.29 331.891 149.855 331.325C150.42 330.739 150.703 330.024 150.703 329.181C150.703 328.328 150.42 327.619 149.855 327.053C149.29 326.477 148.586 326.189 147.743 326.189C146.9 326.189 146.202 326.477 145.647 327.053C145.082 327.619 144.799 328.328 144.799 329.181C144.799 330.024 145.082 330.739 145.647 331.325C146.212 331.891 146.911 332.173 147.743 332.173ZM153.25 331.229L154.61 330.861C154.983 331.779 155.735 332.237 156.866 332.237C157.516 332.237 158.055 332.099 158.482 331.821C158.908 331.533 159.122 331.181 159.122 330.765C159.122 330.435 158.994 330.163 158.738 329.949C158.492 329.725 158.183 329.613 157.81 329.613H155.762V328.477H157.714C158.076 328.477 158.375 328.381 158.61 328.189C158.844 327.987 158.962 327.741 158.962 327.453C158.962 327.08 158.764 326.765 158.37 326.509C157.975 326.253 157.484 326.125 156.898 326.125C155.778 326.125 155.031 326.584 154.658 327.501L153.298 327.133C153.554 326.419 154.007 325.859 154.658 325.453C155.308 325.048 156.076 324.845 156.962 324.845C157.922 324.845 158.727 325.08 159.378 325.549C160.028 326.008 160.354 326.584 160.354 327.277C160.354 328.003 160.007 328.584 159.314 329.021C160.114 329.448 160.514 330.088 160.514 330.941C160.514 331.677 160.172 332.291 159.49 332.781C158.807 333.272 157.943 333.517 156.898 333.517C156.002 333.517 155.234 333.32 154.594 332.925C153.954 332.52 153.506 331.955 153.25 331.229ZM166.034 324.845C167.282 324.845 168.296 325.299 169.074 326.205V325.021H170.418V333.341H169.074V332.157C168.296 333.064 167.282 333.517 166.034 333.517C164.872 333.517 163.896 333.107 163.106 332.285C162.328 331.464 161.938 330.429 161.938 329.181C161.938 327.933 162.328 326.904 163.106 326.093C163.885 325.261 164.861 324.845 166.034 324.845ZM166.178 326.189C165.378 326.189 164.701 326.477 164.146 327.053C163.602 327.619 163.33 328.328 163.33 329.181C163.33 330.035 163.602 330.749 164.146 331.325C164.712 331.891 165.389 332.173 166.178 332.173C166.989 332.173 167.666 331.891 168.21 331.325C168.765 330.76 169.042 330.045 169.042 329.181C169.042 328.317 168.765 327.608 168.21 327.053C167.666 326.477 166.989 326.189 166.178 326.189ZM174.939 333.341V326.317H171.819V325.021H179.403V326.317H176.283V333.341H174.939ZM181.217 332.285C180.396 331.443 179.985 330.408 179.985 329.181C179.985 327.944 180.396 326.915 181.217 326.093C182.049 325.261 183.084 324.845 184.321 324.845C185.559 324.845 186.593 325.261 187.425 326.093C188.257 326.915 188.673 327.944 188.673 329.181C188.673 330.419 188.257 331.453 187.425 332.285C186.583 333.107 185.548 333.517 184.321 333.517C183.095 333.517 182.06 333.107 181.217 332.285ZM184.321 332.173C185.164 332.173 185.868 331.891 186.433 331.325C186.999 330.739 187.281 330.024 187.281 329.181C187.281 328.328 186.999 327.619 186.433 327.053C185.868 326.477 185.164 326.189 184.321 326.189C183.479 326.189 182.78 326.477 182.225 327.053C181.66 327.619 181.377 328.328 181.377 329.181C181.377 330.024 181.66 330.739 182.225 331.325C182.791 331.891 183.489 332.173 184.321 332.173ZM191.855 336.941H190.511V325.021H191.855V326.205C192.634 325.299 193.642 324.845 194.879 324.845C196.052 324.845 197.028 325.261 197.807 326.093C198.596 326.915 198.991 327.944 198.991 329.181C198.991 330.408 198.596 331.443 197.807 332.285C197.018 333.107 196.042 333.517 194.879 333.517C193.642 333.517 192.634 333.064 191.855 332.157V336.941ZM194.735 326.189C193.935 326.189 193.258 326.477 192.703 327.053C192.159 327.619 191.887 328.328 191.887 329.181C191.887 330.035 192.159 330.749 192.703 331.325C193.268 331.891 193.946 332.173 194.735 332.173C195.546 332.173 196.223 331.891 196.767 331.325C197.322 330.76 197.599 330.045 197.599 329.181C197.599 328.317 197.322 327.608 196.767 327.053C196.223 326.477 195.546 326.189 194.735 326.189ZM204.488 324.845C205.736 324.845 206.749 325.299 207.528 326.205V325.021H208.872V333.341H207.528V332.157C206.749 333.064 205.736 333.517 204.488 333.517C203.325 333.517 202.349 333.107 201.56 332.285C200.781 331.464 200.392 330.429 200.392 329.181C200.392 327.933 200.781 326.904 201.56 326.093C202.338 325.261 203.314 324.845 204.488 324.845ZM204.632 326.189C203.832 326.189 203.154 326.477 202.6 327.053C202.056 327.619 201.784 328.328 201.784 329.181C201.784 330.035 202.056 330.749 202.6 331.325C203.165 331.891 203.842 332.173 204.632 332.173C205.442 332.173 206.12 331.891 206.664 331.325C207.218 330.76 207.496 330.045 207.496 329.181C207.496 328.317 207.218 327.608 206.664 327.053C206.12 326.477 205.442 326.189 204.632 326.189ZM10.7923 351.021H15.0803C15.6883 351.021 16.2163 351.181 16.6643 351.501C17.1229 351.811 17.4109 352.221 17.5283 352.733C17.5709 352.936 17.5923 353.048 17.5923 353.069C17.5923 353.859 17.3043 354.477 16.7283 354.925C17.1123 355.117 17.4163 355.395 17.6403 355.757C17.8749 356.109 17.9923 356.493 17.9923 356.909C17.9923 357.613 17.7469 358.195 17.2563 358.653C16.7656 359.112 16.1523 359.341 15.4163 359.341H10.7923V351.021ZM12.1363 355.597V358.045H15.4163C15.7469 358.045 16.0243 357.928 16.2483 357.693C16.4723 357.459 16.5843 357.171 16.5843 356.829C16.5843 356.477 16.4723 356.184 16.2483 355.949C16.0243 355.715 15.7469 355.597 15.4163 355.597H12.1363ZM15.0803 352.317H12.1363V354.461H15.0803C15.4109 354.461 15.6776 354.36 15.8803 354.157C16.0936 353.955 16.2003 353.699 16.2003 353.389C16.2003 353.08 16.0936 352.824 15.8803 352.621C15.6776 352.419 15.4109 352.317 15.0803 352.317ZM25.4488 352.317V359.341H24.1048V351.021H31.6088V359.341H30.2648V352.317H25.4488ZM33.6616 359.341H33.1176V358.045H33.5656C34.3656 358.045 34.7656 357.171 34.7656 355.421V351.021H41.2136V359.341H39.8696V352.317H36.1096V355.677C36.1096 356.893 35.891 357.811 35.4536 358.429C35.027 359.037 34.4296 359.341 33.6616 359.341ZM47.1438 350.845C48.3918 350.845 49.4051 351.299 50.1838 352.205V351.021H51.5278V359.341H50.1838V358.157C49.4051 359.064 48.3918 359.517 47.1438 359.517C45.9811 359.517 45.0051 359.107 44.2158 358.285C43.4371 357.464 43.0478 356.429 43.0478 355.181C43.0478 353.933 43.4371 352.904 44.2158 352.093C44.9944 351.261 45.9704 350.845 47.1438 350.845ZM47.2878 352.189C46.4878 352.189 45.8104 352.477 45.2558 353.053C44.7118 353.619 44.4398 354.328 44.4398 355.181C44.4398 356.035 44.7118 356.749 45.2558 357.325C45.8211 357.891 46.4984 358.173 47.2878 358.173C48.0984 358.173 48.7758 357.891 49.3198 357.325C49.8744 356.76 50.1518 356.045 50.1518 355.181C50.1518 354.317 49.8744 353.608 49.3198 353.053C48.7758 352.477 48.0984 352.189 47.2878 352.189ZM61.6643 353.357L60.3203 353.757C60.0749 353.277 59.7176 352.899 59.2483 352.621C58.7896 352.333 58.2723 352.189 57.6963 352.189C56.8536 352.189 56.1549 352.477 55.6003 353.053C55.0349 353.619 54.7523 354.328 54.7523 355.181C54.7523 356.024 55.0349 356.739 55.6003 357.325C56.1656 357.891 56.8643 358.173 57.6963 358.173C58.2723 358.173 58.7896 358.035 59.2483 357.757C59.7176 357.469 60.0749 357.085 60.3203 356.605L61.6643 357.005C61.3229 357.784 60.7949 358.397 60.0803 358.845C59.3763 359.293 58.5816 359.517 57.6963 359.517C56.4696 359.517 55.4349 359.107 54.5923 358.285C53.7709 357.443 53.3603 356.408 53.3603 355.181C53.3603 353.944 53.7709 352.915 54.5923 352.093C55.4243 351.261 56.4589 350.845 57.6963 350.845C58.5816 350.845 59.3763 351.069 60.0803 351.517C60.7949 351.965 61.3229 352.579 61.6643 353.357ZM65.6264 359.341V352.317H62.5064V351.021H70.0904V352.317H66.9704V359.341H65.6264ZM77.8154 353.277L72.6314 359.341H71.4954V351.021H72.8394V357.117L78.0234 351.021H79.1594V359.341H77.8154V353.277ZM88.4405 359.341H86.7605L83.0165 355.037L86.4405 351.021H88.0885L84.6805 355.037L88.4405 359.341ZM82.7925 351.021V359.341H81.4485V351.021H82.7925ZM90.2329 358.285C89.4115 357.443 89.0009 356.408 89.0009 355.181C89.0009 353.944 89.4115 352.915 90.2329 352.093C91.0649 351.261 92.0995 350.845 93.3369 350.845C94.5742 350.845 95.6089 351.261 96.4409 352.093C97.2729 352.915 97.6889 353.944 97.6889 355.181C97.6889 356.419 97.2729 357.453 96.4409 358.285C95.5982 359.107 94.5635 359.517 93.3369 359.517C92.1102 359.517 91.0755 359.107 90.2329 358.285ZM93.3369 358.173C94.1795 358.173 94.8835 357.891 95.4489 357.325C96.0142 356.739 96.2969 356.024 96.2969 355.181C96.2969 354.328 96.0142 353.619 95.4489 353.053C94.8835 352.477 94.1795 352.189 93.3369 352.189C92.4942 352.189 91.7955 352.477 91.2409 353.053C90.6755 353.619 90.3929 354.328 90.3929 355.181C90.3929 356.024 90.6755 356.739 91.2409 357.325C91.8062 357.891 92.5049 358.173 93.3369 358.173ZM99.5266 351.021H103.815C104.423 351.021 104.951 351.181 105.399 351.501C105.857 351.811 106.145 352.221 106.263 352.733C106.305 352.936 106.327 353.048 106.327 353.069C106.327 353.859 106.039 354.477 105.463 354.925C105.847 355.117 106.151 355.395 106.375 355.757C106.609 356.109 106.727 356.493 106.727 356.909C106.727 357.613 106.481 358.195 105.991 358.653C105.5 359.112 104.887 359.341 104.151 359.341H99.5266V351.021ZM100.871 355.597V358.045H104.151C104.481 358.045 104.759 357.928 104.983 357.693C105.207 357.459 105.319 357.171 105.319 356.829C105.319 356.477 105.207 356.184 104.983 355.949C104.759 355.715 104.481 355.597 104.151 355.597H100.871ZM103.815 352.317H100.871V354.461H103.815C104.145 354.461 104.412 354.36 104.615 354.157C104.828 353.955 104.935 353.699 104.935 353.389C104.935 353.08 104.828 352.824 104.615 352.621C104.412 352.419 104.145 352.317 103.815 352.317ZM109.249 358.285C108.427 357.443 108.017 356.408 108.017 355.181C108.017 353.944 108.427 352.915 109.249 352.093C110.081 351.261 111.115 350.845 112.353 350.845C113.59 350.845 114.625 351.261 115.457 352.093C116.289 352.915 116.705 353.944 116.705 355.181C116.705 356.419 116.289 357.453 115.457 358.285C114.614 359.107 113.579 359.517 112.353 359.517C111.126 359.517 110.091 359.107 109.249 358.285ZM112.353 358.173C113.195 358.173 113.899 357.891 114.465 357.325C115.03 356.739 115.312 356.024 115.312 355.181C115.312 354.328 115.03 353.619 114.465 353.053C113.899 352.477 113.195 352.189 112.353 352.189C111.51 352.189 110.811 352.477 110.257 353.053C109.691 353.619 109.409 354.328 109.409 355.181C109.409 356.024 109.691 356.739 110.257 357.325C110.822 357.891 111.521 358.173 112.353 358.173ZM119.886 353.549V359.341H118.542V351.021H119.886L123.07 356.557L126.238 351.021H127.582V359.341H126.238V353.581L123.486 358.381H122.654L119.886 353.549ZM133.877 353.293C133.877 351.459 134.277 350.072 135.077 349.133C135.888 348.184 137.13 347.629 138.805 347.469C140.565 347.288 141.578 347.187 141.845 347.165V348.509C140.341 348.659 139.36 348.76 138.901 348.813C137.6 348.941 136.656 349.363 136.069 350.077C135.493 350.781 135.221 351.8 135.253 353.133C135.488 352.44 135.904 351.885 136.501 351.469C137.098 351.053 137.797 350.845 138.597 350.845C139.781 350.845 140.778 351.261 141.589 352.093C142.4 352.915 142.805 353.949 142.805 355.197C142.805 356.435 142.394 357.464 141.573 358.285C140.752 359.107 139.733 359.517 138.517 359.517C137.194 359.517 136.09 358.995 135.205 357.949C134.32 356.904 133.877 355.352 133.877 353.293ZM136.485 357.325C137.05 357.891 137.738 358.173 138.549 358.173C139.36 358.173 140.037 357.891 140.581 357.325C141.125 356.749 141.397 356.035 141.397 355.181C141.397 354.328 141.125 353.619 140.581 353.053C140.037 352.477 139.36 352.189 138.549 352.189C137.728 352.189 137.04 352.477 136.485 353.053C135.941 353.619 135.669 354.328 135.669 355.181C135.669 356.035 135.941 356.749 136.485 357.325ZM144.021 359.341H143.477V358.045H143.925C144.725 358.045 145.125 357.171 145.125 355.421V351.021H151.573V359.341H150.229V352.317H146.469V355.677C146.469 356.893 146.25 357.811 145.813 358.429C145.386 359.037 144.789 359.341 144.021 359.341ZM160.159 353.277L154.975 359.341H153.839V351.021H155.183V357.117L160.367 351.021H161.503V359.341H160.159V353.277ZM171.664 353.357L170.32 353.757C170.075 353.277 169.718 352.899 169.248 352.621C168.79 352.333 168.272 352.189 167.696 352.189C166.854 352.189 166.155 352.477 165.6 353.053C165.035 353.619 164.752 354.328 164.752 355.181C164.752 356.024 165.035 356.739 165.6 357.325C166.166 357.891 166.864 358.173 167.696 358.173C168.272 358.173 168.79 358.035 169.248 357.757C169.718 357.469 170.075 357.085 170.32 356.605L171.664 357.005C171.323 357.784 170.795 358.397 170.08 358.845C169.376 359.293 168.582 359.517 167.696 359.517C166.47 359.517 165.435 359.107 164.592 358.285C163.771 357.443 163.36 356.408 163.36 355.181C163.36 353.944 163.771 352.915 164.592 352.093C165.424 351.261 166.459 350.845 167.696 350.845C168.582 350.845 169.376 351.069 170.08 351.517C170.795 351.965 171.323 352.579 171.664 353.357ZM175.626 359.341V352.317H172.506V351.021H180.09V352.317H176.97V359.341H175.626ZM189.217 355.645H182.065C182.161 356.392 182.491 357.016 183.057 357.517C183.611 358.008 184.294 358.253 185.105 358.253C186.161 358.253 186.982 357.853 187.569 357.053L188.881 357.469C188.497 358.109 187.969 358.611 187.297 358.973C186.635 359.336 185.905 359.517 185.105 359.517C183.846 359.517 182.79 359.107 181.937 358.285C181.094 357.453 180.673 356.419 180.673 355.181C180.673 353.944 181.083 352.915 181.905 352.093C182.726 351.261 183.745 350.845 184.961 350.845C186.187 350.845 187.206 351.261 188.017 352.093C188.838 352.915 189.249 353.944 189.249 355.181C189.249 355.213 189.238 355.368 189.217 355.645ZM182.081 354.557H187.857C187.729 353.843 187.393 353.251 186.849 352.781C186.315 352.323 185.675 352.093 184.929 352.093C184.203 352.093 183.579 352.323 183.057 352.781C182.534 353.24 182.209 353.832 182.081 354.557ZM192.308 362.941H190.964V351.021H192.308V352.205C193.087 351.299 194.095 350.845 195.332 350.845C196.505 350.845 197.481 351.261 198.26 352.093C199.049 352.915 199.444 353.944 199.444 355.181C199.444 356.408 199.049 357.443 198.26 358.285C197.471 359.107 196.495 359.517 195.332 359.517C194.095 359.517 193.087 359.064 192.308 358.157V362.941ZM195.188 352.189C194.388 352.189 193.711 352.477 193.156 353.053C192.612 353.619 192.34 354.328 192.34 355.181C192.34 356.035 192.612 356.749 193.156 357.325C193.721 357.891 194.399 358.173 195.188 358.173C195.999 358.173 196.676 357.891 197.22 357.325C197.775 356.76 198.052 356.045 198.052 355.181C198.052 354.317 197.775 353.608 197.22 353.053C196.676 352.477 195.999 352.189 195.188 352.189ZM209.389 355.645H202.237C202.333 356.392 202.663 357.016 203.229 357.517C203.783 358.008 204.466 358.253 205.277 358.253C206.333 358.253 207.154 357.853 207.741 357.053L209.053 357.469C208.669 358.109 208.141 358.611 207.469 358.973C206.807 359.336 206.077 359.517 205.277 359.517C204.018 359.517 202.962 359.107 202.109 358.285C201.266 357.453 200.845 356.419 200.845 355.181C200.845 353.944 201.255 352.915 202.077 352.093C202.898 351.261 203.917 350.845 205.133 350.845C206.359 350.845 207.378 351.261 208.189 352.093C209.01 352.915 209.421 353.944 209.421 355.181C209.421 355.213 209.41 355.368 209.389 355.645ZM202.253 354.557H208.029C207.901 353.843 207.565 353.251 207.021 352.781C206.487 352.323 205.847 352.093 205.101 352.093C204.375 352.093 203.751 352.323 203.229 352.781C202.706 353.24 202.381 353.832 202.253 354.557Z" fill="#9FF772"/>
<path d="M53.008 438.357L51.664 438.757C51.4187 438.277 51.0613 437.899 50.592 437.621C50.1333 437.333 49.616 437.189 49.04 437.189C48.1973 437.189 47.4987 437.477 46.944 438.053C46.3787 438.619 46.096 439.328 46.096 440.181C46.096 441.024 46.3787 441.739 46.944 442.325C47.5093 442.891 48.208 443.173 49.04 443.173C49.616 443.173 50.1333 443.035 50.592 442.757C51.0613 442.469 51.4187 442.085 51.664 441.605L53.008 442.005C52.6667 442.784 52.1387 443.397 51.424 443.845C50.72 444.293 49.9253 444.517 49.04 444.517C47.8133 444.517 46.7787 444.107 45.936 443.285C45.1147 442.443 44.704 441.408 44.704 440.181C44.704 438.944 45.1147 437.915 45.936 437.093C46.768 436.261 47.8027 435.845 49.04 435.845C49.9253 435.845 50.72 436.069 51.424 436.517C52.1387 436.965 52.6667 437.579 53.008 438.357ZM56.8581 444.341V437.317H53.8501V436.021H58.2021V439.029H60.9701C61.7381 439.029 62.3728 439.285 62.8741 439.797C63.3861 440.299 63.6421 440.928 63.6421 441.685C63.6421 442.443 63.3861 443.077 62.8741 443.589C62.3728 444.091 61.7381 444.341 60.9701 444.341H56.8581ZM60.9701 440.325H58.2021V443.045H60.9701C61.3328 443.045 61.6368 442.917 61.8821 442.661C62.1275 442.395 62.2501 442.069 62.2501 441.685C62.2501 441.301 62.1275 440.981 61.8821 440.725C61.6368 440.459 61.3328 440.325 60.9701 440.325ZM73.4668 440.645H66.3148C66.4108 441.392 66.7414 442.016 67.3068 442.517C67.8614 443.008 68.5441 443.253 69.3548 443.253C70.4108 443.253 71.2321 442.853 71.8188 442.053L73.1308 442.469C72.7468 443.109 72.2188 443.611 71.5468 443.973C70.8854 444.336 70.1548 444.517 69.3548 444.517C68.0961 444.517 67.0401 444.107 66.1868 443.285C65.3441 442.453 64.9228 441.419 64.9228 440.181C64.9228 438.944 65.3334 437.915 66.1548 437.093C66.9761 436.261 67.9948 435.845 69.2108 435.845C70.4374 435.845 71.4561 436.261 72.2668 437.093C73.0881 437.915 73.4988 438.944 73.4988 440.181C73.4988 440.213 73.4881 440.368 73.4668 440.645ZM66.3307 439.557H72.1068C71.9788 438.843 71.6428 438.251 71.0988 437.781C70.5654 437.323 69.9254 437.093 69.1788 437.093C68.4534 437.093 67.8294 437.323 67.3068 437.781C66.7841 438.24 66.4588 438.832 66.3307 439.557ZM76.5581 438.549V444.341H75.2141V436.021H76.5581L79.7421 441.557L82.9101 436.021H84.2541V444.341H82.9101V438.581L80.1581 443.381H79.3261L76.5581 438.549ZM87.8863 440.757V444.341H86.5423V436.021H87.8863V439.461H92.8463V436.021H94.1903V444.341H92.8463V440.757H87.8863ZM100.576 444.341H96.4641V436.021H97.8081V439.029H100.576C101.344 439.029 101.984 439.285 102.496 439.797C103.008 440.299 103.264 440.928 103.264 441.685C103.264 442.411 103.035 443.019 102.576 443.509C102.117 444 101.52 444.277 100.784 444.341H100.576ZM105.952 444.341H104.608V436.021H105.952V444.341ZM100.576 440.325H97.8081V443.045H100.576C100.939 443.045 101.243 442.917 101.488 442.661C101.744 442.395 101.872 442.069 101.872 441.685C101.872 441.301 101.744 440.981 101.488 440.725C101.243 440.459 100.939 440.325 100.576 440.325ZM114.55 438.277L109.366 444.341H108.23V436.021H109.574V442.117L114.758 436.021H115.894V444.341H114.55V438.277ZM109.414 432.533H110.566C110.566 432.928 110.704 433.253 110.982 433.509C111.27 433.765 111.632 433.893 112.07 433.893C112.507 433.893 112.864 433.765 113.142 433.509C113.43 433.253 113.574 432.928 113.574 432.533H114.71C114.71 433.237 114.459 433.824 113.958 434.293C113.467 434.752 112.838 434.981 112.07 434.981C111.302 434.981 110.667 434.752 110.166 434.293C109.664 433.824 109.414 433.237 109.414 432.533ZM123.918 440.757V444.341H122.574V436.021H123.918V439.461H128.878V436.021H130.222V444.341H128.878V440.757H123.918ZM136.159 435.845C137.407 435.845 138.421 436.299 139.199 437.205V436.021H140.543V444.341H139.199V443.157C138.421 444.064 137.407 444.517 136.159 444.517C134.997 444.517 134.021 444.107 133.231 443.285C132.453 442.464 132.063 441.429 132.063 440.181C132.063 438.933 132.453 437.904 133.231 437.093C134.01 436.261 134.986 435.845 136.159 435.845ZM136.303 437.189C135.503 437.189 134.826 437.477 134.271 438.053C133.727 438.619 133.455 439.328 133.455 440.181C133.455 441.035 133.727 441.749 134.271 442.325C134.837 442.891 135.514 443.173 136.303 443.173C137.114 443.173 137.791 442.891 138.335 442.325C138.89 441.76 139.167 441.045 139.167 440.181C139.167 439.317 138.89 438.608 138.335 438.053C137.791 437.477 137.114 437.189 136.303 437.189ZM149.8 444.341H148.12L144.376 440.037L147.8 436.021H149.448L146.04 440.037L149.8 444.341ZM144.152 436.021V444.341H142.808V436.021H144.152ZM151.592 443.285C150.771 442.443 150.36 441.408 150.36 440.181C150.36 438.944 150.771 437.915 151.592 437.093C152.424 436.261 153.459 435.845 154.696 435.845C155.934 435.845 156.968 436.261 157.8 437.093C158.632 437.915 159.048 438.944 159.048 440.181C159.048 441.419 158.632 442.453 157.8 443.285C156.958 444.107 155.923 444.517 154.696 444.517C153.47 444.517 152.435 444.107 151.592 443.285ZM154.696 443.173C155.539 443.173 156.243 442.891 156.808 442.325C157.374 441.739 157.656 441.024 157.656 440.181C157.656 439.328 157.374 438.619 156.808 438.053C156.243 437.477 155.539 437.189 154.696 437.189C153.854 437.189 153.155 437.477 152.6 438.053C152.035 438.619 151.752 439.328 151.752 440.181C151.752 441.024 152.035 441.739 152.6 442.325C153.166 442.891 153.864 443.173 154.696 443.173ZM162.23 440.757V444.341H160.886V436.021H162.23V439.461H167.19V436.021H168.534V444.341H167.19V440.757H162.23ZM178.92 440.645H171.768C171.864 441.392 172.195 442.016 172.76 442.517C173.315 443.008 173.997 443.253 174.808 443.253C175.864 443.253 176.685 442.853 177.272 442.053L178.584 442.469C178.2 443.109 177.672 443.611 177 443.973C176.339 444.336 175.608 444.517 174.808 444.517C173.549 444.517 172.493 444.107 171.64 443.285C170.797 442.453 170.376 441.419 170.376 440.181C170.376 438.944 170.787 437.915 171.608 437.093C172.429 436.261 173.448 435.845 174.664 435.845C175.891 435.845 176.909 436.261 177.72 437.093C178.541 437.915 178.952 438.944 178.952 440.181C178.952 440.213 178.941 440.368 178.92 440.645ZM171.784 439.557H177.56C177.432 438.843 177.096 438.251 176.552 437.781C176.019 437.323 175.379 437.093 174.632 437.093C173.907 437.093 173.283 437.323 172.76 437.781C172.237 438.24 171.912 438.832 171.784 439.557ZM180.174 438.645V436.021H181.566V438.645C181.566 439.061 181.726 439.392 182.046 439.637C182.366 439.883 182.83 440.005 183.438 440.005C183.907 440.005 184.707 439.941 185.838 439.813V436.021H187.182V444.341H185.838V441.109C184.707 441.237 183.875 441.301 183.342 441.301C182.382 441.301 181.608 441.051 181.022 440.549C180.456 440.048 180.174 439.413 180.174 438.645ZM190.793 440.757V444.341H189.449V436.021H190.793V439.461H195.753V436.021H197.097V444.341H195.753V440.757H190.793ZM205.69 438.277L200.506 444.341H199.37V436.021H200.714V442.117L205.898 436.021H207.034V444.341H205.69V438.277ZM216.316 444.341H214.636L210.892 440.037L214.316 436.021H215.964L212.556 440.037L216.316 444.341ZM210.668 436.021V444.341H209.324V436.021H210.668Z" fill="#9FF772"/>
<g clip-path="url(#clip0_53_793)">
<path d="M531.025 467.317H595.913V461.292C595.913 461.292 595.468 457.182 589.804 457.182C584.14 457.182 567.222 457.182 567.222 457.182V145.643C567.222 141.616 565.401 137.813 562.255 135.296C557.917 131.821 551.228 127.238 544.245 125.344V122.537H545.403V103.653C545.403 102.49 544.769 101.426 543.755 100.869C542.396 100.117 540.308 99.2485 537.936 99.2485V88.5785C537.936 88.5785 537.746 81.6843 535.146 78.7439V66.5481C535.146 65.0556 533.937 63.8472 532.445 63.8472H531.019H529.593C528.101 63.8472 526.892 65.0556 526.892 66.5481V78.7439C524.297 81.6787 524.102 88.5785 524.102 88.5785V99.254C521.73 99.254 519.642 100.123 518.283 100.875C517.264 101.437 516.635 102.501 516.635 103.659V122.549H517.793V125.355C510.81 127.249 504.127 131.832 499.783 135.307C496.642 137.818 494.816 141.628 494.816 145.654V457.199C494.816 457.199 477.898 457.199 472.234 457.199C466.571 457.199 466.125 461.308 466.125 461.308V467.334H531.025" stroke="#9FF772" stroke-width="5.01198" stroke-miterlimit="10"/>
<path d="M524.107 99.1538H537.94" stroke="#9FF772" stroke-width="5.01198" stroke-miterlimit="10"/>
<path d="M517.798 122.543H544.25" stroke="#9FF772" stroke-width="5.01198" stroke-miterlimit="10"/>
<path d="M567.228 157.321C567.228 157.321 546.01 157.321 531.025 157.321C516.044 157.321 494.821 157.321 494.821 157.321" stroke="#9FF772" stroke-width="5.01198" stroke-miterlimit="10"/>
<path d="M567.228 440.331C567.228 440.331 549.157 440.587 530.172 440.587C511.188 440.587 494.821 440.331 494.821 440.331" stroke="#9FF772" stroke-width="5.01198" stroke-miterlimit="10"/>
<path d="M401.221 155.527C406.501 155.527 422.288 156.207 424.549 156.207C426.805 156.207 427.317 157.482 427.317 157.482C427.317 157.482 427.445 160.205 427.317 161.102C427.189 161.998 423.229 162.505 423.229 162.505V178.337C423.229 178.337 427.183 178.794 427.373 179.88C427.562 180.966 427.373 183.361 427.373 183.361H431.009C431.009 183.361 433.693 193.702 433.086 194.153C432.479 194.604 430.564 194.727 430.564 194.727V459.348C430.564 459.348 433.532 459.771 433.615 460.751C433.699 461.731 433.615 467.306 433.615 467.306C433.615 467.306 423.057 467.222 401.221 467.222C379.386 467.222 368.827 467.306 368.827 467.306C368.827 467.306 368.744 461.731 368.827 460.751C368.911 459.771 371.879 459.348 371.879 459.348V194.732C371.879 194.732 369.963 194.604 369.356 194.159C368.749 193.713 371.433 183.366 371.433 183.366H375.07C375.07 183.366 374.881 180.972 375.07 179.886C375.259 178.8 379.213 178.343 379.213 178.343V162.511C379.213 162.511 375.254 161.998 375.126 161.107C374.997 160.216 375.126 157.488 375.126 157.488C375.126 157.488 375.638 156.212 377.893 156.212C380.149 156.212 395.942 155.527 401.221 155.527Z" stroke="#9FF772" stroke-width="5.01198" stroke-miterlimit="10"/>
<path d="M336.399 467.506L348.489 467.4C348.662 465.997 348.489 464.037 348.489 464.037C348.489 464.037 347.977 463.569 346.401 463.057V418.277L342.48 413.51V338.342C342.48 338.342 342.87 333.062 336.399 333.062C329.928 333.062 330.318 338.342 330.318 338.342V413.51L326.397 418.277V463.057C324.821 463.569 324.309 464.037 324.309 464.037C324.309 464.037 324.137 466.103 324.309 467.506C324.315 467.506 334.032 467.506 336.399 467.506Z" stroke="#9FF772" stroke-width="5.01198" stroke-miterlimit="10"/>
<path d="M520.896 266.117C520.896 265.595 520.667 265.168 520.208 264.837C519.739 264.485 519.163 264.309 518.48 264.309C517.915 264.309 517.419 264.427 516.992 264.661C516.576 264.885 516.272 265.195 516.08 265.589L514.816 264.981C515.125 264.363 515.605 263.872 516.256 263.509C516.917 263.147 517.659 262.965 518.48 262.965C519.568 262.965 520.485 263.264 521.232 263.861C521.968 264.448 522.336 265.184 522.336 266.069C522.336 266.592 522.192 267.072 521.904 267.509C521.616 267.947 521.221 268.293 520.72 268.549C521.307 268.816 521.765 269.189 522.096 269.669C522.437 270.149 522.608 270.683 522.608 271.269C522.608 272.197 522.219 272.971 521.44 273.589C520.661 274.208 519.696 274.517 518.544 274.517C517.627 274.517 516.821 274.32 516.128 273.925C515.435 273.52 514.944 272.976 514.656 272.293L516.016 271.797C516.187 272.213 516.496 272.549 516.944 272.805C517.403 273.051 517.936 273.173 518.544 273.173C519.291 273.173 519.915 272.987 520.416 272.613C520.917 272.24 521.168 271.771 521.168 271.205C521.168 270.651 520.923 270.192 520.432 269.829C519.931 269.456 519.323 269.269 518.608 269.269H517.76V267.973H518.368C519.083 267.973 519.68 267.797 520.16 267.445C520.651 267.093 520.896 266.651 520.896 266.117ZM524.366 270.565V266.917C524.366 265.787 524.766 264.848 525.566 264.101C526.387 263.344 527.395 262.965 528.59 262.965C529.785 262.965 530.787 263.344 531.598 264.101C532.409 264.848 532.814 265.787 532.814 266.917V270.565C532.814 271.696 532.409 272.635 531.598 273.381C530.787 274.139 529.785 274.517 528.59 274.517C527.406 274.517 526.403 274.139 525.582 273.381C524.771 272.635 524.366 271.696 524.366 270.565ZM525.758 266.901V270.581C525.758 271.317 526.03 271.936 526.574 272.437C527.107 272.928 527.779 273.173 528.59 273.173C529.401 273.173 530.073 272.928 530.606 272.437C531.15 271.936 531.422 271.317 531.422 270.581V266.901C531.422 266.165 531.15 265.552 530.606 265.061C530.051 264.56 529.379 264.309 528.59 264.309C527.801 264.309 527.129 264.56 526.574 265.061C526.03 265.552 525.758 266.165 525.758 266.901ZM540.652 267.317V274.341H539.308V266.021H544.668V267.317H540.652ZM546.547 273.557C546.547 273.835 546.457 274.064 546.275 274.245C546.094 274.427 545.865 274.517 545.587 274.517C545.31 274.517 545.081 274.427 544.899 274.245C544.718 274.064 544.627 273.835 544.627 273.557C544.627 273.28 544.718 273.051 544.899 272.869C545.081 272.688 545.31 272.597 545.587 272.597C545.865 272.597 546.094 272.693 546.275 272.885C546.457 273.067 546.547 273.291 546.547 273.557Z" fill="#9FF772"/>
</g>
<path d="M488 119.841L453.832 79.3413H175V182.341" stroke="#9FF772"/>
<path d="M310 435.341H287V489.841H206V455.841" stroke="#9FF772"/>
<path d="M459.048 524.922H668.971C675.481 524.922 680.759 519.644 680.759 513.134V115.892V31.4841C680.759 31.4841 684.929 1 658.615 1H573.019C561.26 1 549.983 5.64704 541.638 13.9356L533.213 22.3036C522.925 32.5237 509.012 38.2558 494.514 38.2558H459.053H423.593C409.095 38.2558 395.182 32.5237 384.894 22.3036L376.463 13.9356C368.118 5.64704 356.836 1 345.076 1H259.486C233.172 1 237.336 31.4841 237.336 31.4841V115.898V513.14C237.336 519.65 242.614 524.928 249.124 524.928C249.13 524.922 459.048 524.922 459.048 524.922Z" stroke="white" stroke-width="1.01108" stroke-miterlimit="10" stroke-dasharray="2.02 2.02"/>
<path d="M237 306.341H137" stroke="#9FF772"/>
<defs>
<clipPath id="clip0_53_793">
<rect width="333.837" height="417.558" fill="white" transform="translate(274 61.3413)"/>
</clipPath>
</defs>
</svg>
