<svg width="26" height="48" viewBox="0 0 26 48" fill="none" xmlns="http://www.w3.org/2000/svg">
<g clip-path="url(#clip0_53_811)">
<path d="M19.6861 7.58339C20.8382 7.58339 21.9762 7.58104 23.113 7.58456C23.3465 7.58574 23.5858 7.5787 23.8134 7.62328C24.7555 7.8063 25.3996 8.64982 25.3327 9.58837C25.2635 10.5492 24.4997 11.2977 23.506 11.3223C22.4279 11.3481 21.3474 11.3305 20.268 11.3317C20.0991 11.3317 19.9302 11.3317 19.7354 11.3317C19.7354 12.2996 19.7354 13.2299 19.7354 14.2365C19.8727 14.2365 20.0205 14.2365 20.1683 14.2365C21.2324 14.2365 22.2953 14.2295 23.3594 14.2389C24.5103 14.2494 25.3386 15.0437 25.3362 16.1136C25.3339 17.1836 24.5056 17.972 23.3512 17.9813C22.151 17.9907 20.952 17.9837 19.7307 17.9837C19.7307 18.9304 19.7307 19.8291 19.7307 20.7735C19.8821 20.7806 20.0311 20.7935 20.1812 20.7935C21.2453 20.7958 22.3082 20.7864 23.3723 20.797C24.5173 20.8087 25.3456 21.6147 25.3362 22.6846C25.3268 23.737 24.5068 24.5312 23.3852 24.5383C21.5867 24.55 19.7882 24.5465 17.9897 24.5394C16.7203 24.5348 15.9566 23.764 15.9554 22.484C15.9519 17.8628 15.9601 13.2405 15.9507 8.61931C15.946 6.61317 15.0532 5.12674 13.2547 4.20461C10.8708 2.98215 7.64339 4.31607 6.86674 6.87596C6.68373 7.4778 6.58166 8.12775 6.58049 8.75658C6.56054 15.7042 6.56054 22.6518 6.57814 29.6006C6.58049 30.403 6.33177 31.0307 5.78976 31.6208C2.07897 35.6624 3.66512 41.9871 8.833 43.8126C13.2008 45.3565 18.0789 42.3766 18.6819 37.8023C18.9189 36.0015 18.5693 34.3332 17.6296 32.7787C17.4137 32.4221 17.1849 32.0467 17.0899 31.6501C16.8822 30.7761 17.3515 29.9361 18.1587 29.5806C18.9799 29.2193 19.902 29.4633 20.4464 30.2271C21.3087 31.4343 21.9305 32.76 22.2355 34.2124C23.2949 39.2512 21.155 44.0096 16.7039 46.559C12.0464 49.2268 5.72523 47.9645 2.45556 43.714C-0.663939 39.6583 -0.824665 34.5057 2.03674 30.2822C2.04495 30.2693 2.04964 30.2529 2.06137 30.2423C2.81221 29.5912 2.83098 28.7395 2.82629 27.8232C2.80048 21.4059 2.80517 14.9885 2.81573 8.57239C2.82512 4.35361 5.66423 0.905614 9.72932 0.144216C14.4455 -0.739193 18.9564 2.51171 19.6216 7.2725C19.6334 7.36283 19.658 7.45199 19.6861 7.58339Z" fill="white"/>
<path d="M13.1403 20.7945C13.1403 24.8373 13.145 28.8801 13.1321 32.9229C13.1309 33.2984 13.2224 33.5306 13.5415 33.7653C14.8532 34.7285 15.3213 36.4014 14.7769 37.9946C14.283 39.4388 12.8013 40.4759 11.248 40.4654C9.68176 40.4548 8.22232 39.4165 7.73779 37.9665C7.20517 36.3744 7.69087 34.7015 9.00835 33.7465C9.2993 33.5353 9.39433 33.3312 9.39316 32.9863C9.38377 24.9007 9.38847 16.8139 9.38143 8.72831C9.38143 8.09127 9.49405 7.50937 9.98092 7.06826C10.5499 6.55323 11.2186 6.40775 11.9401 6.68814C12.6405 6.96032 13.0289 7.50116 13.1251 8.24379C13.1485 8.42798 13.1391 8.61803 13.1391 8.80457C13.1403 12.8016 13.1403 16.7987 13.1403 20.7945Z" fill="white"/>
</g>
<defs>
<clipPath id="clip0_53_811">
<rect width="25.3373" height="47.9552" fill="white"/>
</clipPath>
</defs>
</svg>
