<svg width="337" height="451" viewBox="0 0 337 451" fill="none" xmlns="http://www.w3.org/2000/svg">
<g clip-path="url(#clip0_53_13340)">
<path d="M222.818 406.524H271.787V401.977C271.787 401.977 271.451 398.875 267.177 398.875C262.903 398.875 250.135 398.875 250.135 398.875V163.767C250.135 160.729 248.761 157.858 246.387 155.959C243.113 153.336 238.066 149.878 232.795 148.449V146.331H233.67V132.08C233.67 131.201 233.19 130.398 232.426 129.978C231.4 129.411 229.824 128.755 228.034 128.755V120.703C228.034 120.703 227.891 115.5 225.928 113.281V104.077C225.928 102.951 225.016 102.039 223.89 102.039H222.814H221.738C220.612 102.039 219.7 102.951 219.7 104.077V113.281C217.742 115.496 217.594 120.703 217.594 120.703V128.759C215.804 128.759 214.228 129.415 213.203 129.982C212.434 130.407 211.959 131.21 211.959 132.084V146.339H212.833V148.457C207.563 149.886 202.52 153.345 199.242 155.967C196.871 157.863 195.493 160.737 195.493 163.776V398.888C195.493 398.888 182.725 398.888 178.451 398.888C174.177 398.888 173.841 401.99 173.841 401.99V406.537H222.818" stroke="#9FF772" stroke-width="3.78237" stroke-miterlimit="10"/>
<path d="M217.599 128.684H228.038" stroke="#9FF772" stroke-width="3.78237" stroke-miterlimit="10"/>
<path d="M212.837 146.334H232.799" stroke="#9FF772" stroke-width="3.78237" stroke-miterlimit="10"/>
<path d="M250.14 172.581C250.14 172.581 234.128 172.581 222.818 172.581C211.513 172.581 195.497 172.581 195.497 172.581" stroke="#9FF772" stroke-width="3.78237" stroke-miterlimit="10"/>
<path d="M250.14 386.158C250.14 386.158 236.502 386.352 222.175 386.352C207.849 386.352 195.497 386.158 195.497 386.158" stroke="#9FF772" stroke-width="3.78237" stroke-miterlimit="10"/>
<path d="M124.86 171.227C128.845 171.227 140.759 171.739 142.465 171.739C144.167 171.739 144.554 172.702 144.554 172.702C144.554 172.702 144.651 174.757 144.554 175.433C144.457 176.11 141.469 176.492 141.469 176.492V188.441C141.469 188.441 144.453 188.785 144.596 189.605C144.739 190.424 144.596 192.231 144.596 192.231H147.34C147.34 192.231 149.366 200.036 148.908 200.376C148.45 200.716 147.004 200.809 147.004 200.809V400.51C147.004 400.51 149.244 400.829 149.307 401.569C149.37 402.308 149.307 406.515 149.307 406.515C149.307 406.515 141.339 406.452 124.86 406.452C108.382 406.452 100.414 406.515 100.414 406.515C100.414 406.515 100.351 402.308 100.414 401.569C100.477 400.829 102.717 400.51 102.717 400.51V200.813C102.717 200.813 101.271 200.716 100.813 200.38C100.355 200.044 102.381 192.236 102.381 192.236H105.125C105.125 192.236 104.982 190.428 105.125 189.609C105.268 188.789 108.252 188.445 108.252 188.445V176.497C108.252 176.497 105.264 176.11 105.167 175.438C105.07 174.765 105.167 172.706 105.167 172.706C105.167 172.706 105.554 171.743 107.256 171.743C108.958 171.743 120.876 171.227 124.86 171.227Z" stroke="#9FF772" stroke-width="3.78237" stroke-miterlimit="10"/>
<path d="M75.9416 406.667L85.0655 406.587C85.1958 405.528 85.0655 404.048 85.0655 404.048C85.0655 404.048 84.6789 403.695 83.4895 403.309V369.515L80.5309 365.918V309.191C80.5309 309.191 80.8251 305.207 75.9416 305.207C71.0581 305.207 71.3523 309.191 71.3523 309.191V365.918L68.3937 369.515V403.309C67.2043 403.695 66.8177 404.048 66.8177 404.048C66.8177 404.048 66.6874 405.608 66.8177 406.667C66.8219 406.667 74.1555 406.667 75.9416 406.667Z" stroke="#9FF772" stroke-width="3.78237" stroke-miterlimit="10"/>
<path d="M214.837 255.135C214.837 254.701 214.646 254.346 214.265 254.072C213.876 253.78 213.398 253.634 212.831 253.634C212.361 253.634 211.95 253.731 211.595 253.926C211.25 254.112 210.998 254.369 210.838 254.696L209.789 254.191C210.046 253.678 210.444 253.27 210.984 252.969C211.533 252.668 212.149 252.518 212.831 252.518C213.734 252.518 214.496 252.766 215.116 253.262C215.727 253.749 216.032 254.36 216.032 255.095C216.032 255.529 215.913 255.927 215.673 256.29C215.434 256.653 215.107 256.941 214.69 257.154C215.178 257.375 215.558 257.685 215.833 258.084C216.116 258.482 216.258 258.925 216.258 259.412C216.258 260.182 215.935 260.824 215.288 261.338C214.642 261.852 213.84 262.109 212.884 262.109C212.122 262.109 211.454 261.945 210.878 261.617C210.302 261.281 209.895 260.829 209.656 260.262L210.785 259.85C210.927 260.196 211.184 260.475 211.556 260.687C211.936 260.891 212.379 260.993 212.884 260.993C213.504 260.993 214.022 260.838 214.438 260.528C214.854 260.218 215.062 259.828 215.062 259.359C215.062 258.898 214.859 258.517 214.451 258.216C214.035 257.906 213.53 257.751 212.937 257.751H212.233V256.675H212.738C213.331 256.675 213.827 256.529 214.226 256.237C214.633 255.945 214.837 255.577 214.837 255.135ZM217.717 258.827V255.799C217.717 254.86 218.049 254.081 218.714 253.461C219.396 252.832 220.232 252.518 221.224 252.518C222.216 252.518 223.049 252.832 223.722 253.461C224.395 254.081 224.731 254.86 224.731 255.799V258.827C224.731 259.766 224.395 260.545 223.722 261.165C223.049 261.794 222.216 262.109 221.224 262.109C220.241 262.109 219.409 261.794 218.727 261.165C218.054 260.545 217.717 259.766 217.717 258.827ZM218.873 255.785V258.841C218.873 259.452 219.099 259.965 219.551 260.382C219.993 260.789 220.551 260.993 221.224 260.993C221.897 260.993 222.455 260.789 222.898 260.382C223.35 259.965 223.576 259.452 223.576 258.841V255.785C223.576 255.174 223.35 254.665 222.898 254.258C222.438 253.842 221.88 253.634 221.224 253.634C220.569 253.634 220.011 253.842 219.551 254.258C219.099 254.665 218.873 255.174 218.873 255.785ZM231.239 256.131V261.962H230.123V255.055H234.573V256.131H231.239ZM236.133 261.312C236.133 261.542 236.058 261.732 235.907 261.883C235.757 262.033 235.566 262.109 235.336 262.109C235.106 262.109 234.915 262.033 234.765 261.883C234.614 261.732 234.539 261.542 234.539 261.312C234.539 261.081 234.614 260.891 234.765 260.74C234.915 260.59 235.106 260.514 235.336 260.514C235.566 260.514 235.757 260.594 235.907 260.754C236.058 260.904 236.133 261.09 236.133 261.312Z" fill="#9FF772"/>
</g>
<path d="M50.4908 113.086V110.058C50.4908 109.119 50.8229 108.34 51.487 107.72C52.1689 107.091 53.0058 106.776 53.9977 106.776C54.9895 106.776 55.822 107.091 56.495 107.72C57.168 108.34 57.5046 109.119 57.5046 110.058V113.086C57.5046 114.025 57.168 114.804 56.495 115.424C55.822 116.053 54.9895 116.367 53.9977 116.367C53.0147 116.367 52.1822 116.053 51.5003 115.424C50.8273 114.804 50.4908 114.025 50.4908 113.086ZM51.6465 110.044V113.1C51.6465 113.711 51.8723 114.224 52.3239 114.64C52.7667 115.048 53.3246 115.251 53.9977 115.251C54.6707 115.251 55.2286 115.048 55.6714 114.64C56.1231 114.224 56.3489 113.711 56.3489 113.1V110.044C56.3489 109.433 56.1231 108.924 55.6714 108.517C55.2109 108.1 54.653 107.892 53.9977 107.892C53.3423 107.892 52.7844 108.1 52.3239 108.517C51.8723 108.924 51.6465 109.433 51.6465 110.044ZM64.0064 109.593C64.0064 109.123 63.816 108.725 63.4352 108.397C63.0456 108.061 62.5851 107.892 62.0537 107.892C61.5755 107.892 61.1504 108.034 60.7785 108.317C60.4065 108.592 60.1276 108.968 59.9416 109.447L58.8656 108.928C59.1402 108.264 59.5608 107.742 60.1276 107.361C60.6943 106.971 61.3364 106.776 62.0537 106.776C62.9393 106.776 63.6832 107.047 64.2854 107.587C64.8964 108.127 65.2019 108.782 65.2019 109.553C65.2019 110.049 65.047 110.54 64.737 111.027C64.4359 111.505 63.9444 112.072 63.2625 112.728L60.7785 115.105H65.3348V116.221H58.9719V115.358L62.4921 111.957C63.0411 111.417 63.4308 110.979 63.661 110.642C63.8913 110.297 64.0064 109.947 64.0064 109.593Z" fill="#9FF772"/>
<path d="M31.3033 263.635V260.606C31.3033 259.668 31.6354 258.888 32.2995 258.268C32.9814 257.64 33.8183 257.325 34.8102 257.325C35.802 257.325 36.6345 257.64 37.3075 258.268C37.9805 258.888 38.3171 259.668 38.3171 260.606V263.635C38.3171 264.574 37.9805 265.353 37.3075 265.973C36.6345 266.602 35.802 266.916 34.8102 266.916C33.8272 266.916 32.9947 266.602 32.3128 265.973C31.6398 265.353 31.3033 264.574 31.3033 263.635ZM32.459 260.593V263.648C32.459 264.259 32.6848 264.773 33.1364 265.189C33.5792 265.597 34.1371 265.8 34.8102 265.8C35.4832 265.8 36.0411 265.597 36.4839 265.189C36.9356 264.773 37.1614 264.259 37.1614 263.648V260.593C37.1614 259.982 36.9356 259.473 36.4839 259.065C36.0234 258.649 35.4655 258.441 34.8102 258.441C34.1548 258.441 33.5969 258.649 33.1364 259.065C32.6848 259.473 32.459 259.982 32.459 260.593ZM44.8455 259.942C44.8455 259.508 44.6551 259.154 44.2743 258.88C43.8846 258.587 43.4064 258.441 42.8396 258.441C42.3703 258.441 41.9585 258.539 41.6043 258.733C41.2589 258.919 41.0065 259.176 40.8471 259.504L39.7977 258.999C40.0545 258.485 40.453 258.078 40.9932 257.777C41.5423 257.476 42.1577 257.325 42.8396 257.325C43.7429 257.325 44.5045 257.573 45.1244 258.069C45.7355 258.556 46.041 259.167 46.041 259.902C46.041 260.336 45.9215 260.735 45.6824 261.098C45.4432 261.461 45.1156 261.749 44.6994 261.961C45.1864 262.183 45.5672 262.493 45.8418 262.891C46.1251 263.29 46.2668 263.732 46.2668 264.22C46.2668 264.99 45.9436 265.632 45.2971 266.146C44.6507 266.659 43.8492 266.916 42.8928 266.916C42.1312 266.916 41.4626 266.752 40.8869 266.425C40.3113 266.088 39.9039 265.636 39.6648 265.07L40.794 264.658C40.9356 265.003 41.1925 265.282 41.5644 265.495C41.9452 265.698 42.388 265.8 42.8928 265.8C43.5127 265.8 44.0307 265.645 44.447 265.335C44.8632 265.025 45.0713 264.636 45.0713 264.166C45.0713 263.706 44.8676 263.325 44.4603 263.024C44.044 262.714 43.5392 262.559 42.9459 262.559H42.2419V261.483H42.7467C43.34 261.483 43.8359 261.337 44.2344 261.045C44.6418 260.753 44.8455 260.385 44.8455 259.942Z" fill="#9FF772"/>
<circle cx="57.8248" cy="112.911" r="14.7597" stroke="#9FF772" stroke-width="1.47597"/>
<circle cx="38.6373" cy="263.46" r="14.7597" stroke="#9FF772" stroke-width="1.47597"/>
<path d="M190.349 144.296L164.563 113.732H80.4375" stroke="#9FF772" stroke-width="0.754666"/>
<path d="M38.6611 284.861V382.393H56.0185" stroke="#9FF772" stroke-width="0.754666"/>
<path d="M168.5 449.997H326.922C331.835 449.997 335.818 446.014 335.818 441.101V141.316V77.6162C335.818 77.6162 338.965 54.6108 319.106 54.6108H254.51C245.636 54.6108 237.126 58.1178 230.828 64.3729L224.47 70.688C216.705 78.4007 206.206 82.7265 195.265 82.7265H168.504H141.743C130.802 82.7265 120.303 78.4007 112.538 70.688L106.176 64.3729C99.8782 58.1178 91.3637 54.6108 82.4891 54.6108H17.8976C-1.96092 54.6108 1.18162 77.6162 1.18162 77.6162V141.32V441.105C1.18162 446.018 5.16447 450.001 10.0776 450.001C10.0819 449.997 168.5 449.997 168.5 449.997Z" stroke="white" stroke-width="0.763024" stroke-miterlimit="10" stroke-dasharray="1.53 1.53"/>
<path d="M168.258 81.916V38.375" stroke="#9FF772" stroke-width="0.754666"/>
<path d="M162.665 15.6727V12.644C162.665 11.7053 162.997 10.926 163.661 10.3061C164.343 9.67729 165.18 9.36291 166.171 9.36291C167.163 9.36291 167.996 9.67729 168.669 10.3061C169.342 10.926 169.678 11.7053 169.678 12.644V15.6727C169.678 16.6114 169.342 17.3907 168.669 18.0106C167.996 18.6394 167.163 18.9537 166.171 18.9537C165.188 18.9537 164.356 18.6394 163.674 18.0106C163.001 17.3907 162.665 16.6114 162.665 15.6727ZM163.82 12.6307V15.6859C163.82 16.297 164.046 16.8106 164.498 17.2269C164.941 17.6342 165.498 17.8379 166.171 17.8379C166.845 17.8379 167.402 17.6342 167.845 17.2269C168.297 16.8106 168.523 16.297 168.523 15.6859V12.6307C168.523 12.0196 168.297 11.5104 167.845 11.1031C167.385 10.6869 166.827 10.4787 166.171 10.4787C165.516 10.4787 164.958 10.6869 164.498 11.1031C164.046 11.5104 163.82 12.0196 163.82 12.6307ZM173.524 10.9835L171.65 11.9665L171.146 10.9437L173.882 9.50903H174.679V18.8076H173.524V10.9835Z" fill="#9FF772"/>
<circle cx="168.522" cy="15.4976" r="14.7597" stroke="#9FF772" stroke-width="1.47597"/>
<defs>
<clipPath id="clip0_53_13340">
<rect width="251.936" height="315.117" fill="white" transform="translate(28.8506 100.148)"/>
</clipPath>
</defs>
</svg>
