<svg width="107" height="107" viewBox="0 0 107 107" fill="none" xmlns="http://www.w3.org/2000/svg">
<g clip-path="url(#clip0_53_724)">
<path d="M51.7552 98.1485C49.4859 100.7 47.3562 103.121 45.1958 105.516C44.2579 106.554 43.066 106.967 41.6481 106.961C34.2987 106.93 26.9521 106.95 19.6027 106.947C17.4395 106.947 15.9155 105.963 15.2763 104.172C14.6371 102.376 15.2177 100.653 16.8757 99.2808C21.8692 95.1506 25.7128 90.2256 27.2396 83.7946C27.5969 82.2887 27.7616 80.7019 27.7728 79.1513C27.8286 72.0176 27.7979 64.8839 27.8007 57.7502C27.8035 50.9428 31.982 45.9704 38.6754 44.7517C42.8092 43.9987 46.9403 43.2207 51.0658 42.4119C54.8256 41.6757 56.8632 38.7251 56.238 34.9157C55.3894 29.7425 54.4851 24.5804 53.6142 19.41C53.0252 15.9241 52.7015 12.4688 54.0999 9.04692C56.5311 3.09845 62.6774 -0.63852 69.0219 0.0865636C75.5786 0.836746 80.8987 5.85098 81.9482 12.1676C82.4116 14.9536 81.8561 17.6447 81.3788 20.3359C80.5135 25.2219 79.5171 30.0855 78.6071 34.9659C77.9288 38.6024 80.1953 41.7482 83.8798 42.4286C88.2509 43.2402 92.6164 44.0657 96.9764 44.9385C102.824 46.1098 106.963 51.1743 106.991 57.1395C107.005 59.9589 106.997 62.7756 106.994 65.5951C106.991 68.5205 105.331 70.1938 102.422 70.1938C80.8289 70.1938 59.2358 70.1938 37.6426 70.1938C37.196 70.1938 36.7466 70.1938 36.2219 70.1938C36.1968 70.5563 36.1605 70.8575 36.1577 71.1559C36.1521 73.557 36.0991 75.9582 36.1633 78.3593C36.3587 85.4512 34.0726 91.7315 30.042 97.4625C29.8215 97.7748 29.601 98.0844 29.3052 98.5027C29.6401 98.5417 29.8885 98.5947 30.1369 98.5947C33.2352 98.6003 36.3363 98.6254 39.4346 98.5696C39.9119 98.5613 40.5176 98.2963 40.8386 97.9477C45.2739 93.1371 48.3527 87.5539 50.167 81.2736C50.8955 78.7525 52.2604 77.5059 54.3678 77.5004C56.2436 77.4948 57.6252 78.3649 58.2784 80.0856C60.249 85.2643 60.9217 90.6411 60.4695 96.1601C60.4081 96.9187 60.2965 97.6744 60.1988 98.5166C62.9342 98.5166 65.6585 98.5166 68.6842 98.5166C68.7456 95.8282 68.821 93.1064 68.86 90.3818C68.8712 89.5842 68.7484 88.7838 68.7596 87.9862C68.7903 85.8082 70.5878 84.0317 72.765 83.9843C75.0566 83.9369 77.0189 85.5599 77.0719 87.7742C77.1584 91.3439 77.0942 94.9191 77.0942 98.6003C77.3985 98.6003 77.739 98.6003 78.0796 98.6003C83.2685 98.6003 88.4574 98.5752 93.6464 98.6254C94.5033 98.6338 94.9806 98.3186 95.4272 97.6633C97.2611 94.9777 98.0873 91.9574 98.4222 88.7782C98.5506 87.5707 98.573 86.3492 98.6372 85.1333C98.7488 83.0612 100.507 81.3377 102.581 81.2708C104.837 81.1983 106.885 82.76 106.944 84.8851C107.123 91.5001 105.833 97.7414 101.769 103.171C101.25 103.866 100.63 104.485 100.03 105.115C98.7907 106.414 97.3253 106.981 95.4663 106.975C81.9873 106.919 68.5083 106.875 55.0322 106.995C51.8473 107.022 49.1901 104.038 50.862 100.644C51.2444 99.8887 51.4454 99.0437 51.7552 98.1485ZM98.6372 61.8079C98.6372 60.1904 98.6762 58.6956 98.6288 57.2008C98.5618 55.0535 97.1662 53.4889 95.0308 53.0818C90.629 52.2424 86.2272 51.4029 81.8282 50.5635C74.557 49.1747 69.2173 42.1079 70.2166 34.8292C70.973 29.3325 72.0979 23.886 73.0441 18.4144C73.2981 16.9475 73.7726 15.4555 73.6861 14.0054C73.4824 10.6728 70.1859 8.06527 66.9452 8.42223C63.4227 8.80987 60.9524 11.8859 61.5051 15.4053C62.4318 21.3036 63.3557 27.2047 64.4833 33.0667C66.0213 41.051 61.3795 48.6142 53.4495 50.4492C48.9863 51.481 44.4561 52.2228 39.951 53.0651C38.1451 53.4025 36.7215 54.32 36.3977 56.1271C36.0684 57.9733 36.1716 59.8976 36.0823 61.8107C57.0502 61.8079 77.7921 61.8079 98.6372 61.8079Z" fill="#171717"/>
<path d="M11.6952 21.9449C11.7036 24.2819 9.88927 26.1253 7.56974 26.142C5.18322 26.1588 3.3354 24.321 3.34378 21.9421C3.35215 19.6163 5.18322 17.798 7.5195 17.8008C9.85299 17.798 11.6868 19.6163 11.6952 21.9449Z" fill="#171717"/>
<path d="M22.1511 32.6232C24.4845 32.626 26.3156 34.447 26.3212 36.7729C26.3268 39.1489 24.4734 40.9839 22.0869 40.9672C19.7701 40.9505 17.9614 39.1015 17.9698 36.7645C17.9809 34.4359 19.8148 32.6204 22.1511 32.6232Z" fill="#171717"/>
<path d="M12.7395 60.4022C12.7339 62.7281 10.9028 64.5575 8.57492 64.5603C6.19956 64.5631 4.3685 62.7086 4.39083 60.3214C4.41037 58.0067 6.26097 56.2051 8.60562 56.2191C10.9307 56.2302 12.7451 58.068 12.7395 60.4022Z" fill="#171717"/>
<path d="M20.0526 76.4405C20.061 78.7775 18.2467 80.6237 15.9272 80.6376C13.5406 80.6543 11.6928 78.8193 11.7012 76.4377C11.7096 74.1119 13.5406 72.2936 15.8769 72.2936C18.2132 72.2964 20.0471 74.1147 20.0526 76.4405Z" fill="#171717"/>
<path d="M4.16736 95.2537C1.83666 95.2537 0.00559515 93.427 1.26346e-05 91.1039C-0.00556988 88.7223 1.83945 86.8957 4.23156 86.9124C6.55109 86.9291 8.35982 88.7753 8.34866 91.1151C8.34028 93.4354 6.50085 95.2564 4.16736 95.2537Z" fill="#171717"/>
</g>
<defs>
<clipPath id="clip0_53_724">
<rect width="107" height="107" fill="white"/>
</clipPath>
</defs>
</svg>
