<svg width="107" height="107" viewBox="0 0 107 107" fill="none" xmlns="http://www.w3.org/2000/svg">
<g clip-path="url(#clip0_53_720)">
<path d="M26.2344 31.959C25.8827 31.6806 25.5268 31.4483 25.2337 31.1553C17.3479 23.2823 9.47459 15.3966 1.58247 7.52986C0.422727 6.37255 -0.251348 5.06246 0.0877831 3.41125C0.414354 1.82492 1.37522 0.728302 2.9369 0.232312C4.50486 -0.265771 5.92 0.0962808 7.08602 1.21801C8.89263 2.95503 10.6469 4.74855 12.42 6.52114C43.2998 37.3918 74.1774 68.2646 105.07 99.1249C106.311 100.364 107.276 101.668 106.929 103.522C106.631 105.117 105.689 106.238 104.142 106.757C102.459 107.322 100.979 106.877 99.742 105.642C95.3773 101.291 91.0188 96.9316 86.6688 92.5682C86.3757 92.2752 86.1538 91.9131 85.6995 91.3229C85.3855 91.8085 85.2473 92.091 85.0485 92.3212C76.208 102.44 65.0523 107.383 51.6336 106.937C33.3121 106.33 17.2285 92.7398 13.1485 74.7899C11.0321 65.477 12.2295 56.6559 16.678 48.3015C19.3387 43.304 22.3218 38.4801 25.1667 33.5809C25.4577 33.0765 25.8073 32.6035 26.2344 31.959ZM32.0875 38.252C28.4241 43.8544 25.0118 49.5698 22.4704 55.7832C20.5319 60.5276 20.0944 65.3724 20.8418 70.4097C24.3482 94.0268 51.0495 106.272 71.2069 93.4806C74.4956 91.3941 77.3217 88.799 79.6077 85.7624C63.7565 69.9096 47.9618 54.1216 32.0875 38.252Z" fill="#171717"/>
<path d="M53.4336 10.5036C50.6201 13.9002 47.8944 17.1964 45.1626 20.4883C43.6951 22.2567 41.4949 22.6815 39.6506 21.5661C37.4149 20.2121 36.9334 17.3701 38.6772 15.2417C41.587 11.6881 44.5576 8.18063 47.5155 4.66684C48.4345 3.5765 49.3808 2.5029 50.3542 1.46278C52.1524 -0.458397 54.8759 -0.506531 56.6197 1.4565C67.8906 14.1493 78.5272 27.3275 87.0515 42.0754C90.2439 47.5962 92.9821 53.3304 94.3449 59.6276C94.9541 62.4466 95.0106 65.297 94.7762 68.1473C94.571 70.6315 92.6032 72.2848 90.2733 72.0964C87.9852 71.9102 86.2853 70.0204 86.4926 67.5676C86.9678 61.9694 85.2009 56.9321 82.8438 52.0245C78.8621 43.7392 73.7898 36.1235 68.2297 28.8469C63.6682 22.8762 58.8408 17.1064 54.1286 11.2507C53.9611 11.0331 53.7581 10.8468 53.4336 10.5036Z" fill="#171717"/>
</g>
<defs>
<clipPath id="clip0_53_720">
<rect width="107" height="107" fill="white"/>
</clipPath>
</defs>
</svg>
