<svg width="108" height="108" viewBox="0 0 108 108" fill="none" xmlns="http://www.w3.org/2000/svg">
<g clip-path="url(#clip0_53_732)">
<path d="M101.549 29.1367C101.027 30.0414 100.617 31.0406 99.9525 31.8265C99.0235 32.9256 97.8784 33.8384 96.89 34.8944C96.6658 35.132 96.5443 35.6964 96.6658 35.9908C98.2511 39.8716 99.3907 43.8658 99.8931 48.0301C99.9849 48.7944 100.331 49.0969 101.081 49.2373C102.378 49.4803 103.652 49.8422 104.927 50.1906C106.853 50.7199 108 52.1647 108 54.0012C108 55.8376 106.858 57.2797 104.927 57.8144C103.652 58.1682 102.375 58.5247 101.079 58.7677C100.331 58.9082 99.9768 59.2106 99.8877 59.9722C99.3907 64.1365 98.2457 68.1307 96.6631 72.0115C96.5416 72.3086 96.6658 72.8703 96.89 73.1107C97.8784 74.1666 98.9586 75.1307 99.9768 76.1597C101.411 77.6099 101.694 79.4004 100.787 80.9883C99.8607 82.6114 98.1269 83.2568 96.1095 82.7113C94.7943 82.3575 93.4764 82.0119 92.1801 81.596C91.5509 81.3934 91.1539 81.4852 90.7461 82.0281C88.2507 85.3579 85.3044 88.2449 82.0285 90.8104C81.7261 91.0481 81.5262 91.7043 81.6099 92.0932C81.9286 93.5381 82.4147 94.9451 82.7901 96.3791C83.2492 98.1399 82.5471 99.8656 81.059 100.754C79.5818 101.637 77.7157 101.451 76.3897 100.198C75.3391 99.2066 74.3291 98.1642 73.3704 97.084C72.8627 96.5114 72.4387 96.4196 71.7311 96.7248C68.0691 98.2992 64.2531 99.3579 60.2914 99.8359C59.4056 99.9439 58.8573 100.209 58.7142 101.235C58.5441 102.458 58.1498 103.649 57.8311 104.851C57.3018 106.849 55.8597 108.016 53.9638 108.003C52.1382 107.989 50.6934 106.814 50.183 104.889C49.8346 103.574 49.4889 102.253 49.2108 100.922C49.0757 100.265 48.7598 99.9952 48.1089 99.9142C43.9068 99.393 39.8721 98.2533 35.9562 96.6492C35.6699 96.5303 35.1109 96.6924 34.8651 96.9219C33.8119 97.913 32.8478 98.9933 31.8188 100.009C30.3956 101.416 28.5457 101.691 26.9821 100.77C25.4049 99.8413 24.7541 98.121 25.2726 96.1874C25.6372 94.8344 25.9936 93.4759 26.4257 92.1445C26.6364 91.4937 26.4689 91.1156 25.945 90.7213C22.6476 88.2476 19.7579 85.3552 17.2815 82.0632C16.8872 81.5366 16.5118 81.3718 15.861 81.5798C14.4891 82.02 13.0955 82.3981 11.702 82.768C9.85751 83.2541 8.14262 82.5736 7.23252 81.0288C6.33322 79.5003 6.57627 77.6342 7.90497 76.2785C8.9447 75.2171 10.0628 74.2314 11.0701 73.1404C11.3104 72.8811 11.4374 72.2681 11.3077 71.9467C9.76299 68.1388 8.62063 64.2284 8.13722 60.1423C8.04 59.3268 7.74563 58.8812 6.85443 58.7353C5.59325 58.5274 4.36177 58.1493 3.12219 57.8252C1.15885 57.3067 -0.0213133 55.8268 0.000291606 53.9309C0.0218965 52.108 1.21556 50.674 3.1411 50.1744C4.38068 49.853 5.61215 49.4668 6.87334 49.2643C7.78074 49.1185 8.0454 48.6405 8.13992 47.8438C8.62603 43.7578 9.77379 39.8473 11.3158 36.0421C11.4455 35.7208 11.305 35.1131 11.062 34.8485C10.0817 33.7871 8.99601 32.8257 7.98059 31.7968C6.58437 30.3816 6.31431 28.5128 7.24332 26.96C8.18043 25.3909 9.89262 24.7563 11.8371 25.2775C13.1523 25.6313 14.4755 25.9608 15.7664 26.3902C16.447 26.617 16.8575 26.5117 17.295 25.9283C19.766 22.6282 22.6611 19.744 25.9558 17.2675C26.4906 16.8678 26.6229 16.4843 26.4176 15.8416C25.9747 14.4697 25.5993 13.0762 25.2294 11.6826C24.746 9.85163 25.4454 8.11784 26.9929 7.22394C28.4971 6.35434 30.32 6.56499 31.6514 7.83968C32.7236 8.86861 33.7471 9.94885 34.7598 11.0345C35.1595 11.4639 35.4944 11.6097 36.0993 11.3505C39.8721 9.7247 43.7987 8.61475 47.8848 8.13404C48.722 8.03682 49.1243 7.70465 49.2675 6.82965C49.4673 5.60897 49.8508 4.41801 50.1641 3.21624C50.6907 1.19078 52.1004 0.00791476 53.9773 -0.00288767C55.8732 -0.0109895 57.3072 1.15297 57.8338 3.15952C58.1795 4.47742 58.4387 5.81962 58.8546 7.11321C58.9762 7.494 59.465 7.9666 59.8377 8.02332C64.0641 8.63906 68.1501 9.7301 72.1011 11.3559C72.3793 11.4693 72.9302 11.2803 73.1786 11.048C74.1995 10.0839 75.142 9.03335 76.1358 8.04222C77.5833 6.6001 79.363 6.30033 80.9591 7.19693C82.5957 8.11514 83.2627 9.85433 82.7226 11.8582C82.358 13.2112 81.907 14.5453 81.6153 15.9118C81.5316 16.3007 81.7342 16.9569 82.0366 17.1919C85.3179 19.7521 88.2588 22.6444 90.7542 25.9743C91.1647 26.5198 91.559 26.6062 92.1882 26.4037C93.5979 25.9499 95.0239 25.5341 96.4633 25.1803C98.9884 24.5618 101.292 26.401 101.549 29.1367ZM52.6702 15.5121C29.8744 16.19 13.3737 36.6336 15.653 58.0035C17.7082 77.2858 34.8786 94.729 58.6359 92.3201C77.0027 90.4594 94.7565 72.8757 92.3125 49.9854C90.1007 29.2555 72.5818 15.1367 52.6702 15.5121Z" fill="#171717"/>
<path d="M54.1506 77.205C58.8362 77.2159 63.0518 75.7656 66.9191 73.1892C68.5881 72.0793 70.2624 72.0226 71.6316 72.9813C73.9272 74.5909 73.8813 77.8586 71.4426 79.4763C61.4828 86.0846 51.0233 86.965 40.3424 81.5557C31.4061 77.0295 25.6835 69.7541 23.5527 59.8699C22.1214 53.2318 23.2233 46.8745 26.094 40.7928C27.023 38.8213 29.2726 38.0354 31.1819 38.8969C33.1291 39.7719 33.996 41.9945 33.094 44.0578C31.8301 46.9474 30.9146 49.9046 30.8039 53.0859C30.5338 60.8826 33.68 67.1075 39.6213 71.9686C43.8235 75.3983 48.6927 77.1618 54.1506 77.205Z" fill="#171717"/>
<path d="M53.2756 23.0821C69.166 23.0119 82.6636 34.773 84.6405 49.7641C85.2103 54.0797 84.9105 58.3277 83.6737 62.5029C83.0012 64.7714 80.9893 66.0299 78.9152 65.4816C76.7736 64.9145 75.5745 62.8134 76.2119 60.4774C78.2211 53.1129 77.0707 46.3343 72.5202 40.1932C66.1683 31.6187 54.7799 28.567 44.9605 32.7098C43.9936 33.1176 42.8783 33.4551 41.8602 33.3903C40.1318 33.2823 38.8004 31.7943 38.5924 30.1766C38.3683 28.4212 39.2055 26.8441 40.8744 26.0555C45.0334 24.0894 49.4003 23.0308 53.2756 23.0821Z" fill="#171717"/>
</g>
<defs>
<clipPath id="clip0_53_732">
<rect width="108" height="108" fill="white"/>
</clipPath>
</defs>
</svg>
