<svg width="103" height="103" viewBox="0 0 103 103" fill="none" xmlns="http://www.w3.org/2000/svg">
<g clip-path="url(#clip0_53_737)">
<path d="M98.4871 0H39.0138H4.46762C1.5034 0 0 1.50872 0 4.48624C0 35.8261 0 67.1659 0 98.5084C0 101.489 1.50074 103 4.45963 103C20.1296 103 35.7995 103 51.4694 103C67.1393 103 82.8092 103 98.4792 103C101.518 103 102.995 101.518 102.995 98.4659C102.995 67.1579 102.995 35.85 102.995 4.54212C103 1.48477 101.523 0 98.4871 0ZM36.0576 81.0903C39.4715 78.6849 42.8881 76.2794 46.3046 73.8767L47.3557 73.1369C49.2875 71.7772 49.4072 70.1222 49.1677 68.9727C48.8351 67.3735 47.7442 66.2799 46.0918 65.894C44.6549 65.5588 43.5054 66.2133 42.7657 66.7349C40.0862 68.6241 37.404 70.508 34.6792 72.4238L32.7661 73.7676C32.5133 73.1556 32.2632 72.5409 32.013 71.9289C31.5501 70.7927 31.0711 69.6166 30.5815 68.4671C29.6316 66.2346 27.4949 65.2607 25.3875 66.1016C24.4083 66.4927 23.6526 67.2191 23.2588 68.1478C22.8277 69.1642 22.8516 70.3616 23.3253 71.5165C25.5657 76.9792 27.8168 82.4394 30.0653 87.8995L33.0508 95.1504C30.9221 95.1504 28.796 95.1504 26.6673 95.1504C20.5606 95.1477 14.249 95.1477 8.03852 95.1743C7.95869 95.1743 7.88951 95.1717 7.83895 95.169C7.83363 95.1158 7.83097 95.044 7.83097 94.9455C7.85492 79.2437 7.85492 63.1533 7.83363 45.7565C7.83363 45.3786 7.88951 45.2829 8.23276 45.0726C15.2921 40.7274 21.8192 36.6802 28.192 32.6996C28.49 32.5133 28.5885 32.492 28.9717 32.6889C39.1442 37.9042 47.6271 42.2282 55.6736 46.2993C56.2271 46.5787 57.3366 47.0417 58.4569 46.9991C60.1918 46.9326 61.5887 45.6474 61.932 43.8034C62.2513 42.0871 61.4823 40.5039 59.9283 39.6711C58.4622 38.8861 56.9588 38.1251 55.506 37.388C54.8993 37.082 54.2926 36.7734 53.6886 36.4647L49.1198 34.1284C49.6653 33.3648 50.1815 32.641 50.735 31.9439C50.7962 31.9252 50.9053 31.9039 51.0277 31.9039C52.5976 31.8906 54.1995 31.8906 55.7454 31.8906C56.7725 31.8906 57.7996 31.8906 58.8267 31.888C61.2242 31.88 62.9883 30.2515 63.0229 28.0164C63.0389 26.976 62.6611 26.0074 61.9586 25.289C61.1949 24.5067 60.1066 24.0703 58.8906 24.0597C57.1663 24.0437 55.4181 24.0464 53.7258 24.049C52.1799 24.0517 50.5807 24.0544 49.0134 24.041C49.0001 24.041 48.9868 24.041 48.9735 24.041C47.4328 24.041 46.1796 24.7063 45.2509 26.0181C44.4181 27.1942 43.5852 28.3437 42.7018 29.5597C42.4756 29.871 42.2495 30.185 42.0206 30.499C41.9328 30.4591 41.8477 30.4165 41.7652 30.3739C40.786 29.8737 39.8041 29.3788 38.8222 28.8812C36.188 27.5454 33.4632 26.1644 30.805 24.7701C29.0515 23.8495 27.3884 23.9133 25.7147 24.9617C21.2391 27.7716 16.6678 30.6001 12.2507 33.3355C10.7872 34.2429 9.32106 35.1476 7.85758 36.0549C7.85758 33.7745 7.85758 31.4915 7.85758 29.2111C7.85758 22.2769 7.86024 15.1085 7.83629 8.05448C7.83629 7.96135 7.83895 7.88951 7.84427 7.83629C7.89483 7.83363 7.95071 7.82831 8.04916 7.82831C27.8834 7.85226 48.593 7.85492 71.3621 7.83097C71.3648 7.83097 71.3648 7.83097 71.3675 7.83097C71.748 7.83097 71.8411 7.88685 72.0327 8.21414C72.9267 9.75745 73.8474 11.3194 74.7361 12.8308C75.8803 14.7732 77.0617 16.7822 78.2033 18.7698C78.2751 18.8976 78.2964 19.2382 78.2405 19.3818C77.8015 20.4888 77.3039 21.6037 76.8249 22.6813C76.5269 23.3519 76.2289 24.0198 75.9389 24.693C74.9596 26.9813 75.7286 29.2324 77.8068 30.1637C79.8823 31.095 82.1254 30.1345 83.1418 27.8754C83.6847 26.6673 84.2222 25.4354 84.741 24.2433C85.2546 23.0672 85.7841 21.8511 86.3189 20.6617C86.9522 19.2541 86.8484 17.8279 86.0103 16.4283C84.624 14.1106 83.2323 11.7425 81.8886 9.45145L80.9466 7.8496C82.1467 7.8496 83.3441 7.8496 84.5415 7.8496C88.0006 7.85226 91.5768 7.85226 95.0972 7.83363C95.1291 7.83363 95.1584 7.83363 95.1823 7.83363C95.1823 7.84693 95.1823 7.86024 95.1823 7.8762C95.169 16.6172 95.1664 25.3555 95.1637 34.0965C95.161 42.1483 95.1557 50.1975 95.1477 58.2493C95.1477 58.3611 95.0945 58.5207 95.0546 58.5899C93.5645 59.6223 92.0718 60.6015 90.4912 61.6393C90.2464 61.7989 90.0016 61.9612 89.7541 62.1236L89.4135 61.602C88.4237 60.0906 87.4445 58.5952 86.4653 57.1025C86.3349 56.9029 86.2045 56.7034 86.0768 56.5038C85.7442 55.9876 85.3983 55.4527 85.0311 54.9339C83.7246 53.0925 81.4469 52.6083 79.6135 53.787C77.7828 54.9631 77.2773 57.3553 78.4614 59.2338C79.5098 60.8969 80.606 62.5626 81.6677 64.1751C82.1653 64.9281 82.6602 65.6838 83.1552 66.4395C83.1631 66.4528 83.1711 66.4635 83.1791 66.4768L78.7008 69.441C77.9079 69.9625 77.1176 70.4867 76.33 71.0162C75.231 71.756 74.51 72.7724 74.2944 73.8793C74.1028 74.8612 74.313 75.8404 74.9011 76.7105C76.189 78.6157 78.5731 78.9669 80.7018 77.5646C84.145 75.2949 87.5829 73.0172 91.0207 70.7395L95.169 67.9935C95.169 70.1993 95.169 72.4052 95.169 74.6084C95.169 81.2739 95.1664 88.1629 95.1903 94.9428C95.1903 95.0386 95.1877 95.1105 95.1823 95.1637C95.1344 95.1664 95.0706 95.1717 94.9881 95.1717C94.9854 95.1717 94.9854 95.1717 94.9828 95.1717C78.6157 95.1451 61.2668 95.1451 41.9408 95.1664C41.5896 95.169 41.5869 95.1664 41.4485 94.8258C40.0063 91.2549 38.5668 87.7771 37.0421 84.0944C36.651 83.1498 36.2571 82.1999 35.8633 81.2473C35.9166 81.1941 35.9884 81.1409 36.0576 81.0903Z" fill="#171717"/>
</g>
<defs>
<clipPath id="clip0_53_737">
<rect width="103" height="103" fill="white"/>
</clipPath>
</defs>
</svg>
