<svg width="103" height="103" viewBox="0 0 103 103" fill="none" xmlns="http://www.w3.org/2000/svg">
<g clip-path="url(#clip0_53_739)">
<path d="M9.854e-05 51.4636C0.0553124 23.0451 23.2684 -0.122079 51.564 -2.34625e-05C80.0369 0.122032 103.148 23.3038 102.997 51.5886C102.846 80.0391 79.8335 103.012 51.4914 103C23.0998 102.988 -0.0551153 79.8153 9.854e-05 51.4636ZM51.4536 6.62001C26.6277 6.68395 6.63448 26.6923 6.61704 51.4898C6.59961 76.2931 26.7643 96.4439 51.5408 96.3828C76.3609 96.3218 96.3628 76.3048 96.3802 51.5131C96.3977 26.701 76.233 6.55317 51.4536 6.62001Z" fill="#171717"/>
<path d="M18.0523 37.0815C17.0381 36.5759 16.0966 36.0528 15.1115 35.6227C13.7137 35.0124 12.8535 33.9924 12.8506 32.4696C12.8477 30.9497 13.6875 29.9239 15.0911 29.3078C20.2405 27.0381 24.1956 23.4637 26.8168 18.4565C27.1016 17.9131 27.3341 17.3406 27.5636 16.7739C28.0925 15.4719 29.0428 14.7251 30.4493 14.6612C31.8558 14.5972 32.8874 15.2627 33.5325 16.4891C33.9684 17.3173 34.3317 18.1833 34.7618 19.1133C44.8601 14.2688 55.1153 13.6615 65.4665 17.9131C73.3475 21.1475 79.3339 26.6313 83.4517 34.0883C91.5333 48.7174 88.3977 67.142 75.9426 78.464C63.5398 89.7396 44.8717 91.0386 31.0537 81.6055C17.0817 72.0619 11.0634 53.9019 18.0523 37.0815ZM38.9435 24.4924C41.0939 26.5732 43.4304 28.1192 46.0428 29.2467C47.4697 29.8628 48.4025 30.8451 48.4112 32.4347C48.4199 34.0214 47.4755 34.9514 46.0981 35.6721C44.2469 36.6398 42.3871 37.6598 40.722 38.9094C37.5951 41.2576 35.3052 44.3147 33.7592 47.9241C32.9659 49.7724 31.7337 50.4989 30.0308 50.1821C28.6853 49.9322 27.9124 49.04 27.4271 47.8195C26.5117 45.5179 25.1488 43.5069 23.4604 41.615C19.4908 51.6613 21.7197 66.7903 34.1312 75.741C45.9702 84.2791 62.2932 82.9161 72.6123 72.5531C83.0158 62.1028 84.2828 45.7591 75.5532 33.8877C66.5911 21.6909 50.9249 18.7849 38.9435 24.4924ZM30.6265 39.6447C33.0385 37.253 35.5435 34.7741 37.877 32.458C35.5115 30.1069 32.992 27.6048 30.6382 25.2683C28.232 27.6484 25.7125 30.1389 23.3819 32.4434C25.7677 34.8148 28.2669 37.2995 30.6265 39.6447Z" fill="#171717"/>
<path d="M40.126 69.3622C40.5415 68.5921 40.806 67.6738 41.3988 67.078C49.8727 58.54 58.3843 50.0368 66.9047 41.5453C68.2821 40.1736 70.2931 40.1852 71.5863 41.4639C72.9288 42.792 72.9172 44.7768 71.4816 46.2153C63.0601 54.6546 54.6298 63.0822 46.1937 71.504C45.1214 72.5763 43.8573 73.0791 42.3462 72.4543C41.0908 71.9399 40.3672 70.8443 40.126 69.3622Z" fill="#171717"/>
<path d="M55.5859 70.9722C55.8039 70.5682 56.0741 69.6557 56.6612 69.0571C60.6889 64.9421 64.7689 60.8765 68.8605 56.8225C70.2147 55.4799 72.2751 55.4828 73.545 56.744C74.8527 58.043 74.8788 60.025 73.5014 61.417C69.4243 65.5349 65.3181 69.6237 61.2119 73.7126C60.1948 74.7268 59.0208 75.0552 57.6492 74.4217C56.3764 73.8317 55.6964 72.8669 55.5859 70.9722Z" fill="#171717"/>
</g>
<defs>
<clipPath id="clip0_53_739">
<rect width="103" height="103" fill="white"/>
</clipPath>
</defs>
</svg>
