<svg width="110" height="110" viewBox="0 0 110 110" fill="none" xmlns="http://www.w3.org/2000/svg">
<g clip-path="url(#clip0_53_745)">
<path d="M83.7688 55.0714C82.3277 53.7069 81.103 52.6743 80.0244 51.5078C77.1301 48.3767 75.9602 44.7247 77.3434 40.5885C78.7296 36.4492 81.6696 33.8542 85.9807 33.0227C89.4143 32.3617 92.5462 33.3242 95.0384 35.6939C99.1971 39.6443 103.307 43.6617 107.207 47.8619C110.96 51.9068 110.918 58.169 107.146 62.1986C103.283 66.3318 99.2794 70.3493 95.1329 74.1992C91.7175 77.3729 87.5985 78.1496 83.3087 76.1089C79.0708 74.0956 76.8041 70.6051 76.8163 65.8475C76.8254 63.1642 77.8826 60.7976 79.7045 58.8452C80.9019 57.5781 82.2607 56.4633 83.7688 55.0714ZM88.2992 40.1133C86.2335 40.2474 85.1185 41.0636 84.4391 42.4647C83.7414 43.9084 84.0795 45.2212 85.155 46.3299C87.0043 48.2366 88.8994 50.1006 90.7761 51.9829C92.8022 54.0175 92.8083 55.9791 90.7914 58.0045C88.9695 59.8351 87.1384 61.6534 85.3226 63.4901C84.3294 64.4952 83.8175 65.6374 84.2623 67.0994C84.9113 69.2254 87.9275 71.1564 90.3435 68.7563C94.0879 65.0373 97.8353 61.3214 101.54 57.5659C103.03 56.0552 103.051 53.9932 101.549 52.4611C97.8261 48.6691 94.0635 44.9136 90.2551 41.2068C89.6519 40.6129 88.7318 40.3448 88.2992 40.1133Z" fill="#171717"/>
<path d="M54.9863 83.763C56.3878 82.2675 57.448 80.9578 58.685 79.8491C62.0515 76.8368 65.9482 75.8682 70.177 77.65C74.4576 79.4532 76.8675 82.8188 77.1417 87.4911C77.3093 90.3785 76.2856 92.998 74.29 95.0691C70.3385 99.1688 66.3717 103.265 62.21 107.149C58.0604 111.017 51.7111 110.929 47.6134 107.033C43.5979 103.217 39.6311 99.3272 35.8654 95.264C29.8939 88.8221 33.2026 78.7892 41.8095 77.0195C45.3619 76.2885 48.5182 77.3424 51.1749 79.7395C52.4667 80.8999 53.5787 82.2614 54.9863 83.763ZM44.4174 84.092C42.2939 84.2077 41.1697 85.0088 40.4811 86.4098C39.82 87.75 40.0058 89.0506 41.0356 90.0953C44.8744 93.9939 48.7224 97.8804 52.6404 101.697C54.0266 103.046 56.013 103.013 57.3901 101.663C61.2716 97.8621 65.0891 93.997 68.9126 90.1379C69.6377 89.4039 69.9698 88.481 69.7931 87.4241C69.5402 85.9012 68.6567 84.8747 67.237 84.3417C65.8934 83.8361 64.6808 84.1711 63.6754 85.1549C61.7469 87.0403 59.8518 88.9592 57.9385 90.8598C55.9978 92.7847 53.9961 92.7939 52.0767 90.8872C50.2701 89.0932 48.5152 87.2444 46.6476 85.5174C45.9072 84.8351 44.9292 84.4118 44.4174 84.092Z" fill="#171717"/>
<path d="M54.9858 26.2794C53.6179 27.7323 52.5455 29.0268 51.3176 30.1476C45.0202 35.8982 35.3196 33.0259 33.1595 24.7778C32.1754 21.0163 33.1504 17.6232 35.7461 14.8698C39.6276 10.7549 43.6279 6.74656 47.7378 2.86009C51.732 -0.919784 58.1148 -0.971563 62.1638 2.80831C66.353 6.71915 70.3959 10.7975 74.317 14.9764C77.4855 18.3542 77.9973 23.0143 76.02 26.9343C73.9239 31.0888 69.7195 33.5041 65.1251 33.1234C62.6573 32.9193 60.5125 31.8777 58.7241 30.1964C57.4811 29.0298 56.3629 27.7323 54.9858 26.2794ZM65.5943 25.917C67.7209 25.7708 68.8451 24.9606 69.5032 23.5473C70.1979 22.0549 69.8109 20.7239 68.6867 19.5969C64.985 15.881 61.2924 12.159 57.5572 8.48268C56.0156 6.96586 54.0657 6.99022 52.451 8.44004C51.8021 9.02179 51.2019 9.66142 50.5834 10.2797C47.5733 13.289 44.5632 16.2952 41.5561 19.3075C40.6421 20.2213 39.9018 21.2295 40.1699 22.6245C40.4593 24.123 41.3459 25.1586 42.7778 25.6764C44.1336 26.1667 45.3279 25.7891 46.3272 24.8083C48.2527 22.9199 50.1538 21.0041 52.0702 19.1065C53.9926 17.2029 55.9973 17.2151 57.932 19.14C59.7386 20.934 61.4905 22.7859 63.3581 24.5129C64.0954 25.1921 65.0825 25.6033 65.5943 25.917Z" fill="#171717"/>
<path d="M26.1954 55.0287C27.7096 56.4328 29.044 57.5171 30.1987 58.7689C33.3155 62.1498 34.0832 66.7795 32.109 70.7055C29.9519 74.991 26.4391 77.251 21.5766 77.12C18.9717 77.05 16.6624 76.0083 14.813 74.2143C10.7792 70.2974 6.74545 66.3744 2.88837 62.2869C-1.00832 58.1567 -0.944344 51.7026 2.97977 47.5969C6.75764 43.6434 10.63 39.7691 14.5937 36.0014C17.8231 32.9282 21.7076 31.9291 25.9517 33.5861C30.2535 35.2643 32.7092 38.5416 33.1387 43.1469C33.4282 46.2567 32.2735 48.9797 30.1804 51.2518C29.0257 52.5037 27.7096 53.6032 26.1954 55.0287ZM21.6254 40.1254C21.2385 40.3265 20.3793 40.558 19.8248 41.1001C15.9433 44.8922 12.0893 48.7177 8.29925 52.6042C6.94044 53.9961 6.97395 56.0673 8.33276 57.4501C12.1076 61.297 15.9281 65.1012 19.7913 68.8598C20.3153 69.3684 21.1684 69.7248 21.9026 69.8009C23.5509 69.9684 24.7208 69.0699 25.4672 67.6536C26.2106 66.2434 25.9699 64.9002 24.8945 63.7732C23.1091 61.9092 21.2689 60.1 19.444 58.2725C17.0554 55.8785 17.0432 54.1362 19.4074 51.7696C21.2567 49.9147 23.1274 48.0811 24.9341 46.1836C25.976 45.0901 26.1862 43.7743 25.4916 42.3976C24.7909 40.9996 23.6606 40.2107 21.6254 40.1254Z" fill="#171717"/>
<path d="M65.9358 54.852C65.951 60.8614 61.0246 65.8018 54.9983 65.8139C49.0055 65.8292 44.0181 60.8675 44.0059 54.8825C43.9937 48.9218 48.9902 43.9144 54.9648 43.8962C60.9454 43.8809 65.9206 48.8487 65.9358 54.852ZM58.6208 54.8794C58.6238 52.8418 57.0791 51.2579 55.0501 51.2153C53.0118 51.1726 51.3301 52.8204 51.324 54.8642C51.3179 56.9293 52.9448 58.5222 55.0348 58.5009C57.0913 58.4765 58.6177 56.9353 58.6208 54.8794Z" fill="#171717"/>
</g>
<defs>
<clipPath id="clip0_53_745">
<rect width="110" height="110" fill="white"/>
</clipPath>
</defs>
</svg>
