<svg width="66" height="120" viewBox="0 0 66 120" fill="none" xmlns="http://www.w3.org/2000/svg">
<g clip-path="url(#clip0_53_752)">
<path d="M65.9539 61.1293C65.9169 53.9106 63.0964 47.1133 58.0164 41.989C52.9457 36.8771 46.1826 33.9865 38.9695 33.8564C36.2353 33.8068 34.2501 32.391 33.6552 30.0736C33.051 27.7159 34.0867 25.5038 36.4295 24.15C37.943 23.2763 39.4596 22.4026 40.9762 21.5289L41.0255 21.5011C43.6333 19.9985 46.2411 18.499 48.8428 16.9902C49.9618 16.3427 50.5783 15.6673 50.7817 14.8711C50.9882 14.0655 50.7663 13.1609 50.082 12.027C48.0753 8.68718 46.0624 5.34739 44.0433 2.0138C42.7764 -0.0805421 41.6389 -0.44922 39.3548 0.495711L38.766 0.740463C32.4931 3.3429 26.2201 5.94223 19.9503 8.55396C7.46912 13.7495 0.0155655 24.9245 0.0063179 38.4509C0.00323537 44.2785 0.00323537 50.1092 0.0063179 55.9368V62.4584L0.00323537 62.7217C0.00015284 62.9913 -0.00292969 63.2701 0.0248131 63.5613C0.182022 65.1476 1.3688 66.2505 2.92239 66.2505C2.93164 66.2505 2.94088 66.2505 2.95013 66.2505C4.50681 66.2412 5.69666 65.1228 5.84463 63.5303C5.87237 63.2453 5.8662 62.9665 5.86312 62.7C5.86312 62.6102 5.86004 62.5204 5.86004 62.4305C5.86004 59.9303 5.85696 57.427 5.85079 54.9268C5.84154 49.2913 5.8323 43.4668 5.87853 37.7353C5.92785 31.4616 8.12261 25.761 12.395 20.7916C16.3745 16.163 21.7166 14.0686 27.373 11.8504L28.2269 11.5158L33.0448 19.32C32.8815 19.4253 32.7335 19.5244 32.5825 19.6205C28.8495 22.0866 26.9414 26.6347 27.8292 30.9318C28.7571 35.4179 32.228 38.7917 36.6668 39.526C37.5793 39.6778 38.5071 39.7367 39.4041 39.7924C40.3566 39.8513 41.343 39.9133 42.2709 40.0899C52.9302 42.1067 60.0971 50.7908 60.1064 61.6993C60.1187 73.9029 60.1156 86.314 60.1125 98.3162L60.1094 107.158C60.1094 111.514 57.5109 114.114 53.1614 114.117C39.7154 114.12 26.2695 114.12 12.8235 114.117C8.46477 114.117 5.86004 111.524 5.85696 107.18C5.85387 102.084 5.85387 96.9902 5.85696 91.8937V85.2421C5.85696 85.0531 5.85696 84.8641 5.85696 84.6751C5.83846 82.6148 4.72567 81.326 2.95321 81.3074C2.14559 81.3074 1.44278 81.5801 0.927994 82.0913C0.323818 82.6923 0.00323537 83.5722 0.00323537 84.6348L-0.00292969 89.4617C0.00015284 95.4008 -0.00601221 101.548 0.0155655 107.592C0.0433082 114.637 5.33909 119.96 12.3395 119.975C19.0718 119.991 25.7639 119.997 32.7921 119.997C39.5428 119.997 46.4477 119.991 53.6022 119.978C60.6366 119.966 65.9508 114.659 65.9632 107.635L65.9693 104.048C66.0002 89.9853 66.0279 75.4427 65.9539 61.1293ZM33.7107 9.20766L39.9682 6.60523L43.8676 13.0741L38.1403 16.3829L33.7107 9.20766Z" fill="#171717"/>
<path d="M33.0015 97.7151H33.0323C44.1911 97.6996 53.263 88.5694 53.2568 77.3666C53.2506 66.1668 44.1664 57.0521 32.9953 57.0459C21.8335 57.0459 12.7401 66.1482 12.7246 77.3325C12.7154 82.7666 14.8238 87.8816 18.6585 91.7388C22.4963 95.5929 27.5886 97.7151 33.0015 97.7151ZM18.5814 77.286C18.5969 73.4598 20.1073 69.8567 22.8384 67.1427C25.5757 64.4226 29.1977 62.9231 33.0416 62.9231H33.1402C41.0377 62.9758 47.437 69.5004 47.4 77.4719C47.3846 81.3012 45.868 84.9043 43.1369 87.6214C40.4027 90.3385 36.7807 91.838 32.9429 91.838H32.8412C24.9469 91.7822 18.5506 85.2544 18.5814 77.286Z" fill="#171717"/>
<path d="M3.04575 76.6819C4.63633 76.6292 5.90017 75.2908 5.85701 73.7015C5.81694 72.1339 4.50687 70.8605 2.93786 70.8605H2.90087C1.31029 70.8822 0.015625 72.1896 0.015625 73.7759C0.015625 74.5659 0.32696 75.3063 0.894145 75.8547C1.44284 76.3876 2.17031 76.6819 2.94094 76.6819C2.97485 76.6819 3.00876 76.6819 3.04575 76.6819Z" fill="#171717"/>
<path d="M26.8216 79.8266C26.8216 80.6011 27.1206 81.3292 27.6662 81.8776C28.2303 82.4445 28.967 82.7264 29.7068 82.7264C30.4466 82.7264 31.1865 82.4445 31.7475 81.8776L32.9867 80.6321L34.2258 81.8776C34.7899 82.4445 35.5267 82.7264 36.2665 82.7264C37.0063 82.7264 37.7461 82.4445 38.3071 81.8776C38.8527 81.3292 39.1517 80.6011 39.1517 79.8266C39.1517 79.0521 38.8527 78.324 38.3071 77.7756L37.0679 76.5302L38.3071 75.2847C38.8527 74.7364 39.1517 74.0083 39.1517 73.2338C39.1517 72.4592 38.8527 71.7312 38.3071 71.1828C37.182 70.052 35.3509 70.052 34.2227 71.1828L32.9836 72.4283L31.7444 71.1828C30.6193 70.052 28.7882 70.052 27.66 71.1828C27.1144 71.7312 26.8154 72.4592 26.8154 73.2338C26.8154 74.0083 27.1144 74.7364 27.66 75.2847L28.8992 76.5302L27.66 77.7756C27.1237 78.324 26.8216 79.0521 26.8216 79.8266Z" fill="#171717"/>
</g>
<defs>
<clipPath id="clip0_53_752">
<rect width="66" height="120" fill="white"/>
</clipPath>
</defs>
</svg>
