<svg width="103" height="103" viewBox="0 0 103 103" fill="none" xmlns="http://www.w3.org/2000/svg">
<g clip-path="url(#clip0_53_758)">
<path d="M0 48.4569C0.0913478 27.1268 14.0837 8.24377 34.3951 2.10073C61.0579 -5.96016 88.9539 9.92793 95.617 36.982C95.9931 38.5077 96.251 40.0629 96.5277 41.6101C96.9469 43.9604 95.5095 46.0394 93.2258 46.437C91.0093 46.8238 89.0453 45.2309 88.5563 42.886C87.9894 40.1731 87.5273 37.3903 86.5332 34.8278C80.9153 20.3365 70.4453 11.3677 55.1203 8.69234C33.7584 4.9614 13.4442 19.0015 8.94134 40.2107C4.41693 61.5246 18.197 83.032 39.4999 87.8991C40.4778 88.1221 41.4719 88.2806 42.4525 88.4955C44.6261 88.9736 46.007 90.9156 45.6793 93.008C45.3461 95.1462 43.5138 96.6396 41.2919 96.3818C37.5466 95.9466 33.9196 94.9528 30.4672 93.4647C14.0702 86.4003 4.14826 74.0874 0.733469 56.5581C0.515846 55.4434 0.378825 54.3072 0.282103 53.1736C0.147768 51.605 0.0913478 50.0283 0 48.4569Z" fill="#171717"/>
<path d="M49.0273 75.8628C49.1321 60.2701 62.2593 47.8497 77.8449 48.7576C79.7363 48.8678 81.6304 49.2572 83.4789 49.7031C85.7599 50.2565 86.9662 52.3865 86.4047 54.5515C85.8271 56.7756 83.7395 58.0165 81.4209 57.4256C76.832 56.2545 72.3882 56.5822 68.0895 58.5913C60.4297 62.1719 56.0316 70.6008 57.426 79.0162C58.7935 87.2678 65.615 93.8084 73.8739 94.7861C83.9464 95.9814 92.9656 89.5134 95.0156 79.6259C95.5287 77.144 97.5599 75.6532 99.7899 76.1206C102.141 76.6122 103.395 78.6858 102.888 81.2376C100.322 94.1146 88.9356 103.204 75.6364 102.995C62.7779 102.793 51.6496 93.1557 49.5244 80.3485C49.2772 78.8658 49.1885 77.3589 49.0273 75.8628Z" fill="#171717"/>
<path d="M52.5597 33.541C52.5597 38.4001 52.5463 43.2618 52.5705 48.1209C52.5758 49.4747 52.1352 50.5921 51.1868 51.551C46.3534 56.4343 41.5308 61.331 36.7028 66.2197C35.5287 67.4096 34.1424 67.9146 32.4954 67.415C30.9855 66.9557 30.0505 65.9135 29.7201 64.3878C29.3842 62.8433 29.9538 61.5808 31.0419 60.4822C35.3138 56.1738 39.5641 51.8438 43.8441 47.5434C44.3303 47.0546 44.5318 46.5711 44.5318 45.8781C44.5077 36.8287 44.5077 27.7793 44.5211 18.73C44.5265 15.7699 47.146 13.8145 49.8354 14.7224C51.4904 15.2811 52.5543 16.7826 52.557 18.6574C52.5678 23.6186 52.5597 28.5798 52.5597 33.541Z" fill="#171717"/>
<path d="M76.5069 76.6336C79.4649 73.5608 82.2994 70.5685 85.1876 67.6326C87.7964 64.9815 90.4589 62.3787 93.1161 59.7732C94.2901 58.6209 95.7034 58.2394 97.2778 58.774C98.7662 59.2763 99.6689 60.3534 99.9537 61.8925C100.233 63.4074 99.6474 64.635 98.5781 65.6879C94.4003 69.8057 90.2332 73.9368 86.0635 78.0626C84.5132 79.5964 82.9791 81.1409 81.4182 82.6612C78.3849 85.6105 74.1856 85.6132 71.1711 82.6558C69.2797 80.8024 67.4097 78.9249 65.5505 77.0392C63.8257 75.2879 63.7692 72.8248 65.3866 71.1997C67.0094 69.5693 69.465 69.615 71.2275 71.3421C72.8986 72.986 74.5402 74.6621 76.5069 76.6336Z" fill="#171717"/>
</g>
<defs>
<clipPath id="clip0_53_758">
<rect width="103" height="103" fill="white"/>
</clipPath>
</defs>
</svg>
